%TF.GenerationSoftware,KiCad,Pcbnew,9.0.7-9.0.7~ubuntu24.04.1*%
%TF.CreationDate,2026-03-16T21:17:30-03:00*%
%TF.ProjectId,bpm,62706d2e-6b69-4636-9164-5f7063625858,rev?*%
%TF.SameCoordinates,Original*%
%TF.FileFunction,Copper,L2,Bot*%
%TF.FilePolarity,Positive*%
%FSLAX46Y46*%
G04 Gerber Fmt 4.6, Leading zero omitted, Abs format (unit mm)*
G04 Created by KiCad (PCBNEW 9.0.7-9.0.7~ubuntu24.04.1) date 2026-03-16 21:17:30*
%MOMM*%
%LPD*%
G01*
G04 APERTURE LIST*
%TA.AperFunction,ComponentPad*%
%ADD10O,2.000000X3.000000*%
%TD*%
%TA.AperFunction,ComponentPad*%
%ADD11O,3.000000X2.000000*%
%TD*%
%TA.AperFunction,ComponentPad*%
%ADD12R,3.000000X2.000000*%
%TD*%
%TA.AperFunction,ComponentPad*%
%ADD13C,2.500000*%
%TD*%
%TA.AperFunction,ComponentPad*%
%ADD14C,2.000000*%
%TD*%
%TA.AperFunction,ComponentPad*%
%ADD15R,2.000000X2.000000*%
%TD*%
%TA.AperFunction,ComponentPad*%
%ADD16O,2.000000X1.050000*%
%TD*%
%TA.AperFunction,ViaPad*%
%ADD17C,2.500000*%
%TD*%
%TA.AperFunction,Conductor*%
%ADD18C,0.700000*%
%TD*%
%TA.AperFunction,Conductor*%
%ADD19C,1.500000*%
%TD*%
%TA.AperFunction,Conductor*%
%ADD20C,0.200000*%
%TD*%
%TA.AperFunction,Conductor*%
%ADD21C,1.000000*%
%TD*%
%TA.AperFunction,Conductor*%
%ADD22C,0.600000*%
%TD*%
%TA.AperFunction,Conductor*%
%ADD23C,0.500000*%
%TD*%
G04 APERTURE END LIST*
D10*
%TO.P,R4,1*%
%TO.N,Rx*%
X157480000Y-119530000D03*
%TO.P,R4,2*%
%TO.N,Net-(ESP32-GPIO17)*%
X157480000Y-129690000D03*
%TD*%
%TO.P,C9,1*%
%TO.N,GND*%
X104760000Y-104310000D03*
%TO.P,C9,2*%
%TO.N,+5V*%
X104760000Y-109310000D03*
%TD*%
D11*
%TO.P,R6,1*%
%TO.N,+3V3*%
X140650000Y-86220000D03*
%TO.P,R6,2*%
%TO.N,SDA*%
X150810000Y-86220000D03*
%TD*%
%TO.P,C5,1*%
%TO.N,GND*%
X171677300Y-79800503D03*
%TO.P,C5,2*%
%TO.N,+3V3*%
X166677300Y-79800503D03*
%TD*%
D10*
%TO.P,R2,1*%
%TO.N,P_MODO*%
X186530000Y-67590000D03*
%TO.P,R2,2*%
%TO.N,GND*%
X186530000Y-57430000D03*
%TD*%
%TO.P,C2,1*%
%TO.N,P_MODO*%
X181490000Y-64890000D03*
%TO.P,C2,2*%
%TO.N,GND*%
X181490000Y-59890000D03*
%TD*%
D11*
%TO.P,SW2,1,1*%
%TO.N,P_MODO*%
X189460000Y-100780000D03*
%TO.N,N/C*%
X189460000Y-107280000D03*
%TO.P,SW2,2,2*%
X184960000Y-100780000D03*
%TO.N,+3V3*%
X184960000Y-107280000D03*
%TD*%
D10*
%TO.P,R3,1*%
%TO.N,Net-(Q1-B)*%
X181450000Y-31660000D03*
%TO.P,R3,2*%
%TO.N,ALARMA*%
X181450000Y-41820000D03*
%TD*%
D11*
%TO.P,R7,1*%
%TO.N,+3V3*%
X140680000Y-89600000D03*
%TO.P,R7,2*%
%TO.N,SCL*%
X150840000Y-89600000D03*
%TD*%
%TO.P,LPC845,1,PIO0_16*%
%TO.N,unconnected-(LPC845-PIO0_16-Pad1)*%
X176025000Y-77400000D03*
%TO.P,LPC845,2,PIO0_17*%
%TO.N,unconnected-(LPC845-PIO0_17-Pad2)*%
X176025000Y-74860000D03*
%TO.P,LPC845,3,PIO0_18*%
%TO.N,unconnected-(LPC845-PIO0_18-Pad3)*%
X176025000Y-72320000D03*
%TO.P,LPC845,4,PIO0_19*%
%TO.N,unconnected-(LPC845-PIO0_19-Pad4)*%
X176025000Y-69780000D03*
%TO.P,LPC845,5,PIO0_20*%
%TO.N,unconnected-(LPC845-PIO0_20-Pad5)*%
X176025000Y-67240000D03*
%TO.P,LPC845,6,PIO0_21*%
%TO.N,unconnected-(LPC845-PIO0_21-Pad6)*%
X176025000Y-64700000D03*
%TO.P,LPC845,7,PIO0_22*%
%TO.N,P_MODO*%
X176025000Y-62160000D03*
%TO.P,LPC845,8,PIO0_23*%
%TO.N,unconnected-(LPC845-PIO0_23-Pad8)*%
X176025000Y-59620000D03*
%TO.P,LPC845,9,PIO0_05*%
%TO.N,unconnected-(LPC845-PIO0_05-Pad9)*%
X176025000Y-57080000D03*
%TO.P,LPC845,10,PIO0_24*%
%TO.N,unconnected-(LPC845-PIO0_24-Pad10)*%
X176025000Y-54540000D03*
%TO.P,LPC845,11,PIO0_25*%
%TO.N,unconnected-(LPC845-PIO0_25-Pad11)*%
X176025000Y-52000000D03*
%TO.P,LPC845,12,PIO0_26*%
%TO.N,P_ALARMA*%
X176025000Y-49460000D03*
%TO.P,LPC845,13,PIO0_27*%
%TO.N,unconnected-(LPC845-PIO0_27-Pad13)*%
X176025000Y-46920000D03*
%TO.P,LPC845,14,PIO0_28*%
%TO.N,unconnected-(LPC845-PIO0_28-Pad14)*%
X176025000Y-44380000D03*
%TO.P,LPC845,15,PIO0_29*%
%TO.N,ALARMA*%
X176025000Y-41840000D03*
%TO.P,LPC845,16,PIO0_30*%
%TO.N,unconnected-(LPC845-PIO0_30-Pad16)*%
X176025000Y-39300000D03*
%TO.P,LPC845,17,PIO0_31*%
%TO.N,unconnected-(LPC845-PIO0_31-Pad17)*%
X176025000Y-36760000D03*
%TO.P,LPC845,18,PIO0_09*%
%TO.N,unconnected-(LPC845-PIO0_09-Pad18)*%
X176025000Y-34220000D03*
%TO.P,LPC845,19,PIO0_08*%
%TO.N,unconnected-(LPC845-PIO0_08-Pad19)*%
X176025000Y-31680000D03*
%TO.P,LPC845,20,GND*%
%TO.N,GND*%
X176025000Y-29140000D03*
%TO.P,LPC845,21,PIO0_08*%
%TO.N,Tx*%
X161025000Y-29140000D03*
%TO.P,LPC845,22,PIO0_09*%
%TO.N,Rx*%
X161025000Y-31680000D03*
%TO.P,LPC845,23,PIO0_10*%
%TO.N,SCL*%
X161025000Y-34220000D03*
%TO.P,LPC845,24,PIO0_11*%
%TO.N,SDA*%
X161025000Y-36760000D03*
%TO.P,LPC845,25,PIO0_12*%
%TO.N,unconnected-(LPC845-PIO0_12-Pad25)*%
X161025000Y-39300000D03*
%TO.P,LPC845,26,PIO0_13*%
%TO.N,unconnected-(LPC845-PIO0_13-Pad26)*%
X161025000Y-41840000D03*
%TO.P,LPC845,27,PIO0_14*%
%TO.N,unconnected-(LPC845-PIO0_14-Pad27)*%
X161025000Y-44380000D03*
%TO.P,LPC845,28,PIO0_15*%
%TO.N,unconnected-(LPC845-PIO0_15-Pad28)*%
X161025000Y-46920000D03*
%TO.P,LPC845,29,PIO1_2*%
%TO.N,unconnected-(LPC845-PIO1_2-Pad29)*%
X161025000Y-49460000D03*
%TO.P,LPC845,30,PIO1_1*%
%TO.N,unconnected-(LPC845-PIO1_1-Pad30)*%
X161025000Y-52000000D03*
%TO.P,LPC845,31,PIO1_0*%
%TO.N,unconnected-(LPC845-PIO1_0-Pad31)*%
X161025000Y-54540000D03*
%TO.P,LPC845,32,PIO0_07*%
%TO.N,unconnected-(LPC845-PIO0_07-Pad32)*%
X161025000Y-57080000D03*
%TO.P,LPC845,33,PIO0_06*%
%TO.N,unconnected-(LPC845-PIO0_06-Pad33)*%
X161025000Y-59620000D03*
%TO.P,LPC845,34,PIO0_05*%
%TO.N,unconnected-(LPC845-PIO0_05-Pad34)*%
X161025000Y-62160000D03*
%TO.P,LPC845,35,PIO0_04*%
%TO.N,unconnected-(LPC845-PIO0_04-Pad35)*%
X161025000Y-64700000D03*
%TO.P,LPC845,36,PIO0_03*%
%TO.N,unconnected-(LPC845-PIO0_03-Pad36)*%
X161025000Y-67240000D03*
%TO.P,LPC845,37,PIO0_02*%
%TO.N,unconnected-(LPC845-PIO0_02-Pad37)*%
X161025000Y-69780000D03*
%TO.P,LPC845,38,PIO0_01*%
%TO.N,unconnected-(LPC845-PIO0_01-Pad38)*%
X161025000Y-72320000D03*
%TO.P,LPC845,39,PIO0_00*%
%TO.N,unconnected-(LPC845-PIO0_00-Pad39)*%
X161025000Y-74860000D03*
%TO.P,LPC845,40,3V3*%
%TO.N,+3V3*%
X161025000Y-77400000D03*
%TD*%
D10*
%TO.P,C6,1*%
%TO.N,GND*%
X114700000Y-109200000D03*
%TO.P,C6,2*%
%TO.N,+3V3*%
X114700000Y-104200000D03*
%TD*%
%TO.P,C8,1*%
%TO.N,GND*%
X162710000Y-119390000D03*
%TO.P,C8,2*%
%TO.N,+5V*%
X162710000Y-114390000D03*
%TD*%
D12*
%TO.P,HEADER_2X1,1*%
%TO.N,Net-(HEADER_2X1-Pad1)*%
X104370000Y-32742500D03*
%TO.P,HEADER_2X1,2*%
%TO.N,Net-(LM2596-Vin-)*%
X99370000Y-32742500D03*
%TD*%
D13*
%TO.P,,1*%
%TO.N,GND*%
X94720000Y-100920000D03*
%TD*%
D10*
%TO.P,C1,1*%
%TO.N,P_ALARMA*%
X181490000Y-51330000D03*
%TO.P,C1,2*%
%TO.N,GND*%
X181490000Y-46330000D03*
%TD*%
D14*
%TO.P,DISPLAY1,1,GND*%
%TO.N,GND*%
X130845000Y-36167500D03*
D15*
%TO.P,DISPLAY1,2,Vin*%
%TO.N,+3V3*%
X133385000Y-36167500D03*
D14*
%TO.P,DISPLAY1,3,SCL*%
%TO.N,SCL*%
X135925000Y-36167500D03*
%TO.P,DISPLAY1,4,SDA*%
%TO.N,SDA*%
X138465000Y-36167500D03*
%TD*%
%TO.P,C4,1*%
%TO.N,+5V*%
X111665113Y-145320000D03*
%TO.P,C4,2*%
%TO.N,GND*%
X109165113Y-145320000D03*
%TD*%
D11*
%TO.P,C3,1*%
%TO.N,GND*%
X107994662Y-149950636D03*
%TO.P,C3,2*%
%TO.N,+5V*%
X112994662Y-149950636D03*
%TD*%
D13*
%TO.P,,1*%
%TO.N,GND*%
X171640000Y-30880000D03*
%TD*%
D10*
%TO.P,R5,1*%
%TO.N,Tx*%
X152400000Y-122090000D03*
%TO.P,R5,2*%
%TO.N,Net-(ESP32-GPIO16)*%
X152400000Y-132250000D03*
%TD*%
D11*
%TO.P,SW1,1,1*%
%TO.N,P_ALARMA*%
X198260000Y-100860000D03*
%TO.N,N/C*%
X198260000Y-107360000D03*
%TO.P,SW1,2,2*%
X193760000Y-100860000D03*
%TO.N,+3V3*%
X193760000Y-107360000D03*
%TD*%
D14*
%TO.P,LM2596,1,Vin+*%
%TO.N,Net-(LM2596-Vin+)*%
X112640000Y-57230000D03*
%TO.P,LM2596,2,Vin-*%
%TO.N,Net-(LM2596-Vin-)*%
X94640000Y-57230000D03*
%TO.P,LM2596,3,GND*%
%TO.N,GND*%
X94620000Y-96710000D03*
%TO.P,LM2596,4,Vout+*%
%TO.N,Net-(D1-A)*%
X112620000Y-96710000D03*
%TD*%
D11*
%TO.P,C7,1*%
%TO.N,GND*%
X139520000Y-31670000D03*
%TO.P,C7,2*%
%TO.N,+3V3*%
X134520000Y-31670000D03*
%TD*%
D13*
%TO.P,REF\u002A\u002A,1*%
%TO.N,GND*%
X150690000Y-104420000D03*
%TD*%
D11*
%TO.P,BZ1,1,+*%
%TO.N,+3V3*%
X195849424Y-32204227D03*
%TO.P,BZ1,2,-*%
%TO.N,Net-(BZ1--)*%
X195849424Y-39804227D03*
%TD*%
D16*
%TO.P,Q1,1,E*%
%TO.N,GND*%
X186780463Y-37754227D03*
%TO.P,Q1,2,B*%
%TO.N,Net-(Q1-B)*%
X186780463Y-36484227D03*
%TO.P,Q1,3,C*%
%TO.N,Net-(BZ1--)*%
X186780463Y-35214227D03*
%TD*%
D11*
%TO.P,ESP32,1,3V3*%
%TO.N,+3V3*%
X120630000Y-104270000D03*
%TO.P,ESP32,2,EN*%
%TO.N,unconnected-(ESP32-EN-Pad2)*%
X120630000Y-106810000D03*
%TO.P,ESP32,3,GPIO36*%
%TO.N,unconnected-(ESP32-GPIO36-Pad3)*%
X120630000Y-109350000D03*
%TO.P,ESP32,4,GPIO39*%
%TO.N,unconnected-(ESP32-GPIO39-Pad4)*%
X120630000Y-111890000D03*
%TO.P,ESP32,5,GPIO34*%
%TO.N,unconnected-(ESP32-GPIO34-Pad5)*%
X120630000Y-114430000D03*
%TO.P,ESP32,6,GPIO35*%
%TO.N,unconnected-(ESP32-GPIO35-Pad6)*%
X120630000Y-116970000D03*
%TO.P,ESP32,7,GPIO32*%
%TO.N,unconnected-(ESP32-GPIO32-Pad7)*%
X120630000Y-119510000D03*
%TO.P,ESP32,8,GPIO33*%
%TO.N,unconnected-(ESP32-GPIO33-Pad8)*%
X120630000Y-122050000D03*
%TO.P,ESP32,9,GPIO25*%
%TO.N,unconnected-(ESP32-GPIO25-Pad9)*%
X120630000Y-124590000D03*
%TO.P,ESP32,10,GPIO26*%
%TO.N,unconnected-(ESP32-GPIO26-Pad10)*%
X120630000Y-127130000D03*
%TO.P,ESP32,11,GPIO27*%
%TO.N,unconnected-(ESP32-GPIO27-Pad11)*%
X120630000Y-129670000D03*
%TO.P,ESP32,12,GPIO14*%
%TO.N,unconnected-(ESP32-GPIO14-Pad12)*%
X120630000Y-132210000D03*
%TO.P,ESP32,13,GPIO12*%
%TO.N,unconnected-(ESP32-GPIO12-Pad13)*%
X120630000Y-134750000D03*
%TO.P,ESP32,14,GND*%
%TO.N,unconnected-(ESP32-GND-Pad14)*%
X120630000Y-137290000D03*
%TO.P,ESP32,15,GPIO13*%
%TO.N,unconnected-(ESP32-GPIO13-Pad15)*%
X120630000Y-139830000D03*
%TO.P,ESP32,16,SD2*%
%TO.N,unconnected-(ESP32-SD2-Pad16)*%
X120630000Y-142370000D03*
%TO.P,ESP32,17,SD3*%
%TO.N,unconnected-(ESP32-SD3-Pad17)*%
X120630000Y-144910000D03*
%TO.P,ESP32,18,CMD*%
%TO.N,unconnected-(ESP32-CMD-Pad18)*%
X120630000Y-147450000D03*
%TO.P,ESP32,19,5V*%
%TO.N,+5V*%
X120630000Y-149990000D03*
%TO.P,ESP32,20,CLK*%
%TO.N,unconnected-(ESP32-CLK-Pad20)*%
X145630000Y-149990000D03*
%TO.P,ESP32,21,SD0*%
%TO.N,unconnected-(ESP32-SD0-Pad21)*%
X145630000Y-147450000D03*
%TO.P,ESP32,22,SD1*%
%TO.N,unconnected-(ESP32-SD1-Pad22)*%
X145630000Y-144910000D03*
%TO.P,ESP32,23,GPIO15*%
%TO.N,unconnected-(ESP32-GPIO15-Pad23)*%
X145630000Y-142370000D03*
%TO.P,ESP32,24,GPIO2*%
%TO.N,unconnected-(ESP32-GPIO2-Pad24)*%
X145630000Y-139830000D03*
%TO.P,ESP32,25,GPIO0*%
%TO.N,unconnected-(ESP32-GPIO0-Pad25)*%
X145630000Y-137290000D03*
%TO.P,ESP32,26,GPIO4*%
%TO.N,unconnected-(ESP32-GPIO4-Pad26)*%
X145630000Y-134750000D03*
%TO.P,ESP32,27,GPIO16*%
%TO.N,Net-(ESP32-GPIO16)*%
X145630000Y-132210000D03*
%TO.P,ESP32,28,GPIO17*%
%TO.N,Net-(ESP32-GPIO17)*%
X145630000Y-129670000D03*
%TO.P,ESP32,29,GPIO5*%
%TO.N,unconnected-(ESP32-GPIO5-Pad29)*%
X145630000Y-127130000D03*
%TO.P,ESP32,30,GPIO18*%
%TO.N,unconnected-(ESP32-GPIO18-Pad30)*%
X145630000Y-124590000D03*
%TO.P,ESP32,31,GPIO19*%
%TO.N,unconnected-(ESP32-GPIO19-Pad31)*%
X145630000Y-122050000D03*
%TO.P,ESP32,32,GND*%
%TO.N,unconnected-(ESP32-GND-Pad32)*%
X145630000Y-119510000D03*
%TO.P,ESP32,33,GPIO21*%
%TO.N,unconnected-(ESP32-GPIO21-Pad33)*%
X145630000Y-116970000D03*
%TO.P,ESP32,34,RX0*%
%TO.N,unconnected-(ESP32-RX0-Pad34)*%
X145630000Y-114430000D03*
%TO.P,ESP32,35,TX0*%
%TO.N,unconnected-(ESP32-TX0-Pad35)*%
X145630000Y-111890000D03*
%TO.P,ESP32,36,GPIO22*%
%TO.N,unconnected-(ESP32-GPIO22-Pad36)*%
X145630000Y-109350000D03*
%TO.P,ESP32,37,GPIO23*%
%TO.N,unconnected-(ESP32-GPIO23-Pad37)*%
X145630000Y-106810000D03*
%TO.P,ESP32,38,GND*%
%TO.N,GND*%
X145630000Y-104270000D03*
%TD*%
D13*
%TO.P,,1*%
%TO.N,GND*%
X165010000Y-97600000D03*
%TD*%
D10*
%TO.P,D1,1,K*%
%TO.N,+5V*%
X109550000Y-114420000D03*
%TO.P,D1,2,A*%
%TO.N,Net-(D1-A)*%
X109550000Y-104260000D03*
%TD*%
D11*
%TO.P,POWER_SWITCH3,1*%
%TO.N,Net-(LM2596-Vin+)*%
X103087500Y-48070000D03*
%TO.P,POWER_SWITCH3,2*%
%TO.N,Net-(HEADER_2X1-Pad1)*%
X103087500Y-45570000D03*
%TO.P,POWER_SWITCH3,3*%
%TO.N,N/C*%
X103087500Y-43070000D03*
%TO.P,POWER_SWITCH3,4*%
X106387500Y-43070000D03*
%TO.P,POWER_SWITCH3,5*%
X106387500Y-45570000D03*
%TO.P,POWER_SWITCH3,6*%
X106387500Y-48070000D03*
%TD*%
D13*
%TO.P,,1*%
%TO.N,GND*%
X129750000Y-31860000D03*
%TD*%
D10*
%TO.P,R1,1*%
%TO.N,P_ALARMA*%
X186520000Y-53800000D03*
%TO.P,R1,2*%
%TO.N,GND*%
X186520000Y-43640000D03*
%TD*%
D11*
%TO.P,MAX30102,1,GND*%
%TO.N,GND*%
X165040000Y-101580000D03*
%TO.P,MAX30102,2,SCL*%
%TO.N,SCL*%
X165040000Y-104120000D03*
%TO.P,MAX30102,3,SDA*%
%TO.N,SDA*%
X165040000Y-106660000D03*
%TO.P,MAX30102,4,Vin*%
%TO.N,+5V*%
X165040000Y-109200000D03*
%TO.P,MAX30102,5,GND*%
%TO.N,unconnected-(MAX30102-GND-Pad5)*%
X175310000Y-109207500D03*
%TO.P,MAX30102,6,RD*%
%TO.N,unconnected-(MAX30102-RD-Pad6)*%
X175310000Y-106667500D03*
%TO.P,MAX30102,7,IRD*%
%TO.N,unconnected-(MAX30102-IRD-Pad7)*%
X175310000Y-104127500D03*
%TO.P,MAX30102,8,INT*%
%TO.N,unconnected-(MAX30102-INT-Pad8)*%
X175310000Y-101587500D03*
%TD*%
D17*
%TO.N,+3V3*%
X116320000Y-152540000D03*
X120310000Y-72590000D03*
X200360000Y-117610000D03*
X116200000Y-147540000D03*
X157570000Y-151150000D03*
X164950000Y-152400000D03*
%TO.N,P_ALARMA*%
X198260000Y-97860000D03*
X198250000Y-90570000D03*
%TO.N,P_MODO*%
X189440000Y-90570000D03*
X189460000Y-97850000D03*
%TO.N,+5V*%
X167570000Y-121620000D03*
X108350000Y-126750000D03*
X141010000Y-154780000D03*
X140930000Y-149980000D03*
%TO.N,SDA*%
X157970000Y-106810000D03*
X151260000Y-39290000D03*
X158690000Y-86320000D03*
X159380000Y-99470000D03*
X157730000Y-41320000D03*
%TO.N,SCL*%
X151400000Y-34250000D03*
X157170000Y-34220000D03*
X156770000Y-89650000D03*
%TO.N,Net-(ESP32-GPIO17)*%
X149270000Y-129700000D03*
X155340000Y-132390000D03*
%TD*%
D18*
%TO.N,Net-(BZ1--)*%
X188784227Y-35214227D02*
X189300000Y-35730000D01*
X189300000Y-35730000D02*
X189300000Y-39210000D01*
X186780463Y-35214227D02*
X188784227Y-35214227D01*
X189894227Y-39804227D02*
X195849424Y-39804227D01*
X189300000Y-39210000D02*
X189894227Y-39804227D01*
D19*
%TO.N,+3V3*%
X116200000Y-147540000D02*
X116240000Y-147500000D01*
X140720000Y-86250000D02*
X119760000Y-86250000D01*
X199890000Y-152420000D02*
X165010000Y-152420000D01*
X114700000Y-104200000D02*
X120560000Y-104200000D01*
X119720000Y-89600000D02*
X117560000Y-91760000D01*
X119510000Y-55350000D02*
X117560000Y-57300000D01*
X203700000Y-35060000D02*
X203700000Y-94750000D01*
X152200000Y-152430000D02*
X116430000Y-152430000D01*
X203700000Y-113080000D02*
X203700000Y-118850000D01*
X120455000Y-72550000D02*
X118970000Y-72550000D01*
X202520000Y-94960000D02*
X176670000Y-94960000D01*
X202520000Y-113080000D02*
X203700000Y-114260000D01*
X134520000Y-31670000D02*
X134520000Y-33440000D01*
X203700000Y-96140000D02*
X202520000Y-94960000D01*
X201230000Y-117600000D02*
X202450000Y-117600000D01*
X134520000Y-33440000D02*
X133385000Y-34575000D01*
X119760000Y-86250000D02*
X117600000Y-88410000D01*
X117560000Y-141910000D02*
X117560000Y-105000000D01*
X166677300Y-79800503D02*
X166677300Y-77737300D01*
X195849424Y-32204227D02*
X197355197Y-33710000D01*
X117560000Y-87320000D02*
X117560000Y-90610000D01*
X131510000Y-55350000D02*
X119510000Y-55350000D01*
X157570000Y-151150000D02*
X153480000Y-151150000D01*
X187000000Y-113080000D02*
X197580000Y-113080000D01*
X160990000Y-93290000D02*
X160990000Y-77435000D01*
X153480000Y-151150000D02*
X152200000Y-152430000D01*
X202350000Y-33710000D02*
X203700000Y-35060000D01*
X116430000Y-152430000D02*
X116320000Y-152540000D01*
X133385000Y-53475000D02*
X131510000Y-55350000D01*
X203700000Y-94750000D02*
X203700000Y-113080000D01*
X118970000Y-72550000D02*
X117560000Y-73960000D01*
X197355197Y-33710000D02*
X202350000Y-33710000D01*
X117560000Y-57300000D02*
X117560000Y-73960000D01*
D20*
X203700000Y-96140000D02*
X203700000Y-94750000D01*
D19*
X176670000Y-94960000D02*
X162660000Y-94960000D01*
D20*
X120560000Y-104200000D02*
X120630000Y-104270000D01*
D19*
X133385000Y-34575000D02*
X133385000Y-53475000D01*
X193760000Y-109260000D02*
X197580000Y-113080000D01*
X117560000Y-90610000D02*
X117560000Y-104030000D01*
D21*
X160990000Y-77435000D02*
X161025000Y-77400000D01*
D19*
X203700000Y-148610000D02*
X199890000Y-152420000D01*
X203700000Y-118850000D02*
X203700000Y-148610000D01*
X117560000Y-73960000D02*
X117560000Y-87320000D01*
X162660000Y-94960000D02*
X160990000Y-93290000D01*
X140680000Y-89600000D02*
X119720000Y-89600000D01*
X193760000Y-107360000D02*
X193760000Y-109260000D01*
X202450000Y-117600000D02*
X203700000Y-118850000D01*
X166677300Y-77737300D02*
X166340000Y-77400000D01*
X116200000Y-147540000D02*
X116200000Y-143270000D01*
X116200000Y-143270000D02*
X117560000Y-141910000D01*
X166340000Y-77400000D02*
X161025000Y-77400000D01*
X184960000Y-111040000D02*
X187000000Y-113080000D01*
X197580000Y-113080000D02*
X202520000Y-113080000D01*
X184960000Y-107280000D02*
X184960000Y-111040000D01*
%TO.N,GND*%
X175982500Y-29170000D02*
X173310000Y-29170000D01*
X173310000Y-29170000D02*
X171650000Y-30830000D01*
X94645000Y-96732500D02*
X94645000Y-100685000D01*
X130845000Y-36167500D02*
X130845000Y-35305000D01*
D20*
X145690000Y-104330000D02*
X145630000Y-104270000D01*
D19*
X130845000Y-35305000D02*
X129750000Y-34210000D01*
X129750000Y-34210000D02*
X129750000Y-31860000D01*
X165030000Y-101562500D02*
X165030000Y-97620000D01*
X165030000Y-97620000D02*
X165010000Y-97600000D01*
X150680000Y-104330000D02*
X145690000Y-104330000D01*
X165010000Y-97160000D02*
X165020000Y-97150000D01*
D18*
%TO.N,P_ALARMA*%
X181490000Y-53540000D02*
X181750000Y-53800000D01*
X186520000Y-53800000D02*
X197660000Y-53800000D01*
X198250000Y-90570000D02*
X198290000Y-90530000D01*
X179910000Y-51330000D02*
X181490000Y-51330000D01*
X198290000Y-54430000D02*
X198290000Y-57930000D01*
X197660000Y-53800000D02*
X198290000Y-54430000D01*
D22*
X198250000Y-90140000D02*
X198250000Y-90570000D01*
D18*
X198290000Y-90530000D02*
X198290000Y-57540000D01*
D20*
X176035000Y-49450000D02*
X176025000Y-49460000D01*
D18*
X198260000Y-97860000D02*
X198260000Y-100860000D01*
X176025000Y-49460000D02*
X177950000Y-49460000D01*
X181750000Y-53800000D02*
X186520000Y-53800000D01*
X179820000Y-51330000D02*
X179910000Y-51330000D01*
D22*
X198200000Y-90090000D02*
X198250000Y-90140000D01*
D18*
X181490000Y-51330000D02*
X181490000Y-53540000D01*
X177950000Y-49460000D02*
X179820000Y-51330000D01*
%TO.N,P_MODO*%
X176025000Y-62160000D02*
X177280000Y-62160000D01*
D20*
X189450000Y-100770000D02*
X189460000Y-100780000D01*
D18*
X189470000Y-68270000D02*
X188790000Y-67590000D01*
X181490000Y-67400000D02*
X181680000Y-67590000D01*
X189470000Y-90450000D02*
X189470000Y-68270000D01*
X181490000Y-64890000D02*
X181490000Y-67400000D01*
X188790000Y-67590000D02*
X186530000Y-67590000D01*
X177280000Y-62160000D02*
X180010000Y-64890000D01*
X189460000Y-97850000D02*
X189460000Y-100780000D01*
X180010000Y-64890000D02*
X181490000Y-64890000D01*
X181680000Y-67590000D02*
X186530000Y-67590000D01*
D19*
%TO.N,+5V*%
X160160000Y-154600000D02*
X161950000Y-152810000D01*
X162710000Y-114390000D02*
X162750000Y-114430000D01*
D20*
X165000000Y-114390000D02*
X165040000Y-114430000D01*
D19*
X109550000Y-118120000D02*
X111640000Y-120210000D01*
X113030000Y-146684887D02*
X113030000Y-149915298D01*
X165040000Y-109200000D02*
X165040000Y-114430000D01*
D21*
X113800000Y-149865113D02*
X113705113Y-149960000D01*
X109478164Y-114702185D02*
X109760349Y-114420000D01*
D19*
X104760000Y-112810000D02*
X104760000Y-109310000D01*
X165040000Y-123620000D02*
X165040000Y-122520000D01*
X110280000Y-126750000D02*
X108350000Y-126750000D01*
X111665113Y-145320000D02*
X113030000Y-146684887D01*
X109550000Y-114420000D02*
X106370000Y-114420000D01*
X165040000Y-123620000D02*
X165040000Y-136780000D01*
X165040000Y-136780000D02*
X161950000Y-139870000D01*
D20*
X161950000Y-139870000D02*
X161950000Y-139970000D01*
D19*
X167150000Y-123790000D02*
X165210000Y-123790000D01*
X167630000Y-123310000D02*
X167150000Y-123790000D01*
X111640000Y-145294887D02*
X111665113Y-145320000D01*
X111640000Y-128110000D02*
X110280000Y-126750000D01*
X111640000Y-120210000D02*
X111640000Y-128110000D01*
X113030000Y-149915298D02*
X112994662Y-149950636D01*
X113705113Y-149960000D02*
X120600000Y-149960000D01*
X109550000Y-114420000D02*
X109550000Y-118120000D01*
X120630000Y-149990000D02*
X140900000Y-149990000D01*
X161950000Y-152810000D02*
X161950000Y-139970000D01*
X165040000Y-114430000D02*
X165040000Y-122520000D01*
X162750000Y-114430000D02*
X164960000Y-114430000D01*
X140940000Y-154600000D02*
X160160000Y-154600000D01*
X167630000Y-121610000D02*
X167630000Y-123310000D01*
X106370000Y-114420000D02*
X104760000Y-112810000D01*
X111640000Y-128110000D02*
X111640000Y-145294887D01*
D21*
X120600000Y-149960000D02*
X120630000Y-149990000D01*
%TO.N,Net-(D1-A)*%
X109478164Y-104188164D02*
X109550000Y-104260000D01*
D19*
X109478164Y-97521836D02*
X109478164Y-104188164D01*
X112620000Y-96710000D02*
X110290000Y-96710000D01*
X110290000Y-96710000D02*
X109478164Y-97521836D01*
D18*
%TO.N,SDA*%
X158690000Y-95000000D02*
X158690000Y-86320000D01*
X157730000Y-41320000D02*
X157730000Y-37520000D01*
X157730000Y-37520000D02*
X158490000Y-36760000D01*
X157970000Y-106810000D02*
X158120000Y-106660000D01*
X151260000Y-39290000D02*
X147700000Y-39290000D01*
X147700000Y-39290000D02*
X147450000Y-39040000D01*
X159380000Y-99470000D02*
X159380000Y-95690000D01*
X158690000Y-44380000D02*
X158690000Y-86320000D01*
X147450000Y-39040000D02*
X147450000Y-36900000D01*
X157730000Y-41320000D02*
X157730000Y-43420000D01*
X158120000Y-106660000D02*
X165040000Y-106660000D01*
X157730000Y-43420000D02*
X158690000Y-44380000D01*
D23*
X164650000Y-106270000D02*
X165040000Y-106660000D01*
D18*
X147450000Y-36900000D02*
X146717500Y-36167500D01*
D23*
X138465000Y-36167500D02*
X138502500Y-36130000D01*
D18*
X159380000Y-95690000D02*
X158690000Y-95000000D01*
X146717500Y-36167500D02*
X138465000Y-36167500D01*
X158490000Y-36760000D02*
X161025000Y-36760000D01*
%TO.N,SCL*%
X156770000Y-103650000D02*
X157240000Y-104120000D01*
X156770000Y-89650000D02*
X156770000Y-44500000D01*
X155930000Y-37660000D02*
X157170000Y-36420000D01*
X136200000Y-34250000D02*
X151500000Y-34250000D01*
X157170000Y-36420000D02*
X157170000Y-34220000D01*
X135925000Y-36167500D02*
X135925000Y-34525000D01*
X157240000Y-104120000D02*
X165040000Y-104120000D01*
D23*
X161025000Y-34220000D02*
X160855000Y-34050000D01*
D18*
X155930000Y-43660000D02*
X155930000Y-37660000D01*
X157170000Y-34220000D02*
X161025000Y-34220000D01*
X135925000Y-34525000D02*
X136200000Y-34250000D01*
X156770000Y-44500000D02*
X155930000Y-43660000D01*
X156770000Y-89650000D02*
X156770000Y-103650000D01*
D23*
%TO.N,Net-(ESP32-GPIO16)*%
X152360000Y-132210000D02*
X152400000Y-132250000D01*
D18*
X145630000Y-132210000D02*
X152360000Y-132210000D01*
D20*
X152400000Y-132250000D02*
X151230000Y-132250000D01*
D18*
%TO.N,Net-(ESP32-GPIO17)*%
X155430000Y-132300000D02*
X157220000Y-132300000D01*
X149270000Y-129700000D02*
X145660000Y-129700000D01*
X157480000Y-132040000D02*
X157480000Y-129690000D01*
X145660000Y-129700000D02*
X145630000Y-129670000D01*
X157220000Y-132300000D02*
X157480000Y-132040000D01*
X155340000Y-132390000D02*
X155430000Y-132300000D01*
D19*
%TO.N,Net-(HEADER_2X1-Pad1)*%
X104370000Y-32742500D02*
X104370000Y-34810000D01*
X100060000Y-44360000D02*
X101270000Y-45570000D01*
X100060000Y-39120000D02*
X100060000Y-44360000D01*
X104370000Y-34810000D02*
X100060000Y-39120000D01*
X101270000Y-45570000D02*
X103087500Y-45570000D01*
%TO.N,Net-(LM2596-Vin-)*%
X94640000Y-40650000D02*
X94640000Y-57230000D01*
X99370000Y-35920000D02*
X94640000Y-40650000D01*
X99370000Y-32742500D02*
X99370000Y-35920000D01*
D20*
%TO.N,Net-(LM2596-Vin+)*%
X103087500Y-48070000D02*
X103180000Y-48070000D01*
D19*
X103850000Y-50400000D02*
X111800000Y-50400000D01*
X103180000Y-49730000D02*
X103850000Y-50400000D01*
X111800000Y-50400000D02*
X112640000Y-51240000D01*
X112640000Y-51240000D02*
X112640000Y-57230000D01*
X103180000Y-48070000D02*
X103180000Y-49730000D01*
D18*
%TO.N,Rx*%
X155650000Y-116120000D02*
X157090000Y-116120000D01*
X154810000Y-33050000D02*
X154810000Y-115280000D01*
X157090000Y-116120000D02*
X157480000Y-116510000D01*
X157480000Y-116510000D02*
X157480000Y-119530000D01*
X156180000Y-31680000D02*
X154810000Y-33050000D01*
X154810000Y-115280000D02*
X155650000Y-116120000D01*
X161025000Y-31680000D02*
X156180000Y-31680000D01*
D20*
%TO.N,ALARMA*%
X181430000Y-41840000D02*
X181450000Y-41820000D01*
D18*
X176025000Y-41840000D02*
X181430000Y-41840000D01*
%TO.N,Tx*%
X161025000Y-29140000D02*
X154000000Y-29140000D01*
X153350000Y-29790000D02*
X153350000Y-117860000D01*
X154000000Y-29140000D02*
X153350000Y-29790000D01*
X152400000Y-118810000D02*
X152400000Y-122090000D01*
X153350000Y-117860000D02*
X152400000Y-118810000D01*
%TO.N,Net-(Q1-B)*%
X184270000Y-31930000D02*
X184000000Y-31660000D01*
X184270000Y-36090000D02*
X184270000Y-31930000D01*
X186780463Y-36484227D02*
X184664227Y-36484227D01*
X184000000Y-31660000D02*
X181450000Y-31660000D01*
X184664227Y-36484227D02*
X184270000Y-36090000D01*
%TD*%
M02*
