%TF.GenerationSoftware,KiCad,Pcbnew,9.0.7-9.0.7~ubuntu24.04.1*%
%TF.CreationDate,2026-03-16T21:17:30-03:00*%
%TF.ProjectId,bpm,62706d2e-6b69-4636-9164-5f7063625858,rev?*%
%TF.SameCoordinates,Original*%
%TF.FileFunction,Legend,Top*%
%TF.FilePolarity,Positive*%
%FSLAX46Y46*%
G04 Gerber Fmt 4.6, Leading zero omitted, Abs format (unit mm)*
G04 Created by KiCad (PCBNEW 9.0.7-9.0.7~ubuntu24.04.1) date 2026-03-16 21:17:30*
%MOMM*%
%LPD*%
G01*
G04 APERTURE LIST*
%ADD10C,0.200000*%
%ADD11C,0.100000*%
%ADD12C,0.000000*%
%ADD13C,0.125000*%
%ADD14C,0.150000*%
%ADD15C,0.375000*%
%ADD16C,0.120000*%
G04 APERTURE END LIST*
D10*
X129370000Y-34990000D02*
X120650000Y-34990000D01*
D11*
X177830000Y-42700000D02*
X177830000Y-50370000D01*
X159150000Y-42730000D02*
X159150000Y-50400000D01*
D10*
X118690000Y-97420000D02*
X147470000Y-97420000D01*
X147470000Y-156550000D01*
X118690000Y-156550000D01*
X118690000Y-97420000D01*
D11*
X177830000Y-50370000D02*
X177830000Y-58610000D01*
D10*
X120650000Y-34990000D02*
X120650000Y-62640000D01*
D11*
X177830000Y-65860000D02*
X177830000Y-78800000D01*
D10*
X148810000Y-34990000D02*
X140110000Y-34990000D01*
D12*
G36*
X134344350Y-79323039D02*
G01*
X134349168Y-79337233D01*
X134354544Y-79351133D01*
X134366913Y-79378011D01*
X134381341Y-79403592D01*
X134397711Y-79427792D01*
X134415906Y-79450529D01*
X134435809Y-79471721D01*
X134457303Y-79491286D01*
X134480272Y-79509141D01*
X134504598Y-79525203D01*
X134530164Y-79539392D01*
X134556854Y-79551623D01*
X134584550Y-79561815D01*
X134613135Y-79569886D01*
X134642494Y-79575753D01*
X134672507Y-79579333D01*
X134703060Y-79580545D01*
X134713179Y-79580545D01*
X134728924Y-79579915D01*
X134744522Y-79578663D01*
X134759958Y-79576801D01*
X134775217Y-79574341D01*
X134790284Y-79571293D01*
X134805144Y-79567670D01*
X134819783Y-79563482D01*
X134834184Y-79558741D01*
X134848333Y-79553458D01*
X134862216Y-79547644D01*
X134875816Y-79541311D01*
X134889119Y-79534470D01*
X134902110Y-79527132D01*
X134914773Y-79519309D01*
X134927095Y-79511013D01*
X134939059Y-79502253D01*
X134950651Y-79493042D01*
X134961856Y-79483391D01*
X134972659Y-79473312D01*
X134983044Y-79462815D01*
X134992996Y-79451912D01*
X135002502Y-79440614D01*
X135011544Y-79428933D01*
X135020110Y-79416880D01*
X135028183Y-79404467D01*
X135035748Y-79391703D01*
X135042791Y-79378602D01*
X135049296Y-79365174D01*
X135055248Y-79351431D01*
X135060633Y-79337383D01*
X135065435Y-79323043D01*
X135069640Y-79308421D01*
X136433633Y-74871227D01*
X137530000Y-78600000D01*
X137538788Y-78625907D01*
X137549494Y-78650869D01*
X137562031Y-78674810D01*
X137576314Y-78697654D01*
X137592258Y-78719324D01*
X137609776Y-78739747D01*
X137628784Y-78758845D01*
X137649194Y-78776543D01*
X137670923Y-78792765D01*
X137693884Y-78807435D01*
X137717991Y-78820478D01*
X137743159Y-78831818D01*
X137769302Y-78841378D01*
X137796334Y-78849084D01*
X137824170Y-78854860D01*
X137852725Y-78858629D01*
X137868039Y-78859737D01*
X137883194Y-78860324D01*
X137898182Y-78860397D01*
X137912994Y-78859962D01*
X137927624Y-78859025D01*
X137942063Y-78857594D01*
X137956304Y-78855673D01*
X137970338Y-78853270D01*
X137984159Y-78850391D01*
X137997757Y-78847042D01*
X138011125Y-78843230D01*
X138024256Y-78838962D01*
X138037142Y-78834242D01*
X138049774Y-78829079D01*
X138062145Y-78823477D01*
X138074247Y-78817445D01*
X138086073Y-78810987D01*
X138097614Y-78804111D01*
X138108862Y-78796823D01*
X138119811Y-78789129D01*
X138130451Y-78781035D01*
X138140776Y-78772548D01*
X138150777Y-78763675D01*
X138160446Y-78754421D01*
X138169776Y-78744794D01*
X138178759Y-78734799D01*
X138187387Y-78724442D01*
X138195652Y-78713731D01*
X138203546Y-78702672D01*
X138211063Y-78691270D01*
X138218192Y-78679533D01*
X138224928Y-78667467D01*
X139691249Y-75985586D01*
X145993954Y-75985586D01*
X145804901Y-76467726D01*
X145590378Y-76934380D01*
X145352448Y-77385562D01*
X145093176Y-77821282D01*
X144814625Y-78241553D01*
X144518859Y-78646385D01*
X144207943Y-79035791D01*
X143883939Y-79409782D01*
X143548913Y-79768371D01*
X143204927Y-80111568D01*
X142854047Y-80439387D01*
X142498335Y-80751837D01*
X141780674Y-81330682D01*
X141068454Y-81848198D01*
X140378189Y-82304477D01*
X139726389Y-82699615D01*
X139129565Y-83033705D01*
X138604229Y-83306841D01*
X137834066Y-83670625D01*
X137547992Y-83791720D01*
X137260714Y-83670124D01*
X136487186Y-83305576D01*
X135959473Y-83032305D01*
X135359869Y-82698429D01*
X134704934Y-82303993D01*
X134011224Y-81849041D01*
X133295296Y-81333618D01*
X132573709Y-80757767D01*
X131863019Y-80121534D01*
X131179785Y-79424963D01*
X130853638Y-79054065D01*
X130540564Y-78668098D01*
X130242632Y-78267070D01*
X129961913Y-77850985D01*
X129700475Y-77419848D01*
X129460390Y-76973666D01*
X129243725Y-76512444D01*
X129052552Y-76036187D01*
X130806739Y-76036187D01*
X130819731Y-76035819D01*
X130832356Y-76034731D01*
X130844625Y-76032948D01*
X130856548Y-76030495D01*
X130868134Y-76027395D01*
X130879392Y-76023675D01*
X130890334Y-76019359D01*
X130900967Y-76014471D01*
X130911302Y-76009036D01*
X130921349Y-76003079D01*
X130931117Y-75996624D01*
X130940616Y-75989697D01*
X130958845Y-75974523D01*
X130976114Y-75957754D01*
X130992500Y-75939589D01*
X131008080Y-75920225D01*
X131022933Y-75899859D01*
X131037134Y-75878689D01*
X131050763Y-75856913D01*
X131063896Y-75834729D01*
X131088983Y-75789926D01*
X132367516Y-72994471D01*
X134344350Y-79323039D01*
G37*
D11*
X159150000Y-58640000D02*
X159150000Y-65890000D01*
X159150000Y-33780000D02*
X159150000Y-42730000D01*
X159150000Y-27760000D02*
X177830000Y-27760000D01*
X159150000Y-50400000D02*
X159150000Y-58640000D01*
X177830000Y-58610000D02*
X177830000Y-65860000D01*
X177830000Y-27760000D02*
X177830000Y-33750000D01*
D10*
X92820000Y-55400000D02*
X114530000Y-55400000D01*
X114530000Y-98620000D01*
X92820000Y-98620000D01*
X92820000Y-55400000D01*
D12*
G36*
X142191429Y-68014426D02*
G01*
X142421600Y-68031923D01*
X142648428Y-68060738D01*
X142871627Y-68100586D01*
X143090912Y-68151183D01*
X143305999Y-68212244D01*
X143516602Y-68283485D01*
X143722436Y-68364621D01*
X143923217Y-68455369D01*
X144118659Y-68555444D01*
X144308478Y-68664562D01*
X144492388Y-68782438D01*
X144670105Y-68908788D01*
X144841343Y-69043327D01*
X145005818Y-69185772D01*
X145163245Y-69335837D01*
X145313339Y-69493240D01*
X145455814Y-69657694D01*
X145590386Y-69828916D01*
X145716770Y-70006622D01*
X145834681Y-70190527D01*
X145943833Y-70380347D01*
X146043943Y-70575797D01*
X146134725Y-70776594D01*
X146215893Y-70982452D01*
X146287164Y-71193088D01*
X146348252Y-71408217D01*
X146398872Y-71627554D01*
X146438739Y-71850816D01*
X146467568Y-72077718D01*
X146485075Y-72307976D01*
X146490974Y-72541306D01*
X146486287Y-72826912D01*
X146472455Y-73104441D01*
X146449820Y-73375302D01*
X146418726Y-73640906D01*
X146379514Y-73902661D01*
X146332527Y-74161979D01*
X146278109Y-74420269D01*
X146216601Y-74678941D01*
X139462980Y-74678941D01*
X139450041Y-74679335D01*
X139437165Y-74680499D01*
X139424362Y-74682406D01*
X139411642Y-74685029D01*
X139399015Y-74688340D01*
X139386492Y-74692313D01*
X139374081Y-74696920D01*
X139361794Y-74702133D01*
X139349640Y-74707927D01*
X139337630Y-74714273D01*
X139314080Y-74728514D01*
X139291226Y-74744640D01*
X139269147Y-74762433D01*
X139247925Y-74781676D01*
X139227641Y-74802150D01*
X139208374Y-74823639D01*
X139190206Y-74845926D01*
X139173217Y-74868792D01*
X139157488Y-74892020D01*
X139143100Y-74915394D01*
X139130134Y-74938695D01*
X137997782Y-77106691D01*
X136773225Y-72757206D01*
X136768705Y-72742172D01*
X136763587Y-72727440D01*
X136757888Y-72713021D01*
X136751623Y-72698926D01*
X136737458Y-72671756D01*
X136721218Y-72646023D01*
X136703028Y-72621818D01*
X136683012Y-72599234D01*
X136661297Y-72578363D01*
X136638007Y-72559298D01*
X136613267Y-72542129D01*
X136587203Y-72526951D01*
X136559940Y-72513855D01*
X136531603Y-72502933D01*
X136502317Y-72494278D01*
X136472208Y-72487981D01*
X136456883Y-72485746D01*
X136441400Y-72484135D01*
X136425773Y-72483161D01*
X136410019Y-72482833D01*
X136405521Y-72482833D01*
X136389668Y-72483378D01*
X136373955Y-72484583D01*
X136358400Y-72486435D01*
X136343018Y-72488923D01*
X136327824Y-72492035D01*
X136312834Y-72495757D01*
X136298065Y-72500080D01*
X136283532Y-72504989D01*
X136269251Y-72510472D01*
X136255238Y-72516519D01*
X136241509Y-72523116D01*
X136228079Y-72530252D01*
X136214965Y-72537914D01*
X136202182Y-72546090D01*
X136189746Y-72554768D01*
X136177673Y-72563936D01*
X136165979Y-72573581D01*
X136154680Y-72583692D01*
X136143791Y-72594257D01*
X136133329Y-72605263D01*
X136123309Y-72616697D01*
X136113747Y-72628549D01*
X136104659Y-72640806D01*
X136096060Y-72653455D01*
X136087968Y-72666484D01*
X136080397Y-72679882D01*
X136073364Y-72693637D01*
X136066883Y-72707735D01*
X136060972Y-72722165D01*
X136055646Y-72736915D01*
X136050920Y-72751973D01*
X136046812Y-72767325D01*
X134673823Y-77445159D01*
X132821806Y-71248155D01*
X132812609Y-71221047D01*
X132801521Y-71195008D01*
X132788628Y-71170105D01*
X132774015Y-71146407D01*
X132757769Y-71123980D01*
X132739974Y-71102893D01*
X132720716Y-71083212D01*
X132700081Y-71065005D01*
X132678155Y-71048340D01*
X132655023Y-71033285D01*
X132630771Y-71019906D01*
X132605484Y-71008272D01*
X132579249Y-70998449D01*
X132552150Y-70990506D01*
X132524274Y-70984510D01*
X132495707Y-70980529D01*
X132481194Y-70979239D01*
X132466758Y-70978527D01*
X132452411Y-70978385D01*
X132438165Y-70978804D01*
X132424031Y-70979776D01*
X132410020Y-70981292D01*
X132396145Y-70983344D01*
X132382415Y-70985923D01*
X132368845Y-70989020D01*
X132355443Y-70992628D01*
X132342223Y-70996739D01*
X132329196Y-71001342D01*
X132316373Y-71006431D01*
X132303766Y-71011997D01*
X132291386Y-71018030D01*
X132279245Y-71024524D01*
X132267354Y-71031469D01*
X132255725Y-71038856D01*
X132244369Y-71046678D01*
X132233299Y-71054926D01*
X132222525Y-71063592D01*
X132212059Y-71072667D01*
X132201913Y-71082142D01*
X132192097Y-71092010D01*
X132182625Y-71102262D01*
X132173506Y-71112888D01*
X132164753Y-71123882D01*
X132156378Y-71135234D01*
X132148391Y-71146937D01*
X132140804Y-71158980D01*
X132133629Y-71171357D01*
X132126878Y-71184059D01*
X130524495Y-74678941D01*
X128773681Y-74678941D01*
X128712173Y-74425434D01*
X128657754Y-74172521D01*
X128610768Y-73918790D01*
X128571556Y-73662833D01*
X128540461Y-73403239D01*
X128517827Y-73138597D01*
X128503995Y-72867499D01*
X128499308Y-72588534D01*
X128505266Y-72352893D01*
X128522947Y-72120339D01*
X128552065Y-71891163D01*
X128592332Y-71665650D01*
X128643461Y-71444091D01*
X128705163Y-71226771D01*
X128777153Y-71013980D01*
X128859141Y-70806006D01*
X128950842Y-70603136D01*
X129051966Y-70405659D01*
X129162228Y-70213863D01*
X129281339Y-70028035D01*
X129409013Y-69848465D01*
X129544960Y-69675439D01*
X129688896Y-69509246D01*
X129840530Y-69350174D01*
X129999578Y-69198512D01*
X130165750Y-69054546D01*
X130338759Y-68918565D01*
X130518319Y-68790858D01*
X130704141Y-68671712D01*
X130895939Y-68561415D01*
X131093424Y-68460256D01*
X131296309Y-68368522D01*
X131504308Y-68286501D01*
X131717131Y-68214482D01*
X131934493Y-68152753D01*
X132156105Y-68101601D01*
X132381681Y-68061315D01*
X132610932Y-68032182D01*
X132843571Y-68014491D01*
X133079311Y-68008530D01*
X133281902Y-68012934D01*
X133482210Y-68026023D01*
X133680056Y-68047615D01*
X133875260Y-68077525D01*
X134067642Y-68115573D01*
X134257021Y-68161573D01*
X134443217Y-68215343D01*
X134626050Y-68276701D01*
X134805340Y-68345463D01*
X134980907Y-68421446D01*
X135152570Y-68504466D01*
X135320150Y-68594342D01*
X135483466Y-68690890D01*
X135642338Y-68793926D01*
X135796587Y-68903269D01*
X135946030Y-69018734D01*
X136090490Y-69140139D01*
X136229785Y-69267301D01*
X136363735Y-69400036D01*
X136492160Y-69538162D01*
X136614881Y-69681496D01*
X136731716Y-69829854D01*
X136842486Y-69983053D01*
X136947010Y-70140911D01*
X137045108Y-70303245D01*
X137136601Y-70469871D01*
X137221308Y-70640606D01*
X137299048Y-70815267D01*
X137369643Y-70993672D01*
X137432910Y-71175637D01*
X137488672Y-71360979D01*
X137536746Y-71549515D01*
X137583163Y-71361176D01*
X137637324Y-71176007D01*
X137699046Y-70994191D01*
X137768147Y-70815913D01*
X137844445Y-70641356D01*
X137927757Y-70470706D01*
X138114693Y-70141860D01*
X138327497Y-69830850D01*
X138564709Y-69539151D01*
X138824869Y-69268235D01*
X139106519Y-69019578D01*
X139408198Y-68794653D01*
X139728448Y-68594935D01*
X139895081Y-68504990D01*
X140065809Y-68421899D01*
X140240450Y-68345846D01*
X140418821Y-68277017D01*
X140600741Y-68215596D01*
X140786026Y-68161766D01*
X140974494Y-68115712D01*
X141165963Y-68077618D01*
X141360251Y-68047668D01*
X141557174Y-68026048D01*
X141756551Y-68012940D01*
X141958199Y-68008530D01*
X142191429Y-68014426D01*
G37*
G36*
X182497397Y-122509732D02*
G01*
X182508909Y-122700736D01*
X182554259Y-123076415D01*
X182628386Y-123442665D01*
X182730098Y-123798300D01*
X182858201Y-124142134D01*
X183011505Y-124472981D01*
X183188816Y-124789655D01*
X183388943Y-125090971D01*
X183610694Y-125375742D01*
X183852875Y-125642782D01*
X184114296Y-125890906D01*
X184393764Y-126118927D01*
X184690087Y-126325659D01*
X185002072Y-126509917D01*
X185328528Y-126670514D01*
X185668262Y-126806265D01*
X185668262Y-122316815D01*
X188840087Y-122316815D01*
X188840087Y-126806265D01*
X189011804Y-126741546D01*
X189180333Y-126670470D01*
X189345527Y-126593186D01*
X189507237Y-126509841D01*
X189665315Y-126420583D01*
X189819611Y-126325561D01*
X189969978Y-126224922D01*
X190116267Y-126118815D01*
X190258330Y-126007388D01*
X190396017Y-125890788D01*
X190529182Y-125769165D01*
X190657674Y-125642666D01*
X190781345Y-125511439D01*
X190900048Y-125375632D01*
X191013633Y-125235393D01*
X191121953Y-125090872D01*
X191224858Y-124942214D01*
X191322200Y-124789570D01*
X191413831Y-124633086D01*
X191499602Y-124472911D01*
X191579364Y-124309193D01*
X191652970Y-124142080D01*
X191720270Y-123971721D01*
X191781117Y-123798262D01*
X191835361Y-123621853D01*
X191882854Y-123442642D01*
X191923448Y-123260776D01*
X191956995Y-123076404D01*
X191983345Y-122889674D01*
X192002350Y-122700734D01*
X192013862Y-122509731D01*
X192017733Y-122316815D01*
X195204110Y-122316815D01*
X195196136Y-122674631D01*
X195172439Y-123028467D01*
X195133361Y-123377983D01*
X195079243Y-123722840D01*
X195010424Y-124062696D01*
X194927245Y-124397213D01*
X194830047Y-124726051D01*
X194719170Y-125048869D01*
X194594956Y-125365328D01*
X194457744Y-125675088D01*
X194307876Y-125977808D01*
X194145691Y-126273150D01*
X193971531Y-126560773D01*
X193785736Y-126840337D01*
X193380602Y-127373928D01*
X192933015Y-127871206D01*
X192445700Y-128329450D01*
X191921381Y-128745942D01*
X191362782Y-129117962D01*
X191071479Y-129286446D01*
X190772629Y-129442792D01*
X190466571Y-129586660D01*
X190153646Y-129717711D01*
X189834194Y-129835604D01*
X189508557Y-129940001D01*
X189177075Y-130030560D01*
X188840088Y-130106942D01*
X188840088Y-130250346D01*
X195186648Y-130250346D01*
X195186648Y-133422171D01*
X188840088Y-133422171D01*
X188840088Y-133563193D01*
X189177886Y-133639320D01*
X189510163Y-133729659D01*
X189836578Y-133833870D01*
X190156790Y-133951612D01*
X190470457Y-134082544D01*
X190777239Y-134226326D01*
X191076794Y-134382617D01*
X191368781Y-134551077D01*
X191652859Y-134731366D01*
X191928687Y-134923142D01*
X192195923Y-135126066D01*
X192454226Y-135339797D01*
X192703255Y-135563993D01*
X192942668Y-135798316D01*
X193172125Y-136042423D01*
X193391285Y-136295975D01*
X193599806Y-136558632D01*
X193797346Y-136830052D01*
X193983565Y-137109894D01*
X194158122Y-137397820D01*
X194320675Y-137693487D01*
X194470883Y-137996556D01*
X194608405Y-138306686D01*
X194732900Y-138623536D01*
X194844026Y-138946765D01*
X194941442Y-139276035D01*
X195024807Y-139611003D01*
X195093780Y-139951329D01*
X195148020Y-140296673D01*
X195187185Y-140646694D01*
X195210934Y-141001051D01*
X195218927Y-141359405D01*
X192032285Y-141359405D01*
X192028389Y-141165896D01*
X192016803Y-140974308D01*
X191971161Y-140597492D01*
X191896562Y-140230159D01*
X191794214Y-139873509D01*
X191665319Y-139528742D01*
X191511084Y-139197058D01*
X191332713Y-138879658D01*
X191131412Y-138577741D01*
X190908384Y-138292509D01*
X190664836Y-138025162D01*
X190401972Y-137776899D01*
X190120997Y-137548921D01*
X189823116Y-137342429D01*
X189509534Y-137158623D01*
X189181456Y-136998703D01*
X188840088Y-136863869D01*
X188840088Y-141359405D01*
X185668263Y-141359405D01*
X185668263Y-136872337D01*
X185497364Y-136937600D01*
X185329651Y-137009169D01*
X185165271Y-137086896D01*
X185004369Y-137170634D01*
X184847094Y-137260237D01*
X184693592Y-137355558D01*
X184544010Y-137456449D01*
X184398494Y-137562764D01*
X184257193Y-137674356D01*
X184120251Y-137791078D01*
X183987818Y-137912782D01*
X183860038Y-138039323D01*
X183737060Y-138170552D01*
X183619030Y-138306324D01*
X183506095Y-138446491D01*
X183398402Y-138590906D01*
X183296098Y-138739423D01*
X183199330Y-138891893D01*
X183108244Y-139048172D01*
X183022987Y-139208110D01*
X182943707Y-139371562D01*
X182870551Y-139538381D01*
X182803664Y-139708420D01*
X182743195Y-139881531D01*
X182689289Y-140057568D01*
X182642094Y-140236384D01*
X182601757Y-140417831D01*
X182568425Y-140601764D01*
X182542244Y-140788035D01*
X182523362Y-140976496D01*
X182511924Y-141167002D01*
X182508079Y-141359405D01*
X179321967Y-141359405D01*
X179329915Y-141002125D01*
X179353535Y-140648806D01*
X179392486Y-140299786D01*
X179446431Y-139955404D01*
X179515031Y-139615999D01*
X179597946Y-139281909D01*
X179694838Y-138953475D01*
X179805369Y-138631034D01*
X179929198Y-138314926D01*
X180065988Y-138005490D01*
X180215399Y-137703063D01*
X180377093Y-137407986D01*
X180550731Y-137120597D01*
X180735973Y-136841235D01*
X181139919Y-136307947D01*
X181586218Y-135810834D01*
X182072160Y-135352607D01*
X182595035Y-134935976D01*
X183152133Y-134563653D01*
X183442667Y-134394954D01*
X183740741Y-134238348D01*
X184046015Y-134094176D01*
X184358150Y-133962774D01*
X184676807Y-133844483D01*
X185001649Y-133739641D01*
X185332335Y-133648587D01*
X185668527Y-133571660D01*
X185668527Y-133422170D01*
X179321967Y-133422170D01*
X179321967Y-130250345D01*
X185668527Y-130250345D01*
X185668527Y-130106941D01*
X185331501Y-130030559D01*
X185000000Y-129940000D01*
X184674363Y-129835604D01*
X184354930Y-129717710D01*
X184042041Y-129586660D01*
X183736033Y-129442791D01*
X183437247Y-129286446D01*
X183146022Y-129117962D01*
X182862698Y-128937681D01*
X182587613Y-128745942D01*
X182321107Y-128543085D01*
X182063519Y-128329450D01*
X181815189Y-128105377D01*
X181576455Y-127871206D01*
X181347658Y-127627276D01*
X181129137Y-127373928D01*
X180921230Y-127111502D01*
X180724278Y-126840337D01*
X180538619Y-126560773D01*
X180364592Y-126273150D01*
X180202538Y-125977808D01*
X180052796Y-125675088D01*
X179915704Y-125365328D01*
X179791602Y-125048869D01*
X179680830Y-124726051D01*
X179583726Y-124397213D01*
X179500631Y-124062696D01*
X179431882Y-123722840D01*
X179377821Y-123377983D01*
X179338786Y-123028467D01*
X179315115Y-122674631D01*
X179307150Y-122316815D01*
X182493527Y-122316815D01*
X182497397Y-122509732D01*
G37*
D11*
X159150000Y-65890000D02*
X159150000Y-78830000D01*
X159150000Y-27790000D02*
X159150000Y-33780000D01*
D10*
X148810000Y-62640000D02*
X148810000Y-34990000D01*
D11*
X162840000Y-99475000D02*
X177220000Y-99475000D01*
X177220000Y-111385000D01*
X162840000Y-111385000D01*
X162840000Y-99475000D01*
X177830000Y-33750000D02*
X177830000Y-42700000D01*
D10*
X120650000Y-62640000D02*
X148810000Y-62640000D01*
D13*
X93888426Y-54195595D02*
X94155093Y-54995595D01*
X94155093Y-54995595D02*
X94421759Y-54195595D01*
X94688426Y-54995595D02*
X94688426Y-54195595D01*
X95069378Y-54995595D02*
X95069378Y-54195595D01*
X95069378Y-54195595D02*
X95526521Y-54995595D01*
X95526521Y-54995595D02*
X95526521Y-54195595D01*
X95907473Y-54690833D02*
X96516997Y-54690833D01*
D14*
X160984819Y-114809047D02*
X160984819Y-115380475D01*
X160984819Y-115094761D02*
X159984819Y-115094761D01*
X159984819Y-115094761D02*
X160127676Y-115189999D01*
X160127676Y-115189999D02*
X160222914Y-115285237D01*
X160222914Y-115285237D02*
X160270533Y-115380475D01*
X159984819Y-114189999D02*
X159984819Y-114094761D01*
X159984819Y-114094761D02*
X160032438Y-113999523D01*
X160032438Y-113999523D02*
X160080057Y-113951904D01*
X160080057Y-113951904D02*
X160175295Y-113904285D01*
X160175295Y-113904285D02*
X160365771Y-113856666D01*
X160365771Y-113856666D02*
X160603866Y-113856666D01*
X160603866Y-113856666D02*
X160794342Y-113904285D01*
X160794342Y-113904285D02*
X160889580Y-113951904D01*
X160889580Y-113951904D02*
X160937200Y-113999523D01*
X160937200Y-113999523D02*
X160984819Y-114094761D01*
X160984819Y-114094761D02*
X160984819Y-114189999D01*
X160984819Y-114189999D02*
X160937200Y-114285237D01*
X160937200Y-114285237D02*
X160889580Y-114332856D01*
X160889580Y-114332856D02*
X160794342Y-114380475D01*
X160794342Y-114380475D02*
X160603866Y-114428094D01*
X160603866Y-114428094D02*
X160365771Y-114428094D01*
X160365771Y-114428094D02*
X160175295Y-114380475D01*
X160175295Y-114380475D02*
X160080057Y-114332856D01*
X160080057Y-114332856D02*
X160032438Y-114285237D01*
X160032438Y-114285237D02*
X159984819Y-114189999D01*
X159984819Y-113237618D02*
X159984819Y-113142380D01*
X159984819Y-113142380D02*
X160032438Y-113047142D01*
X160032438Y-113047142D02*
X160080057Y-112999523D01*
X160080057Y-112999523D02*
X160175295Y-112951904D01*
X160175295Y-112951904D02*
X160365771Y-112904285D01*
X160365771Y-112904285D02*
X160603866Y-112904285D01*
X160603866Y-112904285D02*
X160794342Y-112951904D01*
X160794342Y-112951904D02*
X160889580Y-112999523D01*
X160889580Y-112999523D02*
X160937200Y-113047142D01*
X160937200Y-113047142D02*
X160984819Y-113142380D01*
X160984819Y-113142380D02*
X160984819Y-113237618D01*
X160984819Y-113237618D02*
X160937200Y-113332856D01*
X160937200Y-113332856D02*
X160889580Y-113380475D01*
X160889580Y-113380475D02*
X160794342Y-113428094D01*
X160794342Y-113428094D02*
X160603866Y-113475713D01*
X160603866Y-113475713D02*
X160365771Y-113475713D01*
X160365771Y-113475713D02*
X160175295Y-113428094D01*
X160175295Y-113428094D02*
X160080057Y-113380475D01*
X160080057Y-113380475D02*
X160032438Y-113332856D01*
X160032438Y-113332856D02*
X159984819Y-113237618D01*
X160318152Y-112475713D02*
X160984819Y-112475713D01*
X160413390Y-112475713D02*
X160365771Y-112428094D01*
X160365771Y-112428094D02*
X160318152Y-112332856D01*
X160318152Y-112332856D02*
X160318152Y-112189999D01*
X160318152Y-112189999D02*
X160365771Y-112094761D01*
X160365771Y-112094761D02*
X160461009Y-112047142D01*
X160461009Y-112047142D02*
X160984819Y-112047142D01*
D15*
X120312424Y-86975500D02*
X120526710Y-87046928D01*
X120526710Y-87046928D02*
X120883852Y-87046928D01*
X120883852Y-87046928D02*
X121026710Y-86975500D01*
X121026710Y-86975500D02*
X121098138Y-86904071D01*
X121098138Y-86904071D02*
X121169567Y-86761214D01*
X121169567Y-86761214D02*
X121169567Y-86618357D01*
X121169567Y-86618357D02*
X121098138Y-86475500D01*
X121098138Y-86475500D02*
X121026710Y-86404071D01*
X121026710Y-86404071D02*
X120883852Y-86332642D01*
X120883852Y-86332642D02*
X120598138Y-86261214D01*
X120598138Y-86261214D02*
X120455281Y-86189785D01*
X120455281Y-86189785D02*
X120383852Y-86118357D01*
X120383852Y-86118357D02*
X120312424Y-85975500D01*
X120312424Y-85975500D02*
X120312424Y-85832642D01*
X120312424Y-85832642D02*
X120383852Y-85689785D01*
X120383852Y-85689785D02*
X120455281Y-85618357D01*
X120455281Y-85618357D02*
X120598138Y-85546928D01*
X120598138Y-85546928D02*
X120955281Y-85546928D01*
X120955281Y-85546928D02*
X121169567Y-85618357D01*
X121812423Y-87046928D02*
X121812423Y-85546928D01*
X123312424Y-85618357D02*
X123169567Y-85546928D01*
X123169567Y-85546928D02*
X122955281Y-85546928D01*
X122955281Y-85546928D02*
X122740995Y-85618357D01*
X122740995Y-85618357D02*
X122598138Y-85761214D01*
X122598138Y-85761214D02*
X122526709Y-85904071D01*
X122526709Y-85904071D02*
X122455281Y-86189785D01*
X122455281Y-86189785D02*
X122455281Y-86404071D01*
X122455281Y-86404071D02*
X122526709Y-86689785D01*
X122526709Y-86689785D02*
X122598138Y-86832642D01*
X122598138Y-86832642D02*
X122740995Y-86975500D01*
X122740995Y-86975500D02*
X122955281Y-87046928D01*
X122955281Y-87046928D02*
X123098138Y-87046928D01*
X123098138Y-87046928D02*
X123312424Y-86975500D01*
X123312424Y-86975500D02*
X123383852Y-86904071D01*
X123383852Y-86904071D02*
X123383852Y-86404071D01*
X123383852Y-86404071D02*
X123098138Y-86404071D01*
X124026709Y-87046928D02*
X124026709Y-85546928D01*
X124026709Y-85546928D02*
X124883852Y-87046928D01*
X124883852Y-87046928D02*
X124883852Y-85546928D01*
X125883853Y-85546928D02*
X126169567Y-85546928D01*
X126169567Y-85546928D02*
X126312424Y-85618357D01*
X126312424Y-85618357D02*
X126455281Y-85761214D01*
X126455281Y-85761214D02*
X126526710Y-86046928D01*
X126526710Y-86046928D02*
X126526710Y-86546928D01*
X126526710Y-86546928D02*
X126455281Y-86832642D01*
X126455281Y-86832642D02*
X126312424Y-86975500D01*
X126312424Y-86975500D02*
X126169567Y-87046928D01*
X126169567Y-87046928D02*
X125883853Y-87046928D01*
X125883853Y-87046928D02*
X125740996Y-86975500D01*
X125740996Y-86975500D02*
X125598138Y-86832642D01*
X125598138Y-86832642D02*
X125526710Y-86546928D01*
X125526710Y-86546928D02*
X125526710Y-86046928D01*
X125526710Y-86046928D02*
X125598138Y-85761214D01*
X125598138Y-85761214D02*
X125740996Y-85618357D01*
X125740996Y-85618357D02*
X125883853Y-85546928D01*
X127098139Y-86975500D02*
X127312425Y-87046928D01*
X127312425Y-87046928D02*
X127669567Y-87046928D01*
X127669567Y-87046928D02*
X127812425Y-86975500D01*
X127812425Y-86975500D02*
X127883853Y-86904071D01*
X127883853Y-86904071D02*
X127955282Y-86761214D01*
X127955282Y-86761214D02*
X127955282Y-86618357D01*
X127955282Y-86618357D02*
X127883853Y-86475500D01*
X127883853Y-86475500D02*
X127812425Y-86404071D01*
X127812425Y-86404071D02*
X127669567Y-86332642D01*
X127669567Y-86332642D02*
X127383853Y-86261214D01*
X127383853Y-86261214D02*
X127240996Y-86189785D01*
X127240996Y-86189785D02*
X127169567Y-86118357D01*
X127169567Y-86118357D02*
X127098139Y-85975500D01*
X127098139Y-85975500D02*
X127098139Y-85832642D01*
X127098139Y-85832642D02*
X127169567Y-85689785D01*
X127169567Y-85689785D02*
X127240996Y-85618357D01*
X127240996Y-85618357D02*
X127383853Y-85546928D01*
X127383853Y-85546928D02*
X127740996Y-85546928D01*
X127740996Y-85546928D02*
X127955282Y-85618357D01*
X129526710Y-85546928D02*
X130026710Y-87046928D01*
X130026710Y-87046928D02*
X130526710Y-85546928D01*
X131026709Y-87046928D02*
X131026709Y-85546928D01*
X131526710Y-85546928D02*
X132383853Y-85546928D01*
X131955281Y-87046928D02*
X131955281Y-85546928D01*
X132812424Y-86618357D02*
X133526710Y-86618357D01*
X132669567Y-87046928D02*
X133169567Y-85546928D01*
X133169567Y-85546928D02*
X133669567Y-87046928D01*
X134883852Y-87046928D02*
X134169566Y-87046928D01*
X134169566Y-87046928D02*
X134169566Y-85546928D01*
X135383852Y-86261214D02*
X135883852Y-86261214D01*
X136098138Y-87046928D02*
X135383852Y-87046928D01*
X135383852Y-87046928D02*
X135383852Y-85546928D01*
X135383852Y-85546928D02*
X136098138Y-85546928D01*
X136669567Y-86975500D02*
X136883853Y-87046928D01*
X136883853Y-87046928D02*
X137240995Y-87046928D01*
X137240995Y-87046928D02*
X137383853Y-86975500D01*
X137383853Y-86975500D02*
X137455281Y-86904071D01*
X137455281Y-86904071D02*
X137526710Y-86761214D01*
X137526710Y-86761214D02*
X137526710Y-86618357D01*
X137526710Y-86618357D02*
X137455281Y-86475500D01*
X137455281Y-86475500D02*
X137383853Y-86404071D01*
X137383853Y-86404071D02*
X137240995Y-86332642D01*
X137240995Y-86332642D02*
X136955281Y-86261214D01*
X136955281Y-86261214D02*
X136812424Y-86189785D01*
X136812424Y-86189785D02*
X136740995Y-86118357D01*
X136740995Y-86118357D02*
X136669567Y-85975500D01*
X136669567Y-85975500D02*
X136669567Y-85832642D01*
X136669567Y-85832642D02*
X136740995Y-85689785D01*
X136740995Y-85689785D02*
X136812424Y-85618357D01*
X136812424Y-85618357D02*
X136955281Y-85546928D01*
X136955281Y-85546928D02*
X137312424Y-85546928D01*
X137312424Y-85546928D02*
X137526710Y-85618357D01*
X120933852Y-75975500D02*
X122076710Y-75975500D01*
X121505281Y-76546928D02*
X121505281Y-75404071D01*
X122648138Y-75046928D02*
X123576710Y-75046928D01*
X123576710Y-75046928D02*
X123076710Y-75618357D01*
X123076710Y-75618357D02*
X123290995Y-75618357D01*
X123290995Y-75618357D02*
X123433853Y-75689785D01*
X123433853Y-75689785D02*
X123505281Y-75761214D01*
X123505281Y-75761214D02*
X123576710Y-75904071D01*
X123576710Y-75904071D02*
X123576710Y-76261214D01*
X123576710Y-76261214D02*
X123505281Y-76404071D01*
X123505281Y-76404071D02*
X123433853Y-76475500D01*
X123433853Y-76475500D02*
X123290995Y-76546928D01*
X123290995Y-76546928D02*
X122862424Y-76546928D01*
X122862424Y-76546928D02*
X122719567Y-76475500D01*
X122719567Y-76475500D02*
X122648138Y-76404071D01*
X124005281Y-75046928D02*
X124505281Y-76546928D01*
X124505281Y-76546928D02*
X125005281Y-75046928D01*
X125362423Y-75046928D02*
X126290995Y-75046928D01*
X126290995Y-75046928D02*
X125790995Y-75618357D01*
X125790995Y-75618357D02*
X126005280Y-75618357D01*
X126005280Y-75618357D02*
X126148138Y-75689785D01*
X126148138Y-75689785D02*
X126219566Y-75761214D01*
X126219566Y-75761214D02*
X126290995Y-75904071D01*
X126290995Y-75904071D02*
X126290995Y-76261214D01*
X126290995Y-76261214D02*
X126219566Y-76404071D01*
X126219566Y-76404071D02*
X126148138Y-76475500D01*
X126148138Y-76475500D02*
X126005280Y-76546928D01*
X126005280Y-76546928D02*
X125576709Y-76546928D01*
X125576709Y-76546928D02*
X125433852Y-76475500D01*
X125433852Y-76475500D02*
X125362423Y-76404071D01*
D14*
X150068152Y-125291904D02*
X150734819Y-125291904D01*
X149687200Y-125529999D02*
X150401485Y-125768094D01*
X150401485Y-125768094D02*
X150401485Y-125149047D01*
X149734819Y-124863332D02*
X149734819Y-124196666D01*
X149734819Y-124196666D02*
X150734819Y-124625237D01*
X149734819Y-123625237D02*
X149734819Y-123529999D01*
X149734819Y-123529999D02*
X149782438Y-123434761D01*
X149782438Y-123434761D02*
X149830057Y-123387142D01*
X149830057Y-123387142D02*
X149925295Y-123339523D01*
X149925295Y-123339523D02*
X150115771Y-123291904D01*
X150115771Y-123291904D02*
X150353866Y-123291904D01*
X150353866Y-123291904D02*
X150544342Y-123339523D01*
X150544342Y-123339523D02*
X150639580Y-123387142D01*
X150639580Y-123387142D02*
X150687200Y-123434761D01*
X150687200Y-123434761D02*
X150734819Y-123529999D01*
X150734819Y-123529999D02*
X150734819Y-123625237D01*
X150734819Y-123625237D02*
X150687200Y-123720475D01*
X150687200Y-123720475D02*
X150639580Y-123768094D01*
X150639580Y-123768094D02*
X150544342Y-123815713D01*
X150544342Y-123815713D02*
X150353866Y-123863332D01*
X150353866Y-123863332D02*
X150115771Y-123863332D01*
X150115771Y-123863332D02*
X149925295Y-123815713D01*
X149925295Y-123815713D02*
X149830057Y-123768094D01*
X149830057Y-123768094D02*
X149782438Y-123720475D01*
X149782438Y-123720475D02*
X149734819Y-123625237D01*
D15*
X193853852Y-114475500D02*
X194996710Y-114475500D01*
X194425281Y-115046928D02*
X194425281Y-113904071D01*
X195568138Y-113546928D02*
X196496710Y-113546928D01*
X196496710Y-113546928D02*
X195996710Y-114118357D01*
X195996710Y-114118357D02*
X196210995Y-114118357D01*
X196210995Y-114118357D02*
X196353853Y-114189785D01*
X196353853Y-114189785D02*
X196425281Y-114261214D01*
X196425281Y-114261214D02*
X196496710Y-114404071D01*
X196496710Y-114404071D02*
X196496710Y-114761214D01*
X196496710Y-114761214D02*
X196425281Y-114904071D01*
X196425281Y-114904071D02*
X196353853Y-114975500D01*
X196353853Y-114975500D02*
X196210995Y-115046928D01*
X196210995Y-115046928D02*
X195782424Y-115046928D01*
X195782424Y-115046928D02*
X195639567Y-114975500D01*
X195639567Y-114975500D02*
X195568138Y-114904071D01*
X196925281Y-113546928D02*
X197425281Y-115046928D01*
X197425281Y-115046928D02*
X197925281Y-113546928D01*
X198282423Y-113546928D02*
X199210995Y-113546928D01*
X199210995Y-113546928D02*
X198710995Y-114118357D01*
X198710995Y-114118357D02*
X198925280Y-114118357D01*
X198925280Y-114118357D02*
X199068138Y-114189785D01*
X199068138Y-114189785D02*
X199139566Y-114261214D01*
X199139566Y-114261214D02*
X199210995Y-114404071D01*
X199210995Y-114404071D02*
X199210995Y-114761214D01*
X199210995Y-114761214D02*
X199139566Y-114904071D01*
X199139566Y-114904071D02*
X199068138Y-114975500D01*
X199068138Y-114975500D02*
X198925280Y-115046928D01*
X198925280Y-115046928D02*
X198496709Y-115046928D01*
X198496709Y-115046928D02*
X198353852Y-114975500D01*
X198353852Y-114975500D02*
X198282423Y-114904071D01*
D13*
X160871759Y-101163690D02*
X160795569Y-101125595D01*
X160795569Y-101125595D02*
X160681283Y-101125595D01*
X160681283Y-101125595D02*
X160566997Y-101163690D01*
X160566997Y-101163690D02*
X160490807Y-101239880D01*
X160490807Y-101239880D02*
X160452712Y-101316071D01*
X160452712Y-101316071D02*
X160414616Y-101468452D01*
X160414616Y-101468452D02*
X160414616Y-101582738D01*
X160414616Y-101582738D02*
X160452712Y-101735119D01*
X160452712Y-101735119D02*
X160490807Y-101811309D01*
X160490807Y-101811309D02*
X160566997Y-101887500D01*
X160566997Y-101887500D02*
X160681283Y-101925595D01*
X160681283Y-101925595D02*
X160757474Y-101925595D01*
X160757474Y-101925595D02*
X160871759Y-101887500D01*
X160871759Y-101887500D02*
X160909855Y-101849404D01*
X160909855Y-101849404D02*
X160909855Y-101582738D01*
X160909855Y-101582738D02*
X160757474Y-101582738D01*
X161252712Y-101925595D02*
X161252712Y-101125595D01*
X161252712Y-101125595D02*
X161709855Y-101925595D01*
X161709855Y-101925595D02*
X161709855Y-101125595D01*
X162090807Y-101925595D02*
X162090807Y-101125595D01*
X162090807Y-101125595D02*
X162281283Y-101125595D01*
X162281283Y-101125595D02*
X162395569Y-101163690D01*
X162395569Y-101163690D02*
X162471759Y-101239880D01*
X162471759Y-101239880D02*
X162509854Y-101316071D01*
X162509854Y-101316071D02*
X162547950Y-101468452D01*
X162547950Y-101468452D02*
X162547950Y-101582738D01*
X162547950Y-101582738D02*
X162509854Y-101735119D01*
X162509854Y-101735119D02*
X162471759Y-101811309D01*
X162471759Y-101811309D02*
X162395569Y-101887500D01*
X162395569Y-101887500D02*
X162281283Y-101925595D01*
X162281283Y-101925595D02*
X162090807Y-101925595D01*
D15*
X178303071Y-71628138D02*
X178303071Y-70913852D01*
X178303071Y-70913852D02*
X179803071Y-70913852D01*
X178303071Y-72128138D02*
X179803071Y-72128138D01*
X179803071Y-72128138D02*
X179803071Y-72699567D01*
X179803071Y-72699567D02*
X179731642Y-72842424D01*
X179731642Y-72842424D02*
X179660214Y-72913853D01*
X179660214Y-72913853D02*
X179517357Y-72985281D01*
X179517357Y-72985281D02*
X179303071Y-72985281D01*
X179303071Y-72985281D02*
X179160214Y-72913853D01*
X179160214Y-72913853D02*
X179088785Y-72842424D01*
X179088785Y-72842424D02*
X179017357Y-72699567D01*
X179017357Y-72699567D02*
X179017357Y-72128138D01*
X178445928Y-74485281D02*
X178374500Y-74413853D01*
X178374500Y-74413853D02*
X178303071Y-74199567D01*
X178303071Y-74199567D02*
X178303071Y-74056710D01*
X178303071Y-74056710D02*
X178374500Y-73842424D01*
X178374500Y-73842424D02*
X178517357Y-73699567D01*
X178517357Y-73699567D02*
X178660214Y-73628138D01*
X178660214Y-73628138D02*
X178945928Y-73556710D01*
X178945928Y-73556710D02*
X179160214Y-73556710D01*
X179160214Y-73556710D02*
X179445928Y-73628138D01*
X179445928Y-73628138D02*
X179588785Y-73699567D01*
X179588785Y-73699567D02*
X179731642Y-73842424D01*
X179731642Y-73842424D02*
X179803071Y-74056710D01*
X179803071Y-74056710D02*
X179803071Y-74199567D01*
X179803071Y-74199567D02*
X179731642Y-74413853D01*
X179731642Y-74413853D02*
X179660214Y-74485281D01*
X179160214Y-75342424D02*
X179231642Y-75199567D01*
X179231642Y-75199567D02*
X179303071Y-75128138D01*
X179303071Y-75128138D02*
X179445928Y-75056710D01*
X179445928Y-75056710D02*
X179517357Y-75056710D01*
X179517357Y-75056710D02*
X179660214Y-75128138D01*
X179660214Y-75128138D02*
X179731642Y-75199567D01*
X179731642Y-75199567D02*
X179803071Y-75342424D01*
X179803071Y-75342424D02*
X179803071Y-75628138D01*
X179803071Y-75628138D02*
X179731642Y-75770996D01*
X179731642Y-75770996D02*
X179660214Y-75842424D01*
X179660214Y-75842424D02*
X179517357Y-75913853D01*
X179517357Y-75913853D02*
X179445928Y-75913853D01*
X179445928Y-75913853D02*
X179303071Y-75842424D01*
X179303071Y-75842424D02*
X179231642Y-75770996D01*
X179231642Y-75770996D02*
X179160214Y-75628138D01*
X179160214Y-75628138D02*
X179160214Y-75342424D01*
X179160214Y-75342424D02*
X179088785Y-75199567D01*
X179088785Y-75199567D02*
X179017357Y-75128138D01*
X179017357Y-75128138D02*
X178874500Y-75056710D01*
X178874500Y-75056710D02*
X178588785Y-75056710D01*
X178588785Y-75056710D02*
X178445928Y-75128138D01*
X178445928Y-75128138D02*
X178374500Y-75199567D01*
X178374500Y-75199567D02*
X178303071Y-75342424D01*
X178303071Y-75342424D02*
X178303071Y-75628138D01*
X178303071Y-75628138D02*
X178374500Y-75770996D01*
X178374500Y-75770996D02*
X178445928Y-75842424D01*
X178445928Y-75842424D02*
X178588785Y-75913853D01*
X178588785Y-75913853D02*
X178874500Y-75913853D01*
X178874500Y-75913853D02*
X179017357Y-75842424D01*
X179017357Y-75842424D02*
X179088785Y-75770996D01*
X179088785Y-75770996D02*
X179160214Y-75628138D01*
X179303071Y-77199567D02*
X178303071Y-77199567D01*
X179874500Y-76842424D02*
X178803071Y-76485281D01*
X178803071Y-76485281D02*
X178803071Y-77413852D01*
X179803071Y-78699566D02*
X179803071Y-77985280D01*
X179803071Y-77985280D02*
X179088785Y-77913852D01*
X179088785Y-77913852D02*
X179160214Y-77985280D01*
X179160214Y-77985280D02*
X179231642Y-78128138D01*
X179231642Y-78128138D02*
X179231642Y-78485280D01*
X179231642Y-78485280D02*
X179160214Y-78628138D01*
X179160214Y-78628138D02*
X179088785Y-78699566D01*
X179088785Y-78699566D02*
X178945928Y-78770995D01*
X178945928Y-78770995D02*
X178588785Y-78770995D01*
X178588785Y-78770995D02*
X178445928Y-78699566D01*
X178445928Y-78699566D02*
X178374500Y-78628138D01*
X178374500Y-78628138D02*
X178303071Y-78485280D01*
X178303071Y-78485280D02*
X178303071Y-78128138D01*
X178303071Y-78128138D02*
X178374500Y-77985280D01*
X178374500Y-77985280D02*
X178445928Y-77913852D01*
X118863852Y-95581214D02*
X119363852Y-95581214D01*
X119578138Y-96366928D02*
X118863852Y-96366928D01*
X118863852Y-96366928D02*
X118863852Y-94866928D01*
X118863852Y-94866928D02*
X119578138Y-94866928D01*
X120149567Y-96295500D02*
X120363853Y-96366928D01*
X120363853Y-96366928D02*
X120720995Y-96366928D01*
X120720995Y-96366928D02*
X120863853Y-96295500D01*
X120863853Y-96295500D02*
X120935281Y-96224071D01*
X120935281Y-96224071D02*
X121006710Y-96081214D01*
X121006710Y-96081214D02*
X121006710Y-95938357D01*
X121006710Y-95938357D02*
X120935281Y-95795500D01*
X120935281Y-95795500D02*
X120863853Y-95724071D01*
X120863853Y-95724071D02*
X120720995Y-95652642D01*
X120720995Y-95652642D02*
X120435281Y-95581214D01*
X120435281Y-95581214D02*
X120292424Y-95509785D01*
X120292424Y-95509785D02*
X120220995Y-95438357D01*
X120220995Y-95438357D02*
X120149567Y-95295500D01*
X120149567Y-95295500D02*
X120149567Y-95152642D01*
X120149567Y-95152642D02*
X120220995Y-95009785D01*
X120220995Y-95009785D02*
X120292424Y-94938357D01*
X120292424Y-94938357D02*
X120435281Y-94866928D01*
X120435281Y-94866928D02*
X120792424Y-94866928D01*
X120792424Y-94866928D02*
X121006710Y-94938357D01*
X121649566Y-96366928D02*
X121649566Y-94866928D01*
X121649566Y-94866928D02*
X122220995Y-94866928D01*
X122220995Y-94866928D02*
X122363852Y-94938357D01*
X122363852Y-94938357D02*
X122435281Y-95009785D01*
X122435281Y-95009785D02*
X122506709Y-95152642D01*
X122506709Y-95152642D02*
X122506709Y-95366928D01*
X122506709Y-95366928D02*
X122435281Y-95509785D01*
X122435281Y-95509785D02*
X122363852Y-95581214D01*
X122363852Y-95581214D02*
X122220995Y-95652642D01*
X122220995Y-95652642D02*
X121649566Y-95652642D01*
X123006709Y-94866928D02*
X123935281Y-94866928D01*
X123935281Y-94866928D02*
X123435281Y-95438357D01*
X123435281Y-95438357D02*
X123649566Y-95438357D01*
X123649566Y-95438357D02*
X123792424Y-95509785D01*
X123792424Y-95509785D02*
X123863852Y-95581214D01*
X123863852Y-95581214D02*
X123935281Y-95724071D01*
X123935281Y-95724071D02*
X123935281Y-96081214D01*
X123935281Y-96081214D02*
X123863852Y-96224071D01*
X123863852Y-96224071D02*
X123792424Y-96295500D01*
X123792424Y-96295500D02*
X123649566Y-96366928D01*
X123649566Y-96366928D02*
X123220995Y-96366928D01*
X123220995Y-96366928D02*
X123078138Y-96295500D01*
X123078138Y-96295500D02*
X123006709Y-96224071D01*
X124506709Y-95009785D02*
X124578137Y-94938357D01*
X124578137Y-94938357D02*
X124720995Y-94866928D01*
X124720995Y-94866928D02*
X125078137Y-94866928D01*
X125078137Y-94866928D02*
X125220995Y-94938357D01*
X125220995Y-94938357D02*
X125292423Y-95009785D01*
X125292423Y-95009785D02*
X125363852Y-95152642D01*
X125363852Y-95152642D02*
X125363852Y-95295500D01*
X125363852Y-95295500D02*
X125292423Y-95509785D01*
X125292423Y-95509785D02*
X124435280Y-96366928D01*
X124435280Y-96366928D02*
X125363852Y-96366928D01*
X192382424Y-110218357D02*
X193096710Y-110218357D01*
X192239567Y-110646928D02*
X192739567Y-109146928D01*
X192739567Y-109146928D02*
X193239567Y-110646928D01*
X194453852Y-110646928D02*
X193739566Y-110646928D01*
X193739566Y-110646928D02*
X193739566Y-109146928D01*
X194882424Y-110218357D02*
X195596710Y-110218357D01*
X194739567Y-110646928D02*
X195239567Y-109146928D01*
X195239567Y-109146928D02*
X195739567Y-110646928D01*
X197096709Y-110646928D02*
X196596709Y-109932642D01*
X196239566Y-110646928D02*
X196239566Y-109146928D01*
X196239566Y-109146928D02*
X196810995Y-109146928D01*
X196810995Y-109146928D02*
X196953852Y-109218357D01*
X196953852Y-109218357D02*
X197025281Y-109289785D01*
X197025281Y-109289785D02*
X197096709Y-109432642D01*
X197096709Y-109432642D02*
X197096709Y-109646928D01*
X197096709Y-109646928D02*
X197025281Y-109789785D01*
X197025281Y-109789785D02*
X196953852Y-109861214D01*
X196953852Y-109861214D02*
X196810995Y-109932642D01*
X196810995Y-109932642D02*
X196239566Y-109932642D01*
X197739566Y-110646928D02*
X197739566Y-109146928D01*
X197739566Y-109146928D02*
X198239566Y-110218357D01*
X198239566Y-110218357D02*
X198739566Y-109146928D01*
X198739566Y-109146928D02*
X198739566Y-110646928D01*
X199382424Y-110218357D02*
X200096710Y-110218357D01*
X199239567Y-110646928D02*
X199739567Y-109146928D01*
X199739567Y-109146928D02*
X200239567Y-110646928D01*
D13*
X111828426Y-54195595D02*
X112095093Y-54995595D01*
X112095093Y-54995595D02*
X112361759Y-54195595D01*
X112628426Y-54995595D02*
X112628426Y-54195595D01*
X113009378Y-54995595D02*
X113009378Y-54195595D01*
X113009378Y-54195595D02*
X113466521Y-54995595D01*
X113466521Y-54995595D02*
X113466521Y-54195595D01*
X113847473Y-54690833D02*
X114456997Y-54690833D01*
X114152235Y-54995595D02*
X114152235Y-54386071D01*
X160828426Y-108715595D02*
X161095093Y-109515595D01*
X161095093Y-109515595D02*
X161361759Y-108715595D01*
X161628426Y-109515595D02*
X161628426Y-108715595D01*
X162009378Y-109515595D02*
X162009378Y-108715595D01*
X162009378Y-108715595D02*
X162466521Y-109515595D01*
X162466521Y-109515595D02*
X162466521Y-108715595D01*
D15*
X131003852Y-64836928D02*
X131003852Y-63336928D01*
X131003852Y-63336928D02*
X131360995Y-63336928D01*
X131360995Y-63336928D02*
X131575281Y-63408357D01*
X131575281Y-63408357D02*
X131718138Y-63551214D01*
X131718138Y-63551214D02*
X131789567Y-63694071D01*
X131789567Y-63694071D02*
X131860995Y-63979785D01*
X131860995Y-63979785D02*
X131860995Y-64194071D01*
X131860995Y-64194071D02*
X131789567Y-64479785D01*
X131789567Y-64479785D02*
X131718138Y-64622642D01*
X131718138Y-64622642D02*
X131575281Y-64765500D01*
X131575281Y-64765500D02*
X131360995Y-64836928D01*
X131360995Y-64836928D02*
X131003852Y-64836928D01*
X132503852Y-64836928D02*
X132503852Y-63336928D01*
X133146710Y-64765500D02*
X133360996Y-64836928D01*
X133360996Y-64836928D02*
X133718138Y-64836928D01*
X133718138Y-64836928D02*
X133860996Y-64765500D01*
X133860996Y-64765500D02*
X133932424Y-64694071D01*
X133932424Y-64694071D02*
X134003853Y-64551214D01*
X134003853Y-64551214D02*
X134003853Y-64408357D01*
X134003853Y-64408357D02*
X133932424Y-64265500D01*
X133932424Y-64265500D02*
X133860996Y-64194071D01*
X133860996Y-64194071D02*
X133718138Y-64122642D01*
X133718138Y-64122642D02*
X133432424Y-64051214D01*
X133432424Y-64051214D02*
X133289567Y-63979785D01*
X133289567Y-63979785D02*
X133218138Y-63908357D01*
X133218138Y-63908357D02*
X133146710Y-63765500D01*
X133146710Y-63765500D02*
X133146710Y-63622642D01*
X133146710Y-63622642D02*
X133218138Y-63479785D01*
X133218138Y-63479785D02*
X133289567Y-63408357D01*
X133289567Y-63408357D02*
X133432424Y-63336928D01*
X133432424Y-63336928D02*
X133789567Y-63336928D01*
X133789567Y-63336928D02*
X134003853Y-63408357D01*
X134646709Y-64836928D02*
X134646709Y-63336928D01*
X134646709Y-63336928D02*
X135218138Y-63336928D01*
X135218138Y-63336928D02*
X135360995Y-63408357D01*
X135360995Y-63408357D02*
X135432424Y-63479785D01*
X135432424Y-63479785D02*
X135503852Y-63622642D01*
X135503852Y-63622642D02*
X135503852Y-63836928D01*
X135503852Y-63836928D02*
X135432424Y-63979785D01*
X135432424Y-63979785D02*
X135360995Y-64051214D01*
X135360995Y-64051214D02*
X135218138Y-64122642D01*
X135218138Y-64122642D02*
X134646709Y-64122642D01*
X136860995Y-64836928D02*
X136146709Y-64836928D01*
X136146709Y-64836928D02*
X136146709Y-63336928D01*
X137289567Y-64408357D02*
X138003853Y-64408357D01*
X137146710Y-64836928D02*
X137646710Y-63336928D01*
X137646710Y-63336928D02*
X138146710Y-64836928D01*
X138932424Y-64122642D02*
X138932424Y-64836928D01*
X138432424Y-63336928D02*
X138932424Y-64122642D01*
X138932424Y-64122642D02*
X139432424Y-63336928D01*
X100248138Y-54866928D02*
X99533852Y-54866928D01*
X99533852Y-54866928D02*
X99533852Y-53366928D01*
X100748138Y-54866928D02*
X100748138Y-53366928D01*
X100748138Y-53366928D02*
X101248138Y-54438357D01*
X101248138Y-54438357D02*
X101748138Y-53366928D01*
X101748138Y-53366928D02*
X101748138Y-54866928D01*
X102390996Y-53509785D02*
X102462424Y-53438357D01*
X102462424Y-53438357D02*
X102605282Y-53366928D01*
X102605282Y-53366928D02*
X102962424Y-53366928D01*
X102962424Y-53366928D02*
X103105282Y-53438357D01*
X103105282Y-53438357D02*
X103176710Y-53509785D01*
X103176710Y-53509785D02*
X103248139Y-53652642D01*
X103248139Y-53652642D02*
X103248139Y-53795500D01*
X103248139Y-53795500D02*
X103176710Y-54009785D01*
X103176710Y-54009785D02*
X102319567Y-54866928D01*
X102319567Y-54866928D02*
X103248139Y-54866928D01*
X104605281Y-53366928D02*
X103890995Y-53366928D01*
X103890995Y-53366928D02*
X103819567Y-54081214D01*
X103819567Y-54081214D02*
X103890995Y-54009785D01*
X103890995Y-54009785D02*
X104033853Y-53938357D01*
X104033853Y-53938357D02*
X104390995Y-53938357D01*
X104390995Y-53938357D02*
X104533853Y-54009785D01*
X104533853Y-54009785D02*
X104605281Y-54081214D01*
X104605281Y-54081214D02*
X104676710Y-54224071D01*
X104676710Y-54224071D02*
X104676710Y-54581214D01*
X104676710Y-54581214D02*
X104605281Y-54724071D01*
X104605281Y-54724071D02*
X104533853Y-54795500D01*
X104533853Y-54795500D02*
X104390995Y-54866928D01*
X104390995Y-54866928D02*
X104033853Y-54866928D01*
X104033853Y-54866928D02*
X103890995Y-54795500D01*
X103890995Y-54795500D02*
X103819567Y-54724071D01*
X105390995Y-54866928D02*
X105676709Y-54866928D01*
X105676709Y-54866928D02*
X105819566Y-54795500D01*
X105819566Y-54795500D02*
X105890995Y-54724071D01*
X105890995Y-54724071D02*
X106033852Y-54509785D01*
X106033852Y-54509785D02*
X106105281Y-54224071D01*
X106105281Y-54224071D02*
X106105281Y-53652642D01*
X106105281Y-53652642D02*
X106033852Y-53509785D01*
X106033852Y-53509785D02*
X105962424Y-53438357D01*
X105962424Y-53438357D02*
X105819566Y-53366928D01*
X105819566Y-53366928D02*
X105533852Y-53366928D01*
X105533852Y-53366928D02*
X105390995Y-53438357D01*
X105390995Y-53438357D02*
X105319566Y-53509785D01*
X105319566Y-53509785D02*
X105248138Y-53652642D01*
X105248138Y-53652642D02*
X105248138Y-54009785D01*
X105248138Y-54009785D02*
X105319566Y-54152642D01*
X105319566Y-54152642D02*
X105390995Y-54224071D01*
X105390995Y-54224071D02*
X105533852Y-54295500D01*
X105533852Y-54295500D02*
X105819566Y-54295500D01*
X105819566Y-54295500D02*
X105962424Y-54224071D01*
X105962424Y-54224071D02*
X106033852Y-54152642D01*
X106033852Y-54152642D02*
X106105281Y-54009785D01*
X107390995Y-53366928D02*
X107105280Y-53366928D01*
X107105280Y-53366928D02*
X106962423Y-53438357D01*
X106962423Y-53438357D02*
X106890995Y-53509785D01*
X106890995Y-53509785D02*
X106748137Y-53724071D01*
X106748137Y-53724071D02*
X106676709Y-54009785D01*
X106676709Y-54009785D02*
X106676709Y-54581214D01*
X106676709Y-54581214D02*
X106748137Y-54724071D01*
X106748137Y-54724071D02*
X106819566Y-54795500D01*
X106819566Y-54795500D02*
X106962423Y-54866928D01*
X106962423Y-54866928D02*
X107248137Y-54866928D01*
X107248137Y-54866928D02*
X107390995Y-54795500D01*
X107390995Y-54795500D02*
X107462423Y-54724071D01*
X107462423Y-54724071D02*
X107533852Y-54581214D01*
X107533852Y-54581214D02*
X107533852Y-54224071D01*
X107533852Y-54224071D02*
X107462423Y-54081214D01*
X107462423Y-54081214D02*
X107390995Y-54009785D01*
X107390995Y-54009785D02*
X107248137Y-53938357D01*
X107248137Y-53938357D02*
X106962423Y-53938357D01*
X106962423Y-53938357D02*
X106819566Y-54009785D01*
X106819566Y-54009785D02*
X106748137Y-54081214D01*
X106748137Y-54081214D02*
X106676709Y-54224071D01*
D14*
X145911428Y-91578152D02*
X145911428Y-92244819D01*
X145673333Y-91197200D02*
X145435238Y-91911485D01*
X145435238Y-91911485D02*
X146054285Y-91911485D01*
X146435238Y-92149580D02*
X146482857Y-92197200D01*
X146482857Y-92197200D02*
X146435238Y-92244819D01*
X146435238Y-92244819D02*
X146387619Y-92197200D01*
X146387619Y-92197200D02*
X146435238Y-92149580D01*
X146435238Y-92149580D02*
X146435238Y-92244819D01*
X146816190Y-91244819D02*
X147482856Y-91244819D01*
X147482856Y-91244819D02*
X147054285Y-92244819D01*
X147863809Y-92244819D02*
X147863809Y-91244819D01*
X147959047Y-91863866D02*
X148244761Y-92244819D01*
X148244761Y-91578152D02*
X147863809Y-91959104D01*
D15*
X169193852Y-125025500D02*
X170336710Y-125025500D01*
X169765281Y-125596928D02*
X169765281Y-124454071D01*
X171765281Y-124096928D02*
X171050995Y-124096928D01*
X171050995Y-124096928D02*
X170979567Y-124811214D01*
X170979567Y-124811214D02*
X171050995Y-124739785D01*
X171050995Y-124739785D02*
X171193853Y-124668357D01*
X171193853Y-124668357D02*
X171550995Y-124668357D01*
X171550995Y-124668357D02*
X171693853Y-124739785D01*
X171693853Y-124739785D02*
X171765281Y-124811214D01*
X171765281Y-124811214D02*
X171836710Y-124954071D01*
X171836710Y-124954071D02*
X171836710Y-125311214D01*
X171836710Y-125311214D02*
X171765281Y-125454071D01*
X171765281Y-125454071D02*
X171693853Y-125525500D01*
X171693853Y-125525500D02*
X171550995Y-125596928D01*
X171550995Y-125596928D02*
X171193853Y-125596928D01*
X171193853Y-125596928D02*
X171050995Y-125525500D01*
X171050995Y-125525500D02*
X170979567Y-125454071D01*
X172265281Y-124096928D02*
X172765281Y-125596928D01*
X172765281Y-125596928D02*
X173265281Y-124096928D01*
D14*
X145911428Y-83888152D02*
X145911428Y-84554819D01*
X145673333Y-83507200D02*
X145435238Y-84221485D01*
X145435238Y-84221485D02*
X146054285Y-84221485D01*
X146435238Y-84459580D02*
X146482857Y-84507200D01*
X146482857Y-84507200D02*
X146435238Y-84554819D01*
X146435238Y-84554819D02*
X146387619Y-84507200D01*
X146387619Y-84507200D02*
X146435238Y-84459580D01*
X146435238Y-84459580D02*
X146435238Y-84554819D01*
X146816190Y-83554819D02*
X147482856Y-83554819D01*
X147482856Y-83554819D02*
X147054285Y-84554819D01*
X147863809Y-84554819D02*
X147863809Y-83554819D01*
X147959047Y-84173866D02*
X148244761Y-84554819D01*
X148244761Y-83888152D02*
X147863809Y-84269104D01*
D15*
X182503852Y-145676928D02*
X182503852Y-146891214D01*
X182503852Y-146891214D02*
X182575281Y-147034071D01*
X182575281Y-147034071D02*
X182646710Y-147105500D01*
X182646710Y-147105500D02*
X182789567Y-147176928D01*
X182789567Y-147176928D02*
X183075281Y-147176928D01*
X183075281Y-147176928D02*
X183218138Y-147105500D01*
X183218138Y-147105500D02*
X183289567Y-147034071D01*
X183289567Y-147034071D02*
X183360995Y-146891214D01*
X183360995Y-146891214D02*
X183360995Y-145676928D01*
X183860996Y-145676928D02*
X184718139Y-145676928D01*
X184289567Y-147176928D02*
X184289567Y-145676928D01*
X185218138Y-147176928D02*
X185218138Y-145676928D01*
X185218138Y-145676928D02*
X186075281Y-147176928D01*
X186075281Y-147176928D02*
X186075281Y-145676928D01*
X188432424Y-146391214D02*
X187932424Y-146391214D01*
X187932424Y-147176928D02*
X187932424Y-145676928D01*
X187932424Y-145676928D02*
X188646710Y-145676928D01*
X190075281Y-147176928D02*
X189575281Y-146462642D01*
X189218138Y-147176928D02*
X189218138Y-145676928D01*
X189218138Y-145676928D02*
X189789567Y-145676928D01*
X189789567Y-145676928D02*
X189932424Y-145748357D01*
X189932424Y-145748357D02*
X190003853Y-145819785D01*
X190003853Y-145819785D02*
X190075281Y-145962642D01*
X190075281Y-145962642D02*
X190075281Y-146176928D01*
X190075281Y-146176928D02*
X190003853Y-146319785D01*
X190003853Y-146319785D02*
X189932424Y-146391214D01*
X189932424Y-146391214D02*
X189789567Y-146462642D01*
X189789567Y-146462642D02*
X189218138Y-146462642D01*
X191218138Y-146391214D02*
X191432424Y-146462642D01*
X191432424Y-146462642D02*
X191503853Y-146534071D01*
X191503853Y-146534071D02*
X191575281Y-146676928D01*
X191575281Y-146676928D02*
X191575281Y-146891214D01*
X191575281Y-146891214D02*
X191503853Y-147034071D01*
X191503853Y-147034071D02*
X191432424Y-147105500D01*
X191432424Y-147105500D02*
X191289567Y-147176928D01*
X191289567Y-147176928D02*
X190718138Y-147176928D01*
X190718138Y-147176928D02*
X190718138Y-145676928D01*
X190718138Y-145676928D02*
X191218138Y-145676928D01*
X191218138Y-145676928D02*
X191360996Y-145748357D01*
X191360996Y-145748357D02*
X191432424Y-145819785D01*
X191432424Y-145819785D02*
X191503853Y-145962642D01*
X191503853Y-145962642D02*
X191503853Y-146105500D01*
X191503853Y-146105500D02*
X191432424Y-146248357D01*
X191432424Y-146248357D02*
X191360996Y-146319785D01*
X191360996Y-146319785D02*
X191218138Y-146391214D01*
X191218138Y-146391214D02*
X190718138Y-146391214D01*
X192146710Y-146748357D02*
X192860996Y-146748357D01*
X192003853Y-147176928D02*
X192503853Y-145676928D01*
X192503853Y-145676928D02*
X193003853Y-147176928D01*
D14*
X112954819Y-107489047D02*
X112954819Y-108060475D01*
X112954819Y-107774761D02*
X111954819Y-107774761D01*
X111954819Y-107774761D02*
X112097676Y-107869999D01*
X112097676Y-107869999D02*
X112192914Y-107965237D01*
X112192914Y-107965237D02*
X112240533Y-108060475D01*
X111954819Y-106869999D02*
X111954819Y-106774761D01*
X111954819Y-106774761D02*
X112002438Y-106679523D01*
X112002438Y-106679523D02*
X112050057Y-106631904D01*
X112050057Y-106631904D02*
X112145295Y-106584285D01*
X112145295Y-106584285D02*
X112335771Y-106536666D01*
X112335771Y-106536666D02*
X112573866Y-106536666D01*
X112573866Y-106536666D02*
X112764342Y-106584285D01*
X112764342Y-106584285D02*
X112859580Y-106631904D01*
X112859580Y-106631904D02*
X112907200Y-106679523D01*
X112907200Y-106679523D02*
X112954819Y-106774761D01*
X112954819Y-106774761D02*
X112954819Y-106869999D01*
X112954819Y-106869999D02*
X112907200Y-106965237D01*
X112907200Y-106965237D02*
X112859580Y-107012856D01*
X112859580Y-107012856D02*
X112764342Y-107060475D01*
X112764342Y-107060475D02*
X112573866Y-107108094D01*
X112573866Y-107108094D02*
X112335771Y-107108094D01*
X112335771Y-107108094D02*
X112145295Y-107060475D01*
X112145295Y-107060475D02*
X112050057Y-107012856D01*
X112050057Y-107012856D02*
X112002438Y-106965237D01*
X112002438Y-106965237D02*
X111954819Y-106869999D01*
X111954819Y-105917618D02*
X111954819Y-105822380D01*
X111954819Y-105822380D02*
X112002438Y-105727142D01*
X112002438Y-105727142D02*
X112050057Y-105679523D01*
X112050057Y-105679523D02*
X112145295Y-105631904D01*
X112145295Y-105631904D02*
X112335771Y-105584285D01*
X112335771Y-105584285D02*
X112573866Y-105584285D01*
X112573866Y-105584285D02*
X112764342Y-105631904D01*
X112764342Y-105631904D02*
X112859580Y-105679523D01*
X112859580Y-105679523D02*
X112907200Y-105727142D01*
X112907200Y-105727142D02*
X112954819Y-105822380D01*
X112954819Y-105822380D02*
X112954819Y-105917618D01*
X112954819Y-105917618D02*
X112907200Y-106012856D01*
X112907200Y-106012856D02*
X112859580Y-106060475D01*
X112859580Y-106060475D02*
X112764342Y-106108094D01*
X112764342Y-106108094D02*
X112573866Y-106155713D01*
X112573866Y-106155713D02*
X112335771Y-106155713D01*
X112335771Y-106155713D02*
X112145295Y-106108094D01*
X112145295Y-106108094D02*
X112050057Y-106060475D01*
X112050057Y-106060475D02*
X112002438Y-106012856D01*
X112002438Y-106012856D02*
X111954819Y-105917618D01*
X112288152Y-105155713D02*
X112954819Y-105155713D01*
X112383390Y-105155713D02*
X112335771Y-105108094D01*
X112335771Y-105108094D02*
X112288152Y-105012856D01*
X112288152Y-105012856D02*
X112288152Y-104869999D01*
X112288152Y-104869999D02*
X112335771Y-104774761D01*
X112335771Y-104774761D02*
X112431009Y-104727142D01*
X112431009Y-104727142D02*
X112954819Y-104727142D01*
D13*
X111348426Y-98975595D02*
X111615093Y-99775595D01*
X111615093Y-99775595D02*
X111881759Y-98975595D01*
X112300807Y-98975595D02*
X112453188Y-98975595D01*
X112453188Y-98975595D02*
X112529378Y-99013690D01*
X112529378Y-99013690D02*
X112605569Y-99089880D01*
X112605569Y-99089880D02*
X112643664Y-99242261D01*
X112643664Y-99242261D02*
X112643664Y-99508928D01*
X112643664Y-99508928D02*
X112605569Y-99661309D01*
X112605569Y-99661309D02*
X112529378Y-99737500D01*
X112529378Y-99737500D02*
X112453188Y-99775595D01*
X112453188Y-99775595D02*
X112300807Y-99775595D01*
X112300807Y-99775595D02*
X112224616Y-99737500D01*
X112224616Y-99737500D02*
X112148426Y-99661309D01*
X112148426Y-99661309D02*
X112110330Y-99508928D01*
X112110330Y-99508928D02*
X112110330Y-99242261D01*
X112110330Y-99242261D02*
X112148426Y-99089880D01*
X112148426Y-99089880D02*
X112224616Y-99013690D01*
X112224616Y-99013690D02*
X112300807Y-98975595D01*
X112986521Y-98975595D02*
X112986521Y-99623214D01*
X112986521Y-99623214D02*
X113024616Y-99699404D01*
X113024616Y-99699404D02*
X113062711Y-99737500D01*
X113062711Y-99737500D02*
X113138902Y-99775595D01*
X113138902Y-99775595D02*
X113291283Y-99775595D01*
X113291283Y-99775595D02*
X113367473Y-99737500D01*
X113367473Y-99737500D02*
X113405568Y-99699404D01*
X113405568Y-99699404D02*
X113443664Y-99623214D01*
X113443664Y-99623214D02*
X113443664Y-98975595D01*
X113710330Y-98975595D02*
X114167473Y-98975595D01*
X113938901Y-99775595D02*
X113938901Y-98975595D01*
D14*
X169840952Y-82434819D02*
X169269524Y-82434819D01*
X169555238Y-82434819D02*
X169555238Y-81434819D01*
X169555238Y-81434819D02*
X169460000Y-81577676D01*
X169460000Y-81577676D02*
X169364762Y-81672914D01*
X169364762Y-81672914D02*
X169269524Y-81720533D01*
X170460000Y-81434819D02*
X170555238Y-81434819D01*
X170555238Y-81434819D02*
X170650476Y-81482438D01*
X170650476Y-81482438D02*
X170698095Y-81530057D01*
X170698095Y-81530057D02*
X170745714Y-81625295D01*
X170745714Y-81625295D02*
X170793333Y-81815771D01*
X170793333Y-81815771D02*
X170793333Y-82053866D01*
X170793333Y-82053866D02*
X170745714Y-82244342D01*
X170745714Y-82244342D02*
X170698095Y-82339580D01*
X170698095Y-82339580D02*
X170650476Y-82387200D01*
X170650476Y-82387200D02*
X170555238Y-82434819D01*
X170555238Y-82434819D02*
X170460000Y-82434819D01*
X170460000Y-82434819D02*
X170364762Y-82387200D01*
X170364762Y-82387200D02*
X170317143Y-82339580D01*
X170317143Y-82339580D02*
X170269524Y-82244342D01*
X170269524Y-82244342D02*
X170221905Y-82053866D01*
X170221905Y-82053866D02*
X170221905Y-81815771D01*
X170221905Y-81815771D02*
X170269524Y-81625295D01*
X170269524Y-81625295D02*
X170317143Y-81530057D01*
X170317143Y-81530057D02*
X170364762Y-81482438D01*
X170364762Y-81482438D02*
X170460000Y-81434819D01*
X171412381Y-81434819D02*
X171507619Y-81434819D01*
X171507619Y-81434819D02*
X171602857Y-81482438D01*
X171602857Y-81482438D02*
X171650476Y-81530057D01*
X171650476Y-81530057D02*
X171698095Y-81625295D01*
X171698095Y-81625295D02*
X171745714Y-81815771D01*
X171745714Y-81815771D02*
X171745714Y-82053866D01*
X171745714Y-82053866D02*
X171698095Y-82244342D01*
X171698095Y-82244342D02*
X171650476Y-82339580D01*
X171650476Y-82339580D02*
X171602857Y-82387200D01*
X171602857Y-82387200D02*
X171507619Y-82434819D01*
X171507619Y-82434819D02*
X171412381Y-82434819D01*
X171412381Y-82434819D02*
X171317143Y-82387200D01*
X171317143Y-82387200D02*
X171269524Y-82339580D01*
X171269524Y-82339580D02*
X171221905Y-82244342D01*
X171221905Y-82244342D02*
X171174286Y-82053866D01*
X171174286Y-82053866D02*
X171174286Y-81815771D01*
X171174286Y-81815771D02*
X171221905Y-81625295D01*
X171221905Y-81625295D02*
X171269524Y-81530057D01*
X171269524Y-81530057D02*
X171317143Y-81482438D01*
X171317143Y-81482438D02*
X171412381Y-81434819D01*
X172174286Y-81768152D02*
X172174286Y-82434819D01*
X172174286Y-81863390D02*
X172221905Y-81815771D01*
X172221905Y-81815771D02*
X172317143Y-81768152D01*
X172317143Y-81768152D02*
X172460000Y-81768152D01*
X172460000Y-81768152D02*
X172555238Y-81815771D01*
X172555238Y-81815771D02*
X172602857Y-81911009D01*
X172602857Y-81911009D02*
X172602857Y-82434819D01*
D15*
X184643852Y-110822012D02*
X184643852Y-109322012D01*
X184643852Y-109322012D02*
X185143852Y-110393441D01*
X185143852Y-110393441D02*
X185643852Y-109322012D01*
X185643852Y-109322012D02*
X185643852Y-110822012D01*
X186643853Y-109322012D02*
X186929567Y-109322012D01*
X186929567Y-109322012D02*
X187072424Y-109393441D01*
X187072424Y-109393441D02*
X187215281Y-109536298D01*
X187215281Y-109536298D02*
X187286710Y-109822012D01*
X187286710Y-109822012D02*
X187286710Y-110322012D01*
X187286710Y-110322012D02*
X187215281Y-110607726D01*
X187215281Y-110607726D02*
X187072424Y-110750584D01*
X187072424Y-110750584D02*
X186929567Y-110822012D01*
X186929567Y-110822012D02*
X186643853Y-110822012D01*
X186643853Y-110822012D02*
X186500996Y-110750584D01*
X186500996Y-110750584D02*
X186358138Y-110607726D01*
X186358138Y-110607726D02*
X186286710Y-110322012D01*
X186286710Y-110322012D02*
X186286710Y-109822012D01*
X186286710Y-109822012D02*
X186358138Y-109536298D01*
X186358138Y-109536298D02*
X186500996Y-109393441D01*
X186500996Y-109393441D02*
X186643853Y-109322012D01*
X187929567Y-110822012D02*
X187929567Y-109322012D01*
X187929567Y-109322012D02*
X188286710Y-109322012D01*
X188286710Y-109322012D02*
X188500996Y-109393441D01*
X188500996Y-109393441D02*
X188643853Y-109536298D01*
X188643853Y-109536298D02*
X188715282Y-109679155D01*
X188715282Y-109679155D02*
X188786710Y-109964869D01*
X188786710Y-109964869D02*
X188786710Y-110179155D01*
X188786710Y-110179155D02*
X188715282Y-110464869D01*
X188715282Y-110464869D02*
X188643853Y-110607726D01*
X188643853Y-110607726D02*
X188500996Y-110750584D01*
X188500996Y-110750584D02*
X188286710Y-110822012D01*
X188286710Y-110822012D02*
X187929567Y-110822012D01*
X189715282Y-109322012D02*
X190000996Y-109322012D01*
X190000996Y-109322012D02*
X190143853Y-109393441D01*
X190143853Y-109393441D02*
X190286710Y-109536298D01*
X190286710Y-109536298D02*
X190358139Y-109822012D01*
X190358139Y-109822012D02*
X190358139Y-110322012D01*
X190358139Y-110322012D02*
X190286710Y-110607726D01*
X190286710Y-110607726D02*
X190143853Y-110750584D01*
X190143853Y-110750584D02*
X190000996Y-110822012D01*
X190000996Y-110822012D02*
X189715282Y-110822012D01*
X189715282Y-110822012D02*
X189572425Y-110750584D01*
X189572425Y-110750584D02*
X189429567Y-110607726D01*
X189429567Y-110607726D02*
X189358139Y-110322012D01*
X189358139Y-110322012D02*
X189358139Y-109822012D01*
X189358139Y-109822012D02*
X189429567Y-109536298D01*
X189429567Y-109536298D02*
X189572425Y-109393441D01*
X189572425Y-109393441D02*
X189715282Y-109322012D01*
X167523852Y-99056928D02*
X167523852Y-97556928D01*
X167523852Y-97556928D02*
X168023852Y-98628357D01*
X168023852Y-98628357D02*
X168523852Y-97556928D01*
X168523852Y-97556928D02*
X168523852Y-99056928D01*
X169166710Y-98628357D02*
X169880996Y-98628357D01*
X169023853Y-99056928D02*
X169523853Y-97556928D01*
X169523853Y-97556928D02*
X170023853Y-99056928D01*
X170380995Y-97556928D02*
X171380995Y-99056928D01*
X171380995Y-97556928D02*
X170380995Y-99056928D01*
X171809566Y-97556928D02*
X172738138Y-97556928D01*
X172738138Y-97556928D02*
X172238138Y-98128357D01*
X172238138Y-98128357D02*
X172452423Y-98128357D01*
X172452423Y-98128357D02*
X172595281Y-98199785D01*
X172595281Y-98199785D02*
X172666709Y-98271214D01*
X172666709Y-98271214D02*
X172738138Y-98414071D01*
X172738138Y-98414071D02*
X172738138Y-98771214D01*
X172738138Y-98771214D02*
X172666709Y-98914071D01*
X172666709Y-98914071D02*
X172595281Y-98985500D01*
X172595281Y-98985500D02*
X172452423Y-99056928D01*
X172452423Y-99056928D02*
X172023852Y-99056928D01*
X172023852Y-99056928D02*
X171880995Y-98985500D01*
X171880995Y-98985500D02*
X171809566Y-98914071D01*
X173666709Y-97556928D02*
X173809566Y-97556928D01*
X173809566Y-97556928D02*
X173952423Y-97628357D01*
X173952423Y-97628357D02*
X174023852Y-97699785D01*
X174023852Y-97699785D02*
X174095280Y-97842642D01*
X174095280Y-97842642D02*
X174166709Y-98128357D01*
X174166709Y-98128357D02*
X174166709Y-98485500D01*
X174166709Y-98485500D02*
X174095280Y-98771214D01*
X174095280Y-98771214D02*
X174023852Y-98914071D01*
X174023852Y-98914071D02*
X173952423Y-98985500D01*
X173952423Y-98985500D02*
X173809566Y-99056928D01*
X173809566Y-99056928D02*
X173666709Y-99056928D01*
X173666709Y-99056928D02*
X173523852Y-98985500D01*
X173523852Y-98985500D02*
X173452423Y-98914071D01*
X173452423Y-98914071D02*
X173380994Y-98771214D01*
X173380994Y-98771214D02*
X173309566Y-98485500D01*
X173309566Y-98485500D02*
X173309566Y-98128357D01*
X173309566Y-98128357D02*
X173380994Y-97842642D01*
X173380994Y-97842642D02*
X173452423Y-97699785D01*
X173452423Y-97699785D02*
X173523852Y-97628357D01*
X173523852Y-97628357D02*
X173666709Y-97556928D01*
X175595280Y-99056928D02*
X174738137Y-99056928D01*
X175166708Y-99056928D02*
X175166708Y-97556928D01*
X175166708Y-97556928D02*
X175023851Y-97771214D01*
X175023851Y-97771214D02*
X174880994Y-97914071D01*
X174880994Y-97914071D02*
X174738137Y-97985500D01*
X176523851Y-97556928D02*
X176666708Y-97556928D01*
X176666708Y-97556928D02*
X176809565Y-97628357D01*
X176809565Y-97628357D02*
X176880994Y-97699785D01*
X176880994Y-97699785D02*
X176952422Y-97842642D01*
X176952422Y-97842642D02*
X177023851Y-98128357D01*
X177023851Y-98128357D02*
X177023851Y-98485500D01*
X177023851Y-98485500D02*
X176952422Y-98771214D01*
X176952422Y-98771214D02*
X176880994Y-98914071D01*
X176880994Y-98914071D02*
X176809565Y-98985500D01*
X176809565Y-98985500D02*
X176666708Y-99056928D01*
X176666708Y-99056928D02*
X176523851Y-99056928D01*
X176523851Y-99056928D02*
X176380994Y-98985500D01*
X176380994Y-98985500D02*
X176309565Y-98914071D01*
X176309565Y-98914071D02*
X176238136Y-98771214D01*
X176238136Y-98771214D02*
X176166708Y-98485500D01*
X176166708Y-98485500D02*
X176166708Y-98128357D01*
X176166708Y-98128357D02*
X176238136Y-97842642D01*
X176238136Y-97842642D02*
X176309565Y-97699785D01*
X176309565Y-97699785D02*
X176380994Y-97628357D01*
X176380994Y-97628357D02*
X176523851Y-97556928D01*
X177595279Y-97699785D02*
X177666707Y-97628357D01*
X177666707Y-97628357D02*
X177809565Y-97556928D01*
X177809565Y-97556928D02*
X178166707Y-97556928D01*
X178166707Y-97556928D02*
X178309565Y-97628357D01*
X178309565Y-97628357D02*
X178380993Y-97699785D01*
X178380993Y-97699785D02*
X178452422Y-97842642D01*
X178452422Y-97842642D02*
X178452422Y-97985500D01*
X178452422Y-97985500D02*
X178380993Y-98199785D01*
X178380993Y-98199785D02*
X177523850Y-99056928D01*
X177523850Y-99056928D02*
X178452422Y-99056928D01*
D14*
X137520952Y-30204819D02*
X136949524Y-30204819D01*
X137235238Y-30204819D02*
X137235238Y-29204819D01*
X137235238Y-29204819D02*
X137140000Y-29347676D01*
X137140000Y-29347676D02*
X137044762Y-29442914D01*
X137044762Y-29442914D02*
X136949524Y-29490533D01*
X138140000Y-29204819D02*
X138235238Y-29204819D01*
X138235238Y-29204819D02*
X138330476Y-29252438D01*
X138330476Y-29252438D02*
X138378095Y-29300057D01*
X138378095Y-29300057D02*
X138425714Y-29395295D01*
X138425714Y-29395295D02*
X138473333Y-29585771D01*
X138473333Y-29585771D02*
X138473333Y-29823866D01*
X138473333Y-29823866D02*
X138425714Y-30014342D01*
X138425714Y-30014342D02*
X138378095Y-30109580D01*
X138378095Y-30109580D02*
X138330476Y-30157200D01*
X138330476Y-30157200D02*
X138235238Y-30204819D01*
X138235238Y-30204819D02*
X138140000Y-30204819D01*
X138140000Y-30204819D02*
X138044762Y-30157200D01*
X138044762Y-30157200D02*
X137997143Y-30109580D01*
X137997143Y-30109580D02*
X137949524Y-30014342D01*
X137949524Y-30014342D02*
X137901905Y-29823866D01*
X137901905Y-29823866D02*
X137901905Y-29585771D01*
X137901905Y-29585771D02*
X137949524Y-29395295D01*
X137949524Y-29395295D02*
X137997143Y-29300057D01*
X137997143Y-29300057D02*
X138044762Y-29252438D01*
X138044762Y-29252438D02*
X138140000Y-29204819D01*
X139092381Y-29204819D02*
X139187619Y-29204819D01*
X139187619Y-29204819D02*
X139282857Y-29252438D01*
X139282857Y-29252438D02*
X139330476Y-29300057D01*
X139330476Y-29300057D02*
X139378095Y-29395295D01*
X139378095Y-29395295D02*
X139425714Y-29585771D01*
X139425714Y-29585771D02*
X139425714Y-29823866D01*
X139425714Y-29823866D02*
X139378095Y-30014342D01*
X139378095Y-30014342D02*
X139330476Y-30109580D01*
X139330476Y-30109580D02*
X139282857Y-30157200D01*
X139282857Y-30157200D02*
X139187619Y-30204819D01*
X139187619Y-30204819D02*
X139092381Y-30204819D01*
X139092381Y-30204819D02*
X138997143Y-30157200D01*
X138997143Y-30157200D02*
X138949524Y-30109580D01*
X138949524Y-30109580D02*
X138901905Y-30014342D01*
X138901905Y-30014342D02*
X138854286Y-29823866D01*
X138854286Y-29823866D02*
X138854286Y-29585771D01*
X138854286Y-29585771D02*
X138901905Y-29395295D01*
X138901905Y-29395295D02*
X138949524Y-29300057D01*
X138949524Y-29300057D02*
X138997143Y-29252438D01*
X138997143Y-29252438D02*
X139092381Y-29204819D01*
X139854286Y-29538152D02*
X139854286Y-30204819D01*
X139854286Y-29633390D02*
X139901905Y-29585771D01*
X139901905Y-29585771D02*
X139997143Y-29538152D01*
X139997143Y-29538152D02*
X140140000Y-29538152D01*
X140140000Y-29538152D02*
X140235238Y-29585771D01*
X140235238Y-29585771D02*
X140282857Y-29681009D01*
X140282857Y-29681009D02*
X140282857Y-30204819D01*
D15*
X175829567Y-142836928D02*
X176686710Y-142836928D01*
X176258138Y-144336928D02*
X176258138Y-142836928D01*
X177186709Y-144336928D02*
X177186709Y-142836928D01*
X177186709Y-142836928D02*
X177758138Y-142836928D01*
X177758138Y-142836928D02*
X177900995Y-142908357D01*
X177900995Y-142908357D02*
X177972424Y-142979785D01*
X177972424Y-142979785D02*
X178043852Y-143122642D01*
X178043852Y-143122642D02*
X178043852Y-143336928D01*
X178043852Y-143336928D02*
X177972424Y-143479785D01*
X177972424Y-143479785D02*
X177900995Y-143551214D01*
X177900995Y-143551214D02*
X177758138Y-143622642D01*
X177758138Y-143622642D02*
X177186709Y-143622642D01*
X178972424Y-142836928D02*
X179258138Y-142836928D01*
X179258138Y-142836928D02*
X179400995Y-142908357D01*
X179400995Y-142908357D02*
X179543852Y-143051214D01*
X179543852Y-143051214D02*
X179615281Y-143336928D01*
X179615281Y-143336928D02*
X179615281Y-143836928D01*
X179615281Y-143836928D02*
X179543852Y-144122642D01*
X179543852Y-144122642D02*
X179400995Y-144265500D01*
X179400995Y-144265500D02*
X179258138Y-144336928D01*
X179258138Y-144336928D02*
X178972424Y-144336928D01*
X178972424Y-144336928D02*
X178829567Y-144265500D01*
X178829567Y-144265500D02*
X178686709Y-144122642D01*
X178686709Y-144122642D02*
X178615281Y-143836928D01*
X178615281Y-143836928D02*
X178615281Y-143336928D01*
X178615281Y-143336928D02*
X178686709Y-143051214D01*
X178686709Y-143051214D02*
X178829567Y-142908357D01*
X178829567Y-142908357D02*
X178972424Y-142836928D01*
X181400995Y-143765500D02*
X182543853Y-143765500D01*
X184400995Y-144336928D02*
X184400995Y-142836928D01*
X185115281Y-144336928D02*
X185115281Y-142836928D01*
X185115281Y-142836928D02*
X185972424Y-144336928D01*
X185972424Y-144336928D02*
X185972424Y-142836928D01*
X187186710Y-143551214D02*
X186686710Y-143551214D01*
X186686710Y-144336928D02*
X186686710Y-142836928D01*
X186686710Y-142836928D02*
X187400996Y-142836928D01*
X188258139Y-142836928D02*
X188543853Y-142836928D01*
X188543853Y-142836928D02*
X188686710Y-142908357D01*
X188686710Y-142908357D02*
X188829567Y-143051214D01*
X188829567Y-143051214D02*
X188900996Y-143336928D01*
X188900996Y-143336928D02*
X188900996Y-143836928D01*
X188900996Y-143836928D02*
X188829567Y-144122642D01*
X188829567Y-144122642D02*
X188686710Y-144265500D01*
X188686710Y-144265500D02*
X188543853Y-144336928D01*
X188543853Y-144336928D02*
X188258139Y-144336928D01*
X188258139Y-144336928D02*
X188115282Y-144265500D01*
X188115282Y-144265500D02*
X187972424Y-144122642D01*
X187972424Y-144122642D02*
X187900996Y-143836928D01*
X187900996Y-143836928D02*
X187900996Y-143336928D01*
X187900996Y-143336928D02*
X187972424Y-143051214D01*
X187972424Y-143051214D02*
X188115282Y-142908357D01*
X188115282Y-142908357D02*
X188258139Y-142836928D01*
X190400996Y-144336928D02*
X189900996Y-143622642D01*
X189543853Y-144336928D02*
X189543853Y-142836928D01*
X189543853Y-142836928D02*
X190115282Y-142836928D01*
X190115282Y-142836928D02*
X190258139Y-142908357D01*
X190258139Y-142908357D02*
X190329568Y-142979785D01*
X190329568Y-142979785D02*
X190400996Y-143122642D01*
X190400996Y-143122642D02*
X190400996Y-143336928D01*
X190400996Y-143336928D02*
X190329568Y-143479785D01*
X190329568Y-143479785D02*
X190258139Y-143551214D01*
X190258139Y-143551214D02*
X190115282Y-143622642D01*
X190115282Y-143622642D02*
X189543853Y-143622642D01*
X191043853Y-144336928D02*
X191043853Y-142836928D01*
X191043853Y-142836928D02*
X191543853Y-143908357D01*
X191543853Y-143908357D02*
X192043853Y-142836928D01*
X192043853Y-142836928D02*
X192043853Y-144336928D01*
X192686711Y-143908357D02*
X193400997Y-143908357D01*
X192543854Y-144336928D02*
X193043854Y-142836928D01*
X193043854Y-142836928D02*
X193543854Y-144336928D01*
X193186711Y-142265500D02*
X192972425Y-142479785D01*
X193829568Y-142836928D02*
X194686711Y-142836928D01*
X194258139Y-144336928D02*
X194258139Y-142836928D01*
X195186710Y-144336928D02*
X195186710Y-142836928D01*
X196758139Y-144194071D02*
X196686711Y-144265500D01*
X196686711Y-144265500D02*
X196472425Y-144336928D01*
X196472425Y-144336928D02*
X196329568Y-144336928D01*
X196329568Y-144336928D02*
X196115282Y-144265500D01*
X196115282Y-144265500D02*
X195972425Y-144122642D01*
X195972425Y-144122642D02*
X195900996Y-143979785D01*
X195900996Y-143979785D02*
X195829568Y-143694071D01*
X195829568Y-143694071D02*
X195829568Y-143479785D01*
X195829568Y-143479785D02*
X195900996Y-143194071D01*
X195900996Y-143194071D02*
X195972425Y-143051214D01*
X195972425Y-143051214D02*
X196115282Y-142908357D01*
X196115282Y-142908357D02*
X196329568Y-142836928D01*
X196329568Y-142836928D02*
X196472425Y-142836928D01*
X196472425Y-142836928D02*
X196686711Y-142908357D01*
X196686711Y-142908357D02*
X196758139Y-142979785D01*
X197329568Y-143908357D02*
X198043854Y-143908357D01*
X197186711Y-144336928D02*
X197686711Y-142836928D01*
X197686711Y-142836928D02*
X198186711Y-144336928D01*
X199829567Y-144336928D02*
X199829567Y-142836928D01*
X200543853Y-144336928D02*
X200543853Y-142836928D01*
D13*
X160554616Y-106847500D02*
X160668902Y-106885595D01*
X160668902Y-106885595D02*
X160859378Y-106885595D01*
X160859378Y-106885595D02*
X160935569Y-106847500D01*
X160935569Y-106847500D02*
X160973664Y-106809404D01*
X160973664Y-106809404D02*
X161011759Y-106733214D01*
X161011759Y-106733214D02*
X161011759Y-106657023D01*
X161011759Y-106657023D02*
X160973664Y-106580833D01*
X160973664Y-106580833D02*
X160935569Y-106542738D01*
X160935569Y-106542738D02*
X160859378Y-106504642D01*
X160859378Y-106504642D02*
X160706997Y-106466547D01*
X160706997Y-106466547D02*
X160630807Y-106428452D01*
X160630807Y-106428452D02*
X160592712Y-106390357D01*
X160592712Y-106390357D02*
X160554616Y-106314166D01*
X160554616Y-106314166D02*
X160554616Y-106237976D01*
X160554616Y-106237976D02*
X160592712Y-106161785D01*
X160592712Y-106161785D02*
X160630807Y-106123690D01*
X160630807Y-106123690D02*
X160706997Y-106085595D01*
X160706997Y-106085595D02*
X160897474Y-106085595D01*
X160897474Y-106085595D02*
X161011759Y-106123690D01*
X161354617Y-106885595D02*
X161354617Y-106085595D01*
X161354617Y-106085595D02*
X161545093Y-106085595D01*
X161545093Y-106085595D02*
X161659379Y-106123690D01*
X161659379Y-106123690D02*
X161735569Y-106199880D01*
X161735569Y-106199880D02*
X161773664Y-106276071D01*
X161773664Y-106276071D02*
X161811760Y-106428452D01*
X161811760Y-106428452D02*
X161811760Y-106542738D01*
X161811760Y-106542738D02*
X161773664Y-106695119D01*
X161773664Y-106695119D02*
X161735569Y-106771309D01*
X161735569Y-106771309D02*
X161659379Y-106847500D01*
X161659379Y-106847500D02*
X161545093Y-106885595D01*
X161545093Y-106885595D02*
X161354617Y-106885595D01*
X162116521Y-106657023D02*
X162497474Y-106657023D01*
X162040331Y-106885595D02*
X162306998Y-106085595D01*
X162306998Y-106085595D02*
X162573664Y-106885595D01*
D14*
X103244819Y-107499047D02*
X103244819Y-108070475D01*
X103244819Y-107784761D02*
X102244819Y-107784761D01*
X102244819Y-107784761D02*
X102387676Y-107879999D01*
X102387676Y-107879999D02*
X102482914Y-107975237D01*
X102482914Y-107975237D02*
X102530533Y-108070475D01*
X102244819Y-106879999D02*
X102244819Y-106784761D01*
X102244819Y-106784761D02*
X102292438Y-106689523D01*
X102292438Y-106689523D02*
X102340057Y-106641904D01*
X102340057Y-106641904D02*
X102435295Y-106594285D01*
X102435295Y-106594285D02*
X102625771Y-106546666D01*
X102625771Y-106546666D02*
X102863866Y-106546666D01*
X102863866Y-106546666D02*
X103054342Y-106594285D01*
X103054342Y-106594285D02*
X103149580Y-106641904D01*
X103149580Y-106641904D02*
X103197200Y-106689523D01*
X103197200Y-106689523D02*
X103244819Y-106784761D01*
X103244819Y-106784761D02*
X103244819Y-106879999D01*
X103244819Y-106879999D02*
X103197200Y-106975237D01*
X103197200Y-106975237D02*
X103149580Y-107022856D01*
X103149580Y-107022856D02*
X103054342Y-107070475D01*
X103054342Y-107070475D02*
X102863866Y-107118094D01*
X102863866Y-107118094D02*
X102625771Y-107118094D01*
X102625771Y-107118094D02*
X102435295Y-107070475D01*
X102435295Y-107070475D02*
X102340057Y-107022856D01*
X102340057Y-107022856D02*
X102292438Y-106975237D01*
X102292438Y-106975237D02*
X102244819Y-106879999D01*
X102244819Y-105927618D02*
X102244819Y-105832380D01*
X102244819Y-105832380D02*
X102292438Y-105737142D01*
X102292438Y-105737142D02*
X102340057Y-105689523D01*
X102340057Y-105689523D02*
X102435295Y-105641904D01*
X102435295Y-105641904D02*
X102625771Y-105594285D01*
X102625771Y-105594285D02*
X102863866Y-105594285D01*
X102863866Y-105594285D02*
X103054342Y-105641904D01*
X103054342Y-105641904D02*
X103149580Y-105689523D01*
X103149580Y-105689523D02*
X103197200Y-105737142D01*
X103197200Y-105737142D02*
X103244819Y-105832380D01*
X103244819Y-105832380D02*
X103244819Y-105927618D01*
X103244819Y-105927618D02*
X103197200Y-106022856D01*
X103197200Y-106022856D02*
X103149580Y-106070475D01*
X103149580Y-106070475D02*
X103054342Y-106118094D01*
X103054342Y-106118094D02*
X102863866Y-106165713D01*
X102863866Y-106165713D02*
X102625771Y-106165713D01*
X102625771Y-106165713D02*
X102435295Y-106118094D01*
X102435295Y-106118094D02*
X102340057Y-106070475D01*
X102340057Y-106070475D02*
X102292438Y-106022856D01*
X102292438Y-106022856D02*
X102244819Y-105927618D01*
X102578152Y-105165713D02*
X103244819Y-105165713D01*
X102673390Y-105165713D02*
X102625771Y-105118094D01*
X102625771Y-105118094D02*
X102578152Y-105022856D01*
X102578152Y-105022856D02*
X102578152Y-104879999D01*
X102578152Y-104879999D02*
X102625771Y-104784761D01*
X102625771Y-104784761D02*
X102721009Y-104737142D01*
X102721009Y-104737142D02*
X103244819Y-104737142D01*
D13*
X160594616Y-104337500D02*
X160708902Y-104375595D01*
X160708902Y-104375595D02*
X160899378Y-104375595D01*
X160899378Y-104375595D02*
X160975569Y-104337500D01*
X160975569Y-104337500D02*
X161013664Y-104299404D01*
X161013664Y-104299404D02*
X161051759Y-104223214D01*
X161051759Y-104223214D02*
X161051759Y-104147023D01*
X161051759Y-104147023D02*
X161013664Y-104070833D01*
X161013664Y-104070833D02*
X160975569Y-104032738D01*
X160975569Y-104032738D02*
X160899378Y-103994642D01*
X160899378Y-103994642D02*
X160746997Y-103956547D01*
X160746997Y-103956547D02*
X160670807Y-103918452D01*
X160670807Y-103918452D02*
X160632712Y-103880357D01*
X160632712Y-103880357D02*
X160594616Y-103804166D01*
X160594616Y-103804166D02*
X160594616Y-103727976D01*
X160594616Y-103727976D02*
X160632712Y-103651785D01*
X160632712Y-103651785D02*
X160670807Y-103613690D01*
X160670807Y-103613690D02*
X160746997Y-103575595D01*
X160746997Y-103575595D02*
X160937474Y-103575595D01*
X160937474Y-103575595D02*
X161051759Y-103613690D01*
X161851760Y-104299404D02*
X161813664Y-104337500D01*
X161813664Y-104337500D02*
X161699379Y-104375595D01*
X161699379Y-104375595D02*
X161623188Y-104375595D01*
X161623188Y-104375595D02*
X161508902Y-104337500D01*
X161508902Y-104337500D02*
X161432712Y-104261309D01*
X161432712Y-104261309D02*
X161394617Y-104185119D01*
X161394617Y-104185119D02*
X161356521Y-104032738D01*
X161356521Y-104032738D02*
X161356521Y-103918452D01*
X161356521Y-103918452D02*
X161394617Y-103766071D01*
X161394617Y-103766071D02*
X161432712Y-103689880D01*
X161432712Y-103689880D02*
X161508902Y-103613690D01*
X161508902Y-103613690D02*
X161623188Y-103575595D01*
X161623188Y-103575595D02*
X161699379Y-103575595D01*
X161699379Y-103575595D02*
X161813664Y-103613690D01*
X161813664Y-103613690D02*
X161851760Y-103651785D01*
X162575569Y-104375595D02*
X162194617Y-104375595D01*
X162194617Y-104375595D02*
X162194617Y-103575595D01*
D15*
X120343852Y-84356928D02*
X120343852Y-82856928D01*
X120343852Y-82856928D02*
X120843852Y-83928357D01*
X120843852Y-83928357D02*
X121343852Y-82856928D01*
X121343852Y-82856928D02*
X121343852Y-84356928D01*
X122343853Y-82856928D02*
X122629567Y-82856928D01*
X122629567Y-82856928D02*
X122772424Y-82928357D01*
X122772424Y-82928357D02*
X122915281Y-83071214D01*
X122915281Y-83071214D02*
X122986710Y-83356928D01*
X122986710Y-83356928D02*
X122986710Y-83856928D01*
X122986710Y-83856928D02*
X122915281Y-84142642D01*
X122915281Y-84142642D02*
X122772424Y-84285500D01*
X122772424Y-84285500D02*
X122629567Y-84356928D01*
X122629567Y-84356928D02*
X122343853Y-84356928D01*
X122343853Y-84356928D02*
X122200996Y-84285500D01*
X122200996Y-84285500D02*
X122058138Y-84142642D01*
X122058138Y-84142642D02*
X121986710Y-83856928D01*
X121986710Y-83856928D02*
X121986710Y-83356928D01*
X121986710Y-83356928D02*
X122058138Y-83071214D01*
X122058138Y-83071214D02*
X122200996Y-82928357D01*
X122200996Y-82928357D02*
X122343853Y-82856928D01*
X123629567Y-84356928D02*
X123629567Y-82856928D01*
X123629567Y-82856928D02*
X124486710Y-84356928D01*
X124486710Y-84356928D02*
X124486710Y-82856928D01*
X125200996Y-84356928D02*
X125200996Y-82856928D01*
X125700997Y-82856928D02*
X126558140Y-82856928D01*
X126129568Y-84356928D02*
X126129568Y-82856928D01*
X127343854Y-82856928D02*
X127629568Y-82856928D01*
X127629568Y-82856928D02*
X127772425Y-82928357D01*
X127772425Y-82928357D02*
X127915282Y-83071214D01*
X127915282Y-83071214D02*
X127986711Y-83356928D01*
X127986711Y-83356928D02*
X127986711Y-83856928D01*
X127986711Y-83856928D02*
X127915282Y-84142642D01*
X127915282Y-84142642D02*
X127772425Y-84285500D01*
X127772425Y-84285500D02*
X127629568Y-84356928D01*
X127629568Y-84356928D02*
X127343854Y-84356928D01*
X127343854Y-84356928D02*
X127200997Y-84285500D01*
X127200997Y-84285500D02*
X127058139Y-84142642D01*
X127058139Y-84142642D02*
X126986711Y-83856928D01*
X126986711Y-83856928D02*
X126986711Y-83356928D01*
X126986711Y-83356928D02*
X127058139Y-83071214D01*
X127058139Y-83071214D02*
X127200997Y-82928357D01*
X127200997Y-82928357D02*
X127343854Y-82856928D01*
X129486711Y-84356928D02*
X128986711Y-83642642D01*
X128629568Y-84356928D02*
X128629568Y-82856928D01*
X128629568Y-82856928D02*
X129200997Y-82856928D01*
X129200997Y-82856928D02*
X129343854Y-82928357D01*
X129343854Y-82928357D02*
X129415283Y-82999785D01*
X129415283Y-82999785D02*
X129486711Y-83142642D01*
X129486711Y-83142642D02*
X129486711Y-83356928D01*
X129486711Y-83356928D02*
X129415283Y-83499785D01*
X129415283Y-83499785D02*
X129343854Y-83571214D01*
X129343854Y-83571214D02*
X129200997Y-83642642D01*
X129200997Y-83642642D02*
X128629568Y-83642642D01*
X131272425Y-84356928D02*
X131272425Y-82856928D01*
X131272425Y-82856928D02*
X131629568Y-82856928D01*
X131629568Y-82856928D02*
X131843854Y-82928357D01*
X131843854Y-82928357D02*
X131986711Y-83071214D01*
X131986711Y-83071214D02*
X132058140Y-83214071D01*
X132058140Y-83214071D02*
X132129568Y-83499785D01*
X132129568Y-83499785D02*
X132129568Y-83714071D01*
X132129568Y-83714071D02*
X132058140Y-83999785D01*
X132058140Y-83999785D02*
X131986711Y-84142642D01*
X131986711Y-84142642D02*
X131843854Y-84285500D01*
X131843854Y-84285500D02*
X131629568Y-84356928D01*
X131629568Y-84356928D02*
X131272425Y-84356928D01*
X132772425Y-83571214D02*
X133272425Y-83571214D01*
X133486711Y-84356928D02*
X132772425Y-84356928D01*
X132772425Y-84356928D02*
X132772425Y-82856928D01*
X132772425Y-82856928D02*
X133486711Y-82856928D01*
D14*
X155754819Y-127236666D02*
X155278628Y-127569999D01*
X155754819Y-127808094D02*
X154754819Y-127808094D01*
X154754819Y-127808094D02*
X154754819Y-127427142D01*
X154754819Y-127427142D02*
X154802438Y-127331904D01*
X154802438Y-127331904D02*
X154850057Y-127284285D01*
X154850057Y-127284285D02*
X154945295Y-127236666D01*
X154945295Y-127236666D02*
X155088152Y-127236666D01*
X155088152Y-127236666D02*
X155183390Y-127284285D01*
X155183390Y-127284285D02*
X155231009Y-127331904D01*
X155231009Y-127331904D02*
X155278628Y-127427142D01*
X155278628Y-127427142D02*
X155278628Y-127808094D01*
X155088152Y-126379523D02*
X155754819Y-126379523D01*
X154707200Y-126617618D02*
X155421485Y-126855713D01*
X155421485Y-126855713D02*
X155421485Y-126236666D01*
X155218152Y-125051904D02*
X155884819Y-125051904D01*
X154837200Y-125289999D02*
X155551485Y-125528094D01*
X155551485Y-125528094D02*
X155551485Y-124909047D01*
X154884819Y-124623332D02*
X154884819Y-123956666D01*
X154884819Y-123956666D02*
X155884819Y-124385237D01*
X154884819Y-123385237D02*
X154884819Y-123289999D01*
X154884819Y-123289999D02*
X154932438Y-123194761D01*
X154932438Y-123194761D02*
X154980057Y-123147142D01*
X154980057Y-123147142D02*
X155075295Y-123099523D01*
X155075295Y-123099523D02*
X155265771Y-123051904D01*
X155265771Y-123051904D02*
X155503866Y-123051904D01*
X155503866Y-123051904D02*
X155694342Y-123099523D01*
X155694342Y-123099523D02*
X155789580Y-123147142D01*
X155789580Y-123147142D02*
X155837200Y-123194761D01*
X155837200Y-123194761D02*
X155884819Y-123289999D01*
X155884819Y-123289999D02*
X155884819Y-123385237D01*
X155884819Y-123385237D02*
X155837200Y-123480475D01*
X155837200Y-123480475D02*
X155789580Y-123528094D01*
X155789580Y-123528094D02*
X155694342Y-123575713D01*
X155694342Y-123575713D02*
X155503866Y-123623332D01*
X155503866Y-123623332D02*
X155265771Y-123623332D01*
X155265771Y-123623332D02*
X155075295Y-123575713D01*
X155075295Y-123575713D02*
X154980057Y-123528094D01*
X154980057Y-123528094D02*
X154932438Y-123480475D01*
X154932438Y-123480475D02*
X154884819Y-123385237D01*
D15*
X93619567Y-149388357D02*
X93476710Y-149316928D01*
X93476710Y-149316928D02*
X93262424Y-149316928D01*
X93262424Y-149316928D02*
X93048138Y-149388357D01*
X93048138Y-149388357D02*
X92905281Y-149531214D01*
X92905281Y-149531214D02*
X92833852Y-149674071D01*
X92833852Y-149674071D02*
X92762424Y-149959785D01*
X92762424Y-149959785D02*
X92762424Y-150174071D01*
X92762424Y-150174071D02*
X92833852Y-150459785D01*
X92833852Y-150459785D02*
X92905281Y-150602642D01*
X92905281Y-150602642D02*
X93048138Y-150745500D01*
X93048138Y-150745500D02*
X93262424Y-150816928D01*
X93262424Y-150816928D02*
X93405281Y-150816928D01*
X93405281Y-150816928D02*
X93619567Y-150745500D01*
X93619567Y-150745500D02*
X93690995Y-150674071D01*
X93690995Y-150674071D02*
X93690995Y-150174071D01*
X93690995Y-150174071D02*
X93405281Y-150174071D01*
X94333852Y-150816928D02*
X94333852Y-149316928D01*
X94333852Y-149316928D02*
X95190995Y-150816928D01*
X95190995Y-150816928D02*
X95190995Y-149316928D01*
X95905281Y-150816928D02*
X95905281Y-149316928D01*
X95905281Y-149316928D02*
X96262424Y-149316928D01*
X96262424Y-149316928D02*
X96476710Y-149388357D01*
X96476710Y-149388357D02*
X96619567Y-149531214D01*
X96619567Y-149531214D02*
X96690996Y-149674071D01*
X96690996Y-149674071D02*
X96762424Y-149959785D01*
X96762424Y-149959785D02*
X96762424Y-150174071D01*
X96762424Y-150174071D02*
X96690996Y-150459785D01*
X96690996Y-150459785D02*
X96619567Y-150602642D01*
X96619567Y-150602642D02*
X96476710Y-150745500D01*
X96476710Y-150745500D02*
X96262424Y-150816928D01*
X96262424Y-150816928D02*
X95905281Y-150816928D01*
D14*
X103039580Y-109786666D02*
X103087200Y-109834285D01*
X103087200Y-109834285D02*
X103134819Y-109977142D01*
X103134819Y-109977142D02*
X103134819Y-110072380D01*
X103134819Y-110072380D02*
X103087200Y-110215237D01*
X103087200Y-110215237D02*
X102991961Y-110310475D01*
X102991961Y-110310475D02*
X102896723Y-110358094D01*
X102896723Y-110358094D02*
X102706247Y-110405713D01*
X102706247Y-110405713D02*
X102563390Y-110405713D01*
X102563390Y-110405713D02*
X102372914Y-110358094D01*
X102372914Y-110358094D02*
X102277676Y-110310475D01*
X102277676Y-110310475D02*
X102182438Y-110215237D01*
X102182438Y-110215237D02*
X102134819Y-110072380D01*
X102134819Y-110072380D02*
X102134819Y-109977142D01*
X102134819Y-109977142D02*
X102182438Y-109834285D01*
X102182438Y-109834285D02*
X102230057Y-109786666D01*
X103134819Y-109310475D02*
X103134819Y-109119999D01*
X103134819Y-109119999D02*
X103087200Y-109024761D01*
X103087200Y-109024761D02*
X103039580Y-108977142D01*
X103039580Y-108977142D02*
X102896723Y-108881904D01*
X102896723Y-108881904D02*
X102706247Y-108834285D01*
X102706247Y-108834285D02*
X102325295Y-108834285D01*
X102325295Y-108834285D02*
X102230057Y-108881904D01*
X102230057Y-108881904D02*
X102182438Y-108929523D01*
X102182438Y-108929523D02*
X102134819Y-109024761D01*
X102134819Y-109024761D02*
X102134819Y-109215237D01*
X102134819Y-109215237D02*
X102182438Y-109310475D01*
X102182438Y-109310475D02*
X102230057Y-109358094D01*
X102230057Y-109358094D02*
X102325295Y-109405713D01*
X102325295Y-109405713D02*
X102563390Y-109405713D01*
X102563390Y-109405713D02*
X102658628Y-109358094D01*
X102658628Y-109358094D02*
X102706247Y-109310475D01*
X102706247Y-109310475D02*
X102753866Y-109215237D01*
X102753866Y-109215237D02*
X102753866Y-109024761D01*
X102753866Y-109024761D02*
X102706247Y-108929523D01*
X102706247Y-108929523D02*
X102658628Y-108881904D01*
X102658628Y-108881904D02*
X102563390Y-108834285D01*
X143153333Y-84504819D02*
X142820000Y-84028628D01*
X142581905Y-84504819D02*
X142581905Y-83504819D01*
X142581905Y-83504819D02*
X142962857Y-83504819D01*
X142962857Y-83504819D02*
X143058095Y-83552438D01*
X143058095Y-83552438D02*
X143105714Y-83600057D01*
X143105714Y-83600057D02*
X143153333Y-83695295D01*
X143153333Y-83695295D02*
X143153333Y-83838152D01*
X143153333Y-83838152D02*
X143105714Y-83933390D01*
X143105714Y-83933390D02*
X143058095Y-83981009D01*
X143058095Y-83981009D02*
X142962857Y-84028628D01*
X142962857Y-84028628D02*
X142581905Y-84028628D01*
X144010476Y-83504819D02*
X143820000Y-83504819D01*
X143820000Y-83504819D02*
X143724762Y-83552438D01*
X143724762Y-83552438D02*
X143677143Y-83600057D01*
X143677143Y-83600057D02*
X143581905Y-83742914D01*
X143581905Y-83742914D02*
X143534286Y-83933390D01*
X143534286Y-83933390D02*
X143534286Y-84314342D01*
X143534286Y-84314342D02*
X143581905Y-84409580D01*
X143581905Y-84409580D02*
X143629524Y-84457200D01*
X143629524Y-84457200D02*
X143724762Y-84504819D01*
X143724762Y-84504819D02*
X143915238Y-84504819D01*
X143915238Y-84504819D02*
X144010476Y-84457200D01*
X144010476Y-84457200D02*
X144058095Y-84409580D01*
X144058095Y-84409580D02*
X144105714Y-84314342D01*
X144105714Y-84314342D02*
X144105714Y-84076247D01*
X144105714Y-84076247D02*
X144058095Y-83981009D01*
X144058095Y-83981009D02*
X144010476Y-83933390D01*
X144010476Y-83933390D02*
X143915238Y-83885771D01*
X143915238Y-83885771D02*
X143724762Y-83885771D01*
X143724762Y-83885771D02*
X143629524Y-83933390D01*
X143629524Y-83933390D02*
X143581905Y-83981009D01*
X143581905Y-83981009D02*
X143534286Y-84076247D01*
X167243333Y-82409580D02*
X167195714Y-82457200D01*
X167195714Y-82457200D02*
X167052857Y-82504819D01*
X167052857Y-82504819D02*
X166957619Y-82504819D01*
X166957619Y-82504819D02*
X166814762Y-82457200D01*
X166814762Y-82457200D02*
X166719524Y-82361961D01*
X166719524Y-82361961D02*
X166671905Y-82266723D01*
X166671905Y-82266723D02*
X166624286Y-82076247D01*
X166624286Y-82076247D02*
X166624286Y-81933390D01*
X166624286Y-81933390D02*
X166671905Y-81742914D01*
X166671905Y-81742914D02*
X166719524Y-81647676D01*
X166719524Y-81647676D02*
X166814762Y-81552438D01*
X166814762Y-81552438D02*
X166957619Y-81504819D01*
X166957619Y-81504819D02*
X167052857Y-81504819D01*
X167052857Y-81504819D02*
X167195714Y-81552438D01*
X167195714Y-81552438D02*
X167243333Y-81600057D01*
X168148095Y-81504819D02*
X167671905Y-81504819D01*
X167671905Y-81504819D02*
X167624286Y-81981009D01*
X167624286Y-81981009D02*
X167671905Y-81933390D01*
X167671905Y-81933390D02*
X167767143Y-81885771D01*
X167767143Y-81885771D02*
X168005238Y-81885771D01*
X168005238Y-81885771D02*
X168100476Y-81933390D01*
X168100476Y-81933390D02*
X168148095Y-81981009D01*
X168148095Y-81981009D02*
X168195714Y-82076247D01*
X168195714Y-82076247D02*
X168195714Y-82314342D01*
X168195714Y-82314342D02*
X168148095Y-82409580D01*
X168148095Y-82409580D02*
X168100476Y-82457200D01*
X168100476Y-82457200D02*
X168005238Y-82504819D01*
X168005238Y-82504819D02*
X167767143Y-82504819D01*
X167767143Y-82504819D02*
X167671905Y-82457200D01*
X167671905Y-82457200D02*
X167624286Y-82409580D01*
X184774819Y-64126666D02*
X184298628Y-64459999D01*
X184774819Y-64698094D02*
X183774819Y-64698094D01*
X183774819Y-64698094D02*
X183774819Y-64317142D01*
X183774819Y-64317142D02*
X183822438Y-64221904D01*
X183822438Y-64221904D02*
X183870057Y-64174285D01*
X183870057Y-64174285D02*
X183965295Y-64126666D01*
X183965295Y-64126666D02*
X184108152Y-64126666D01*
X184108152Y-64126666D02*
X184203390Y-64174285D01*
X184203390Y-64174285D02*
X184251009Y-64221904D01*
X184251009Y-64221904D02*
X184298628Y-64317142D01*
X184298628Y-64317142D02*
X184298628Y-64698094D01*
X183870057Y-63745713D02*
X183822438Y-63698094D01*
X183822438Y-63698094D02*
X183774819Y-63602856D01*
X183774819Y-63602856D02*
X183774819Y-63364761D01*
X183774819Y-63364761D02*
X183822438Y-63269523D01*
X183822438Y-63269523D02*
X183870057Y-63221904D01*
X183870057Y-63221904D02*
X183965295Y-63174285D01*
X183965295Y-63174285D02*
X184060533Y-63174285D01*
X184060533Y-63174285D02*
X184203390Y-63221904D01*
X184203390Y-63221904D02*
X184774819Y-63793332D01*
X184774819Y-63793332D02*
X184774819Y-63174285D01*
X184774819Y-61955238D02*
X184774819Y-62526666D01*
X184774819Y-62240952D02*
X183774819Y-62240952D01*
X183774819Y-62240952D02*
X183917676Y-62336190D01*
X183917676Y-62336190D02*
X184012914Y-62431428D01*
X184012914Y-62431428D02*
X184060533Y-62526666D01*
X183774819Y-61336190D02*
X183774819Y-61240952D01*
X183774819Y-61240952D02*
X183822438Y-61145714D01*
X183822438Y-61145714D02*
X183870057Y-61098095D01*
X183870057Y-61098095D02*
X183965295Y-61050476D01*
X183965295Y-61050476D02*
X184155771Y-61002857D01*
X184155771Y-61002857D02*
X184393866Y-61002857D01*
X184393866Y-61002857D02*
X184584342Y-61050476D01*
X184584342Y-61050476D02*
X184679580Y-61098095D01*
X184679580Y-61098095D02*
X184727200Y-61145714D01*
X184727200Y-61145714D02*
X184774819Y-61240952D01*
X184774819Y-61240952D02*
X184774819Y-61336190D01*
X184774819Y-61336190D02*
X184727200Y-61431428D01*
X184727200Y-61431428D02*
X184679580Y-61479047D01*
X184679580Y-61479047D02*
X184584342Y-61526666D01*
X184584342Y-61526666D02*
X184393866Y-61574285D01*
X184393866Y-61574285D02*
X184155771Y-61574285D01*
X184155771Y-61574285D02*
X183965295Y-61526666D01*
X183965295Y-61526666D02*
X183870057Y-61479047D01*
X183870057Y-61479047D02*
X183822438Y-61431428D01*
X183822438Y-61431428D02*
X183774819Y-61336190D01*
X184774819Y-60574285D02*
X183774819Y-60574285D01*
X184393866Y-60479047D02*
X184774819Y-60193333D01*
X184108152Y-60193333D02*
X184489104Y-60574285D01*
X179759580Y-64906666D02*
X179807200Y-64954285D01*
X179807200Y-64954285D02*
X179854819Y-65097142D01*
X179854819Y-65097142D02*
X179854819Y-65192380D01*
X179854819Y-65192380D02*
X179807200Y-65335237D01*
X179807200Y-65335237D02*
X179711961Y-65430475D01*
X179711961Y-65430475D02*
X179616723Y-65478094D01*
X179616723Y-65478094D02*
X179426247Y-65525713D01*
X179426247Y-65525713D02*
X179283390Y-65525713D01*
X179283390Y-65525713D02*
X179092914Y-65478094D01*
X179092914Y-65478094D02*
X178997676Y-65430475D01*
X178997676Y-65430475D02*
X178902438Y-65335237D01*
X178902438Y-65335237D02*
X178854819Y-65192380D01*
X178854819Y-65192380D02*
X178854819Y-65097142D01*
X178854819Y-65097142D02*
X178902438Y-64954285D01*
X178902438Y-64954285D02*
X178950057Y-64906666D01*
X178950057Y-64525713D02*
X178902438Y-64478094D01*
X178902438Y-64478094D02*
X178854819Y-64382856D01*
X178854819Y-64382856D02*
X178854819Y-64144761D01*
X178854819Y-64144761D02*
X178902438Y-64049523D01*
X178902438Y-64049523D02*
X178950057Y-64001904D01*
X178950057Y-64001904D02*
X179045295Y-63954285D01*
X179045295Y-63954285D02*
X179140533Y-63954285D01*
X179140533Y-63954285D02*
X179283390Y-64001904D01*
X179283390Y-64001904D02*
X179854819Y-64573332D01*
X179854819Y-64573332D02*
X179854819Y-63954285D01*
X179824819Y-62519047D02*
X179824819Y-63090475D01*
X179824819Y-62804761D02*
X178824819Y-62804761D01*
X178824819Y-62804761D02*
X178967676Y-62899999D01*
X178967676Y-62899999D02*
X179062914Y-62995237D01*
X179062914Y-62995237D02*
X179110533Y-63090475D01*
X178824819Y-61899999D02*
X178824819Y-61804761D01*
X178824819Y-61804761D02*
X178872438Y-61709523D01*
X178872438Y-61709523D02*
X178920057Y-61661904D01*
X178920057Y-61661904D02*
X179015295Y-61614285D01*
X179015295Y-61614285D02*
X179205771Y-61566666D01*
X179205771Y-61566666D02*
X179443866Y-61566666D01*
X179443866Y-61566666D02*
X179634342Y-61614285D01*
X179634342Y-61614285D02*
X179729580Y-61661904D01*
X179729580Y-61661904D02*
X179777200Y-61709523D01*
X179777200Y-61709523D02*
X179824819Y-61804761D01*
X179824819Y-61804761D02*
X179824819Y-61899999D01*
X179824819Y-61899999D02*
X179777200Y-61995237D01*
X179777200Y-61995237D02*
X179729580Y-62042856D01*
X179729580Y-62042856D02*
X179634342Y-62090475D01*
X179634342Y-62090475D02*
X179443866Y-62138094D01*
X179443866Y-62138094D02*
X179205771Y-62138094D01*
X179205771Y-62138094D02*
X179015295Y-62090475D01*
X179015295Y-62090475D02*
X178920057Y-62042856D01*
X178920057Y-62042856D02*
X178872438Y-61995237D01*
X178872438Y-61995237D02*
X178824819Y-61899999D01*
X178824819Y-60947618D02*
X178824819Y-60852380D01*
X178824819Y-60852380D02*
X178872438Y-60757142D01*
X178872438Y-60757142D02*
X178920057Y-60709523D01*
X178920057Y-60709523D02*
X179015295Y-60661904D01*
X179015295Y-60661904D02*
X179205771Y-60614285D01*
X179205771Y-60614285D02*
X179443866Y-60614285D01*
X179443866Y-60614285D02*
X179634342Y-60661904D01*
X179634342Y-60661904D02*
X179729580Y-60709523D01*
X179729580Y-60709523D02*
X179777200Y-60757142D01*
X179777200Y-60757142D02*
X179824819Y-60852380D01*
X179824819Y-60852380D02*
X179824819Y-60947618D01*
X179824819Y-60947618D02*
X179777200Y-61042856D01*
X179777200Y-61042856D02*
X179729580Y-61090475D01*
X179729580Y-61090475D02*
X179634342Y-61138094D01*
X179634342Y-61138094D02*
X179443866Y-61185713D01*
X179443866Y-61185713D02*
X179205771Y-61185713D01*
X179205771Y-61185713D02*
X179015295Y-61138094D01*
X179015295Y-61138094D02*
X178920057Y-61090475D01*
X178920057Y-61090475D02*
X178872438Y-61042856D01*
X178872438Y-61042856D02*
X178824819Y-60947618D01*
X179158152Y-60185713D02*
X179824819Y-60185713D01*
X179253390Y-60185713D02*
X179205771Y-60138094D01*
X179205771Y-60138094D02*
X179158152Y-60042856D01*
X179158152Y-60042856D02*
X179158152Y-59899999D01*
X179158152Y-59899999D02*
X179205771Y-59804761D01*
X179205771Y-59804761D02*
X179301009Y-59757142D01*
X179301009Y-59757142D02*
X179824819Y-59757142D01*
X179664819Y-38266666D02*
X179188628Y-38599999D01*
X179664819Y-38838094D02*
X178664819Y-38838094D01*
X178664819Y-38838094D02*
X178664819Y-38457142D01*
X178664819Y-38457142D02*
X178712438Y-38361904D01*
X178712438Y-38361904D02*
X178760057Y-38314285D01*
X178760057Y-38314285D02*
X178855295Y-38266666D01*
X178855295Y-38266666D02*
X178998152Y-38266666D01*
X178998152Y-38266666D02*
X179093390Y-38314285D01*
X179093390Y-38314285D02*
X179141009Y-38361904D01*
X179141009Y-38361904D02*
X179188628Y-38457142D01*
X179188628Y-38457142D02*
X179188628Y-38838094D01*
X178664819Y-37933332D02*
X178664819Y-37314285D01*
X178664819Y-37314285D02*
X179045771Y-37647618D01*
X179045771Y-37647618D02*
X179045771Y-37504761D01*
X179045771Y-37504761D02*
X179093390Y-37409523D01*
X179093390Y-37409523D02*
X179141009Y-37361904D01*
X179141009Y-37361904D02*
X179236247Y-37314285D01*
X179236247Y-37314285D02*
X179474342Y-37314285D01*
X179474342Y-37314285D02*
X179569580Y-37361904D01*
X179569580Y-37361904D02*
X179617200Y-37409523D01*
X179617200Y-37409523D02*
X179664819Y-37504761D01*
X179664819Y-37504761D02*
X179664819Y-37790475D01*
X179664819Y-37790475D02*
X179617200Y-37885713D01*
X179617200Y-37885713D02*
X179569580Y-37933332D01*
X179594819Y-35999047D02*
X179594819Y-36570475D01*
X179594819Y-36284761D02*
X178594819Y-36284761D01*
X178594819Y-36284761D02*
X178737676Y-36379999D01*
X178737676Y-36379999D02*
X178832914Y-36475237D01*
X178832914Y-36475237D02*
X178880533Y-36570475D01*
X179594819Y-35570475D02*
X178594819Y-35570475D01*
X179213866Y-35475237D02*
X179594819Y-35189523D01*
X178928152Y-35189523D02*
X179309104Y-35570475D01*
X143133333Y-92244819D02*
X142800000Y-91768628D01*
X142561905Y-92244819D02*
X142561905Y-91244819D01*
X142561905Y-91244819D02*
X142942857Y-91244819D01*
X142942857Y-91244819D02*
X143038095Y-91292438D01*
X143038095Y-91292438D02*
X143085714Y-91340057D01*
X143085714Y-91340057D02*
X143133333Y-91435295D01*
X143133333Y-91435295D02*
X143133333Y-91578152D01*
X143133333Y-91578152D02*
X143085714Y-91673390D01*
X143085714Y-91673390D02*
X143038095Y-91721009D01*
X143038095Y-91721009D02*
X142942857Y-91768628D01*
X142942857Y-91768628D02*
X142561905Y-91768628D01*
X143466667Y-91244819D02*
X144133333Y-91244819D01*
X144133333Y-91244819D02*
X143704762Y-92244819D01*
X112879580Y-109666666D02*
X112927200Y-109714285D01*
X112927200Y-109714285D02*
X112974819Y-109857142D01*
X112974819Y-109857142D02*
X112974819Y-109952380D01*
X112974819Y-109952380D02*
X112927200Y-110095237D01*
X112927200Y-110095237D02*
X112831961Y-110190475D01*
X112831961Y-110190475D02*
X112736723Y-110238094D01*
X112736723Y-110238094D02*
X112546247Y-110285713D01*
X112546247Y-110285713D02*
X112403390Y-110285713D01*
X112403390Y-110285713D02*
X112212914Y-110238094D01*
X112212914Y-110238094D02*
X112117676Y-110190475D01*
X112117676Y-110190475D02*
X112022438Y-110095237D01*
X112022438Y-110095237D02*
X111974819Y-109952380D01*
X111974819Y-109952380D02*
X111974819Y-109857142D01*
X111974819Y-109857142D02*
X112022438Y-109714285D01*
X112022438Y-109714285D02*
X112070057Y-109666666D01*
X111974819Y-108809523D02*
X111974819Y-108999999D01*
X111974819Y-108999999D02*
X112022438Y-109095237D01*
X112022438Y-109095237D02*
X112070057Y-109142856D01*
X112070057Y-109142856D02*
X112212914Y-109238094D01*
X112212914Y-109238094D02*
X112403390Y-109285713D01*
X112403390Y-109285713D02*
X112784342Y-109285713D01*
X112784342Y-109285713D02*
X112879580Y-109238094D01*
X112879580Y-109238094D02*
X112927200Y-109190475D01*
X112927200Y-109190475D02*
X112974819Y-109095237D01*
X112974819Y-109095237D02*
X112974819Y-108904761D01*
X112974819Y-108904761D02*
X112927200Y-108809523D01*
X112927200Y-108809523D02*
X112879580Y-108761904D01*
X112879580Y-108761904D02*
X112784342Y-108714285D01*
X112784342Y-108714285D02*
X112546247Y-108714285D01*
X112546247Y-108714285D02*
X112451009Y-108761904D01*
X112451009Y-108761904D02*
X112403390Y-108809523D01*
X112403390Y-108809523D02*
X112355771Y-108904761D01*
X112355771Y-108904761D02*
X112355771Y-109095237D01*
X112355771Y-109095237D02*
X112403390Y-109190475D01*
X112403390Y-109190475D02*
X112451009Y-109238094D01*
X112451009Y-109238094D02*
X112546247Y-109285713D01*
X160979580Y-116716666D02*
X161027200Y-116764285D01*
X161027200Y-116764285D02*
X161074819Y-116907142D01*
X161074819Y-116907142D02*
X161074819Y-117002380D01*
X161074819Y-117002380D02*
X161027200Y-117145237D01*
X161027200Y-117145237D02*
X160931961Y-117240475D01*
X160931961Y-117240475D02*
X160836723Y-117288094D01*
X160836723Y-117288094D02*
X160646247Y-117335713D01*
X160646247Y-117335713D02*
X160503390Y-117335713D01*
X160503390Y-117335713D02*
X160312914Y-117288094D01*
X160312914Y-117288094D02*
X160217676Y-117240475D01*
X160217676Y-117240475D02*
X160122438Y-117145237D01*
X160122438Y-117145237D02*
X160074819Y-117002380D01*
X160074819Y-117002380D02*
X160074819Y-116907142D01*
X160074819Y-116907142D02*
X160122438Y-116764285D01*
X160122438Y-116764285D02*
X160170057Y-116716666D01*
X160503390Y-116145237D02*
X160455771Y-116240475D01*
X160455771Y-116240475D02*
X160408152Y-116288094D01*
X160408152Y-116288094D02*
X160312914Y-116335713D01*
X160312914Y-116335713D02*
X160265295Y-116335713D01*
X160265295Y-116335713D02*
X160170057Y-116288094D01*
X160170057Y-116288094D02*
X160122438Y-116240475D01*
X160122438Y-116240475D02*
X160074819Y-116145237D01*
X160074819Y-116145237D02*
X160074819Y-115954761D01*
X160074819Y-115954761D02*
X160122438Y-115859523D01*
X160122438Y-115859523D02*
X160170057Y-115811904D01*
X160170057Y-115811904D02*
X160265295Y-115764285D01*
X160265295Y-115764285D02*
X160312914Y-115764285D01*
X160312914Y-115764285D02*
X160408152Y-115811904D01*
X160408152Y-115811904D02*
X160455771Y-115859523D01*
X160455771Y-115859523D02*
X160503390Y-115954761D01*
X160503390Y-115954761D02*
X160503390Y-116145237D01*
X160503390Y-116145237D02*
X160551009Y-116240475D01*
X160551009Y-116240475D02*
X160598628Y-116288094D01*
X160598628Y-116288094D02*
X160693866Y-116335713D01*
X160693866Y-116335713D02*
X160884342Y-116335713D01*
X160884342Y-116335713D02*
X160979580Y-116288094D01*
X160979580Y-116288094D02*
X161027200Y-116240475D01*
X161027200Y-116240475D02*
X161074819Y-116145237D01*
X161074819Y-116145237D02*
X161074819Y-115954761D01*
X161074819Y-115954761D02*
X161027200Y-115859523D01*
X161027200Y-115859523D02*
X160979580Y-115811904D01*
X160979580Y-115811904D02*
X160884342Y-115764285D01*
X160884342Y-115764285D02*
X160693866Y-115764285D01*
X160693866Y-115764285D02*
X160598628Y-115811904D01*
X160598628Y-115811904D02*
X160551009Y-115859523D01*
X160551009Y-115859523D02*
X160503390Y-115954761D01*
D15*
X101933852Y-130135500D02*
X103076710Y-130135500D01*
X102505281Y-130706928D02*
X102505281Y-129564071D01*
X104505281Y-129206928D02*
X103790995Y-129206928D01*
X103790995Y-129206928D02*
X103719567Y-129921214D01*
X103719567Y-129921214D02*
X103790995Y-129849785D01*
X103790995Y-129849785D02*
X103933853Y-129778357D01*
X103933853Y-129778357D02*
X104290995Y-129778357D01*
X104290995Y-129778357D02*
X104433853Y-129849785D01*
X104433853Y-129849785D02*
X104505281Y-129921214D01*
X104505281Y-129921214D02*
X104576710Y-130064071D01*
X104576710Y-130064071D02*
X104576710Y-130421214D01*
X104576710Y-130421214D02*
X104505281Y-130564071D01*
X104505281Y-130564071D02*
X104433853Y-130635500D01*
X104433853Y-130635500D02*
X104290995Y-130706928D01*
X104290995Y-130706928D02*
X103933853Y-130706928D01*
X103933853Y-130706928D02*
X103790995Y-130635500D01*
X103790995Y-130635500D02*
X103719567Y-130564071D01*
X105005281Y-129206928D02*
X105505281Y-130706928D01*
X105505281Y-130706928D02*
X106005281Y-129206928D01*
D14*
X179869580Y-51216666D02*
X179917200Y-51264285D01*
X179917200Y-51264285D02*
X179964819Y-51407142D01*
X179964819Y-51407142D02*
X179964819Y-51502380D01*
X179964819Y-51502380D02*
X179917200Y-51645237D01*
X179917200Y-51645237D02*
X179821961Y-51740475D01*
X179821961Y-51740475D02*
X179726723Y-51788094D01*
X179726723Y-51788094D02*
X179536247Y-51835713D01*
X179536247Y-51835713D02*
X179393390Y-51835713D01*
X179393390Y-51835713D02*
X179202914Y-51788094D01*
X179202914Y-51788094D02*
X179107676Y-51740475D01*
X179107676Y-51740475D02*
X179012438Y-51645237D01*
X179012438Y-51645237D02*
X178964819Y-51502380D01*
X178964819Y-51502380D02*
X178964819Y-51407142D01*
X178964819Y-51407142D02*
X179012438Y-51264285D01*
X179012438Y-51264285D02*
X179060057Y-51216666D01*
X179964819Y-50264285D02*
X179964819Y-50835713D01*
X179964819Y-50549999D02*
X178964819Y-50549999D01*
X178964819Y-50549999D02*
X179107676Y-50645237D01*
X179107676Y-50645237D02*
X179202914Y-50740475D01*
X179202914Y-50740475D02*
X179250533Y-50835713D01*
X179944819Y-48539047D02*
X179944819Y-49110475D01*
X179944819Y-48824761D02*
X178944819Y-48824761D01*
X178944819Y-48824761D02*
X179087676Y-48919999D01*
X179087676Y-48919999D02*
X179182914Y-49015237D01*
X179182914Y-49015237D02*
X179230533Y-49110475D01*
X178944819Y-47919999D02*
X178944819Y-47824761D01*
X178944819Y-47824761D02*
X178992438Y-47729523D01*
X178992438Y-47729523D02*
X179040057Y-47681904D01*
X179040057Y-47681904D02*
X179135295Y-47634285D01*
X179135295Y-47634285D02*
X179325771Y-47586666D01*
X179325771Y-47586666D02*
X179563866Y-47586666D01*
X179563866Y-47586666D02*
X179754342Y-47634285D01*
X179754342Y-47634285D02*
X179849580Y-47681904D01*
X179849580Y-47681904D02*
X179897200Y-47729523D01*
X179897200Y-47729523D02*
X179944819Y-47824761D01*
X179944819Y-47824761D02*
X179944819Y-47919999D01*
X179944819Y-47919999D02*
X179897200Y-48015237D01*
X179897200Y-48015237D02*
X179849580Y-48062856D01*
X179849580Y-48062856D02*
X179754342Y-48110475D01*
X179754342Y-48110475D02*
X179563866Y-48158094D01*
X179563866Y-48158094D02*
X179325771Y-48158094D01*
X179325771Y-48158094D02*
X179135295Y-48110475D01*
X179135295Y-48110475D02*
X179040057Y-48062856D01*
X179040057Y-48062856D02*
X178992438Y-48015237D01*
X178992438Y-48015237D02*
X178944819Y-47919999D01*
X178944819Y-46967618D02*
X178944819Y-46872380D01*
X178944819Y-46872380D02*
X178992438Y-46777142D01*
X178992438Y-46777142D02*
X179040057Y-46729523D01*
X179040057Y-46729523D02*
X179135295Y-46681904D01*
X179135295Y-46681904D02*
X179325771Y-46634285D01*
X179325771Y-46634285D02*
X179563866Y-46634285D01*
X179563866Y-46634285D02*
X179754342Y-46681904D01*
X179754342Y-46681904D02*
X179849580Y-46729523D01*
X179849580Y-46729523D02*
X179897200Y-46777142D01*
X179897200Y-46777142D02*
X179944819Y-46872380D01*
X179944819Y-46872380D02*
X179944819Y-46967618D01*
X179944819Y-46967618D02*
X179897200Y-47062856D01*
X179897200Y-47062856D02*
X179849580Y-47110475D01*
X179849580Y-47110475D02*
X179754342Y-47158094D01*
X179754342Y-47158094D02*
X179563866Y-47205713D01*
X179563866Y-47205713D02*
X179325771Y-47205713D01*
X179325771Y-47205713D02*
X179135295Y-47158094D01*
X179135295Y-47158094D02*
X179040057Y-47110475D01*
X179040057Y-47110475D02*
X178992438Y-47062856D01*
X178992438Y-47062856D02*
X178944819Y-46967618D01*
X179278152Y-46205713D02*
X179944819Y-46205713D01*
X179373390Y-46205713D02*
X179325771Y-46158094D01*
X179325771Y-46158094D02*
X179278152Y-46062856D01*
X179278152Y-46062856D02*
X179278152Y-45919999D01*
X179278152Y-45919999D02*
X179325771Y-45824761D01*
X179325771Y-45824761D02*
X179421009Y-45777142D01*
X179421009Y-45777142D02*
X179944819Y-45777142D01*
X105769129Y-146087302D02*
X105816749Y-146134921D01*
X105816749Y-146134921D02*
X105864368Y-146277778D01*
X105864368Y-146277778D02*
X105864368Y-146373016D01*
X105864368Y-146373016D02*
X105816749Y-146515873D01*
X105816749Y-146515873D02*
X105721510Y-146611111D01*
X105721510Y-146611111D02*
X105626272Y-146658730D01*
X105626272Y-146658730D02*
X105435796Y-146706349D01*
X105435796Y-146706349D02*
X105292939Y-146706349D01*
X105292939Y-146706349D02*
X105102463Y-146658730D01*
X105102463Y-146658730D02*
X105007225Y-146611111D01*
X105007225Y-146611111D02*
X104911987Y-146515873D01*
X104911987Y-146515873D02*
X104864368Y-146373016D01*
X104864368Y-146373016D02*
X104864368Y-146277778D01*
X104864368Y-146277778D02*
X104911987Y-146134921D01*
X104911987Y-146134921D02*
X104959606Y-146087302D01*
X105197701Y-145230159D02*
X105864368Y-145230159D01*
X104816749Y-145468254D02*
X105531034Y-145706349D01*
X105531034Y-145706349D02*
X105531034Y-145087302D01*
X106537701Y-146218731D02*
X107204368Y-146218731D01*
X106156749Y-146456826D02*
X106871034Y-146694921D01*
X106871034Y-146694921D02*
X106871034Y-146075874D01*
X106204368Y-145790159D02*
X106204368Y-145123493D01*
X106204368Y-145123493D02*
X107204368Y-145552064D01*
X106537701Y-144313969D02*
X107204368Y-144313969D01*
X106537701Y-144742540D02*
X107061510Y-144742540D01*
X107061510Y-144742540D02*
X107156749Y-144694921D01*
X107156749Y-144694921D02*
X107204368Y-144599683D01*
X107204368Y-144599683D02*
X107204368Y-144456826D01*
X107204368Y-144456826D02*
X107156749Y-144361588D01*
X107156749Y-144361588D02*
X107109129Y-144313969D01*
X108092882Y-152260216D02*
X108045263Y-152307836D01*
X108045263Y-152307836D02*
X107902406Y-152355455D01*
X107902406Y-152355455D02*
X107807168Y-152355455D01*
X107807168Y-152355455D02*
X107664311Y-152307836D01*
X107664311Y-152307836D02*
X107569073Y-152212597D01*
X107569073Y-152212597D02*
X107521454Y-152117359D01*
X107521454Y-152117359D02*
X107473835Y-151926883D01*
X107473835Y-151926883D02*
X107473835Y-151784026D01*
X107473835Y-151784026D02*
X107521454Y-151593550D01*
X107521454Y-151593550D02*
X107569073Y-151498312D01*
X107569073Y-151498312D02*
X107664311Y-151403074D01*
X107664311Y-151403074D02*
X107807168Y-151355455D01*
X107807168Y-151355455D02*
X107902406Y-151355455D01*
X107902406Y-151355455D02*
X108045263Y-151403074D01*
X108045263Y-151403074D02*
X108092882Y-151450693D01*
X108426216Y-151355455D02*
X109045263Y-151355455D01*
X109045263Y-151355455D02*
X108711930Y-151736407D01*
X108711930Y-151736407D02*
X108854787Y-151736407D01*
X108854787Y-151736407D02*
X108950025Y-151784026D01*
X108950025Y-151784026D02*
X108997644Y-151831645D01*
X108997644Y-151831645D02*
X109045263Y-151926883D01*
X109045263Y-151926883D02*
X109045263Y-152164978D01*
X109045263Y-152164978D02*
X108997644Y-152260216D01*
X108997644Y-152260216D02*
X108950025Y-152307836D01*
X108950025Y-152307836D02*
X108854787Y-152355455D01*
X108854787Y-152355455D02*
X108569073Y-152355455D01*
X108569073Y-152355455D02*
X108473835Y-152307836D01*
X108473835Y-152307836D02*
X108426216Y-152260216D01*
X110570501Y-152355455D02*
X109999073Y-152355455D01*
X110284787Y-152355455D02*
X110284787Y-151355455D01*
X110284787Y-151355455D02*
X110189549Y-151498312D01*
X110189549Y-151498312D02*
X110094311Y-151593550D01*
X110094311Y-151593550D02*
X109999073Y-151641169D01*
X111189549Y-151355455D02*
X111284787Y-151355455D01*
X111284787Y-151355455D02*
X111380025Y-151403074D01*
X111380025Y-151403074D02*
X111427644Y-151450693D01*
X111427644Y-151450693D02*
X111475263Y-151545931D01*
X111475263Y-151545931D02*
X111522882Y-151736407D01*
X111522882Y-151736407D02*
X111522882Y-151974502D01*
X111522882Y-151974502D02*
X111475263Y-152164978D01*
X111475263Y-152164978D02*
X111427644Y-152260216D01*
X111427644Y-152260216D02*
X111380025Y-152307836D01*
X111380025Y-152307836D02*
X111284787Y-152355455D01*
X111284787Y-152355455D02*
X111189549Y-152355455D01*
X111189549Y-152355455D02*
X111094311Y-152307836D01*
X111094311Y-152307836D02*
X111046692Y-152260216D01*
X111046692Y-152260216D02*
X110999073Y-152164978D01*
X110999073Y-152164978D02*
X110951454Y-151974502D01*
X110951454Y-151974502D02*
X110951454Y-151736407D01*
X110951454Y-151736407D02*
X110999073Y-151545931D01*
X110999073Y-151545931D02*
X111046692Y-151450693D01*
X111046692Y-151450693D02*
X111094311Y-151403074D01*
X111094311Y-151403074D02*
X111189549Y-151355455D01*
X112141930Y-151355455D02*
X112237168Y-151355455D01*
X112237168Y-151355455D02*
X112332406Y-151403074D01*
X112332406Y-151403074D02*
X112380025Y-151450693D01*
X112380025Y-151450693D02*
X112427644Y-151545931D01*
X112427644Y-151545931D02*
X112475263Y-151736407D01*
X112475263Y-151736407D02*
X112475263Y-151974502D01*
X112475263Y-151974502D02*
X112427644Y-152164978D01*
X112427644Y-152164978D02*
X112380025Y-152260216D01*
X112380025Y-152260216D02*
X112332406Y-152307836D01*
X112332406Y-152307836D02*
X112237168Y-152355455D01*
X112237168Y-152355455D02*
X112141930Y-152355455D01*
X112141930Y-152355455D02*
X112046692Y-152307836D01*
X112046692Y-152307836D02*
X111999073Y-152260216D01*
X111999073Y-152260216D02*
X111951454Y-152164978D01*
X111951454Y-152164978D02*
X111903835Y-151974502D01*
X111903835Y-151974502D02*
X111903835Y-151736407D01*
X111903835Y-151736407D02*
X111951454Y-151545931D01*
X111951454Y-151545931D02*
X111999073Y-151450693D01*
X111999073Y-151450693D02*
X112046692Y-151403074D01*
X112046692Y-151403074D02*
X112141930Y-151355455D01*
X112903835Y-151688788D02*
X112903835Y-152355455D01*
X112903835Y-151784026D02*
X112951454Y-151736407D01*
X112951454Y-151736407D02*
X113046692Y-151688788D01*
X113046692Y-151688788D02*
X113189549Y-151688788D01*
X113189549Y-151688788D02*
X113284787Y-151736407D01*
X113284787Y-151736407D02*
X113332406Y-151831645D01*
X113332406Y-151831645D02*
X113332406Y-152355455D01*
X150684785Y-127162542D02*
X150208594Y-127495875D01*
X150684785Y-127733970D02*
X149684785Y-127733970D01*
X149684785Y-127733970D02*
X149684785Y-127353018D01*
X149684785Y-127353018D02*
X149732404Y-127257780D01*
X149732404Y-127257780D02*
X149780023Y-127210161D01*
X149780023Y-127210161D02*
X149875261Y-127162542D01*
X149875261Y-127162542D02*
X150018118Y-127162542D01*
X150018118Y-127162542D02*
X150113356Y-127210161D01*
X150113356Y-127210161D02*
X150160975Y-127257780D01*
X150160975Y-127257780D02*
X150208594Y-127353018D01*
X150208594Y-127353018D02*
X150208594Y-127733970D01*
X149684785Y-126257780D02*
X149684785Y-126733970D01*
X149684785Y-126733970D02*
X150160975Y-126781589D01*
X150160975Y-126781589D02*
X150113356Y-126733970D01*
X150113356Y-126733970D02*
X150065737Y-126638732D01*
X150065737Y-126638732D02*
X150065737Y-126400637D01*
X150065737Y-126400637D02*
X150113356Y-126305399D01*
X150113356Y-126305399D02*
X150160975Y-126257780D01*
X150160975Y-126257780D02*
X150256213Y-126210161D01*
X150256213Y-126210161D02*
X150494308Y-126210161D01*
X150494308Y-126210161D02*
X150589546Y-126257780D01*
X150589546Y-126257780D02*
X150637166Y-126305399D01*
X150637166Y-126305399D02*
X150684785Y-126400637D01*
X150684785Y-126400637D02*
X150684785Y-126638732D01*
X150684785Y-126638732D02*
X150637166Y-126733970D01*
X150637166Y-126733970D02*
X150589546Y-126781589D01*
X135333333Y-30149580D02*
X135285714Y-30197200D01*
X135285714Y-30197200D02*
X135142857Y-30244819D01*
X135142857Y-30244819D02*
X135047619Y-30244819D01*
X135047619Y-30244819D02*
X134904762Y-30197200D01*
X134904762Y-30197200D02*
X134809524Y-30101961D01*
X134809524Y-30101961D02*
X134761905Y-30006723D01*
X134761905Y-30006723D02*
X134714286Y-29816247D01*
X134714286Y-29816247D02*
X134714286Y-29673390D01*
X134714286Y-29673390D02*
X134761905Y-29482914D01*
X134761905Y-29482914D02*
X134809524Y-29387676D01*
X134809524Y-29387676D02*
X134904762Y-29292438D01*
X134904762Y-29292438D02*
X135047619Y-29244819D01*
X135047619Y-29244819D02*
X135142857Y-29244819D01*
X135142857Y-29244819D02*
X135285714Y-29292438D01*
X135285714Y-29292438D02*
X135333333Y-29340057D01*
X135666667Y-29244819D02*
X136333333Y-29244819D01*
X136333333Y-29244819D02*
X135904762Y-30244819D01*
X201761009Y-41520952D02*
X201808628Y-41378095D01*
X201808628Y-41378095D02*
X201856247Y-41330476D01*
X201856247Y-41330476D02*
X201951485Y-41282857D01*
X201951485Y-41282857D02*
X202094342Y-41282857D01*
X202094342Y-41282857D02*
X202189580Y-41330476D01*
X202189580Y-41330476D02*
X202237200Y-41378095D01*
X202237200Y-41378095D02*
X202284819Y-41473333D01*
X202284819Y-41473333D02*
X202284819Y-41854285D01*
X202284819Y-41854285D02*
X201284819Y-41854285D01*
X201284819Y-41854285D02*
X201284819Y-41520952D01*
X201284819Y-41520952D02*
X201332438Y-41425714D01*
X201332438Y-41425714D02*
X201380057Y-41378095D01*
X201380057Y-41378095D02*
X201475295Y-41330476D01*
X201475295Y-41330476D02*
X201570533Y-41330476D01*
X201570533Y-41330476D02*
X201665771Y-41378095D01*
X201665771Y-41378095D02*
X201713390Y-41425714D01*
X201713390Y-41425714D02*
X201761009Y-41520952D01*
X201761009Y-41520952D02*
X201761009Y-41854285D01*
X201284819Y-40949523D02*
X201284819Y-40282857D01*
X201284819Y-40282857D02*
X202284819Y-40949523D01*
X202284819Y-40949523D02*
X202284819Y-40282857D01*
X202284819Y-39378095D02*
X202284819Y-39949523D01*
X202284819Y-39663809D02*
X201284819Y-39663809D01*
X201284819Y-39663809D02*
X201427676Y-39759047D01*
X201427676Y-39759047D02*
X201522914Y-39854285D01*
X201522914Y-39854285D02*
X201570533Y-39949523D01*
X198463290Y-32575178D02*
X198463290Y-31813274D01*
X198844243Y-32194226D02*
X198082338Y-32194226D01*
X186405224Y-40604284D02*
X186309986Y-40556665D01*
X186309986Y-40556665D02*
X186214748Y-40461427D01*
X186214748Y-40461427D02*
X186071891Y-40318569D01*
X186071891Y-40318569D02*
X185976653Y-40270950D01*
X185976653Y-40270950D02*
X185881415Y-40270950D01*
X185929034Y-40509046D02*
X185833796Y-40461427D01*
X185833796Y-40461427D02*
X185738558Y-40366188D01*
X185738558Y-40366188D02*
X185690939Y-40175712D01*
X185690939Y-40175712D02*
X185690939Y-39842379D01*
X185690939Y-39842379D02*
X185738558Y-39651903D01*
X185738558Y-39651903D02*
X185833796Y-39556665D01*
X185833796Y-39556665D02*
X185929034Y-39509046D01*
X185929034Y-39509046D02*
X186119510Y-39509046D01*
X186119510Y-39509046D02*
X186214748Y-39556665D01*
X186214748Y-39556665D02*
X186309986Y-39651903D01*
X186309986Y-39651903D02*
X186357605Y-39842379D01*
X186357605Y-39842379D02*
X186357605Y-40175712D01*
X186357605Y-40175712D02*
X186309986Y-40366188D01*
X186309986Y-40366188D02*
X186214748Y-40461427D01*
X186214748Y-40461427D02*
X186119510Y-40509046D01*
X186119510Y-40509046D02*
X185929034Y-40509046D01*
X187309986Y-40509046D02*
X186738558Y-40509046D01*
X187024272Y-40509046D02*
X187024272Y-39509046D01*
X187024272Y-39509046D02*
X186929034Y-39651903D01*
X186929034Y-39651903D02*
X186833796Y-39747141D01*
X186833796Y-39747141D02*
X186738558Y-39794760D01*
X107754819Y-111968094D02*
X106754819Y-111968094D01*
X106754819Y-111968094D02*
X106754819Y-111729999D01*
X106754819Y-111729999D02*
X106802438Y-111587142D01*
X106802438Y-111587142D02*
X106897676Y-111491904D01*
X106897676Y-111491904D02*
X106992914Y-111444285D01*
X106992914Y-111444285D02*
X107183390Y-111396666D01*
X107183390Y-111396666D02*
X107326247Y-111396666D01*
X107326247Y-111396666D02*
X107516723Y-111444285D01*
X107516723Y-111444285D02*
X107611961Y-111491904D01*
X107611961Y-111491904D02*
X107707200Y-111587142D01*
X107707200Y-111587142D02*
X107754819Y-111729999D01*
X107754819Y-111729999D02*
X107754819Y-111968094D01*
X107754819Y-110444285D02*
X107754819Y-111015713D01*
X107754819Y-110729999D02*
X106754819Y-110729999D01*
X106754819Y-110729999D02*
X106897676Y-110825237D01*
X106897676Y-110825237D02*
X106992914Y-110920475D01*
X106992914Y-110920475D02*
X107040533Y-111015713D01*
X184744819Y-49946666D02*
X184268628Y-50279999D01*
X184744819Y-50518094D02*
X183744819Y-50518094D01*
X183744819Y-50518094D02*
X183744819Y-50137142D01*
X183744819Y-50137142D02*
X183792438Y-50041904D01*
X183792438Y-50041904D02*
X183840057Y-49994285D01*
X183840057Y-49994285D02*
X183935295Y-49946666D01*
X183935295Y-49946666D02*
X184078152Y-49946666D01*
X184078152Y-49946666D02*
X184173390Y-49994285D01*
X184173390Y-49994285D02*
X184221009Y-50041904D01*
X184221009Y-50041904D02*
X184268628Y-50137142D01*
X184268628Y-50137142D02*
X184268628Y-50518094D01*
X184744819Y-48994285D02*
X184744819Y-49565713D01*
X184744819Y-49279999D02*
X183744819Y-49279999D01*
X183744819Y-49279999D02*
X183887676Y-49375237D01*
X183887676Y-49375237D02*
X183982914Y-49470475D01*
X183982914Y-49470475D02*
X184030533Y-49565713D01*
X184844819Y-47875238D02*
X184844819Y-48446666D01*
X184844819Y-48160952D02*
X183844819Y-48160952D01*
X183844819Y-48160952D02*
X183987676Y-48256190D01*
X183987676Y-48256190D02*
X184082914Y-48351428D01*
X184082914Y-48351428D02*
X184130533Y-48446666D01*
X183844819Y-47256190D02*
X183844819Y-47160952D01*
X183844819Y-47160952D02*
X183892438Y-47065714D01*
X183892438Y-47065714D02*
X183940057Y-47018095D01*
X183940057Y-47018095D02*
X184035295Y-46970476D01*
X184035295Y-46970476D02*
X184225771Y-46922857D01*
X184225771Y-46922857D02*
X184463866Y-46922857D01*
X184463866Y-46922857D02*
X184654342Y-46970476D01*
X184654342Y-46970476D02*
X184749580Y-47018095D01*
X184749580Y-47018095D02*
X184797200Y-47065714D01*
X184797200Y-47065714D02*
X184844819Y-47160952D01*
X184844819Y-47160952D02*
X184844819Y-47256190D01*
X184844819Y-47256190D02*
X184797200Y-47351428D01*
X184797200Y-47351428D02*
X184749580Y-47399047D01*
X184749580Y-47399047D02*
X184654342Y-47446666D01*
X184654342Y-47446666D02*
X184463866Y-47494285D01*
X184463866Y-47494285D02*
X184225771Y-47494285D01*
X184225771Y-47494285D02*
X184035295Y-47446666D01*
X184035295Y-47446666D02*
X183940057Y-47399047D01*
X183940057Y-47399047D02*
X183892438Y-47351428D01*
X183892438Y-47351428D02*
X183844819Y-47256190D01*
X184844819Y-46494285D02*
X183844819Y-46494285D01*
X184463866Y-46399047D02*
X184844819Y-46113333D01*
X184178152Y-46113333D02*
X184559104Y-46494285D01*
D16*
%TO.C,R4*%
X157480000Y-120570000D02*
X157480000Y-121340000D01*
X157480000Y-128650000D02*
X157480000Y-127880000D01*
X158850000Y-121340000D02*
X156110000Y-121340000D01*
X156110000Y-127880000D01*
X158850000Y-127880000D01*
X158850000Y-121340000D01*
%TO.C,C9*%
X103690000Y-109080000D02*
X103690000Y-104540000D01*
X103746000Y-109080000D02*
X103690000Y-109080000D01*
X105774000Y-104540000D02*
X105830000Y-104540000D01*
X105830000Y-104540000D02*
X105830000Y-109080000D01*
%TO.C,R6*%
X141690000Y-86220000D02*
X142460000Y-86220000D01*
X149770000Y-86220000D02*
X149000000Y-86220000D01*
X142460000Y-84850000D02*
X149000000Y-84850000D01*
X149000000Y-87590000D01*
X142460000Y-87590000D01*
X142460000Y-84850000D01*
%TO.C,C5*%
X166907300Y-78730503D02*
X171447300Y-78730503D01*
X166907300Y-78786503D02*
X166907300Y-78730503D01*
X171447300Y-80814503D02*
X171447300Y-80870503D01*
X171447300Y-80870503D02*
X166907300Y-80870503D01*
%TO.C,R2*%
X186530000Y-58470000D02*
X186530000Y-59240000D01*
X186530000Y-66550000D02*
X186530000Y-65780000D01*
X185160000Y-65780000D02*
X187900000Y-65780000D01*
X187900000Y-59240000D01*
X185160000Y-59240000D01*
X185160000Y-65780000D01*
%TO.C,C2*%
X180420000Y-64660000D02*
X180420000Y-60120000D01*
X180476000Y-64660000D02*
X180420000Y-64660000D01*
X182504000Y-60120000D02*
X182560000Y-60120000D01*
X182560000Y-60120000D02*
X182560000Y-64660000D01*
%TO.C,SW2*%
X183960000Y-101780000D02*
X183960000Y-106280000D01*
X186460000Y-107530000D02*
X187960000Y-107530000D01*
X187960000Y-100530000D02*
X186460000Y-100530000D01*
X190460000Y-106280000D02*
X190460000Y-101780000D01*
%TO.C,R3*%
X181450000Y-32700000D02*
X181450000Y-33470000D01*
X181450000Y-40780000D02*
X181450000Y-40010000D01*
X182820000Y-33470000D02*
X180080000Y-33470000D01*
X180080000Y-40010000D01*
X182820000Y-40010000D01*
X182820000Y-33470000D01*
%TO.C,R7*%
X141720000Y-89600000D02*
X142490000Y-89600000D01*
X149800000Y-89600000D02*
X149030000Y-89600000D01*
X142490000Y-88230000D02*
X149030000Y-88230000D01*
X149030000Y-90970000D01*
X142490000Y-90970000D01*
X142490000Y-88230000D01*
%TO.C,LPC845*%
X159645000Y-76130000D02*
X159645000Y-27760000D01*
X162405000Y-27760000D02*
X159645000Y-27760000D01*
X162405000Y-76130000D02*
X159645000Y-76130000D01*
X162405000Y-76130000D02*
X162405000Y-27760000D01*
X162405000Y-77400000D02*
X162405000Y-78780000D01*
X162405000Y-78780000D02*
X161025000Y-78780000D01*
X174645000Y-76130000D02*
X174645000Y-27760000D01*
X177405000Y-27760000D02*
X174645000Y-27760000D01*
X177405000Y-76130000D02*
X174645000Y-76130000D01*
X177405000Y-76130000D02*
X177405000Y-27760000D01*
X177405000Y-77400000D02*
X177405000Y-78780000D01*
X177405000Y-78780000D02*
X176025000Y-78780000D01*
%TO.C,C6*%
X113630000Y-108970000D02*
X113630000Y-104430000D01*
X113686000Y-108970000D02*
X113630000Y-108970000D01*
X115714000Y-104430000D02*
X115770000Y-104430000D01*
X115770000Y-104430000D02*
X115770000Y-108970000D01*
%TO.C,C8*%
X161640000Y-119160000D02*
X161640000Y-114620000D01*
X161696000Y-119160000D02*
X161640000Y-119160000D01*
X163724000Y-114620000D02*
X163780000Y-114620000D01*
X163780000Y-114620000D02*
X163780000Y-119160000D01*
%TO.C,HEADER_2X1*%
X96750000Y-28822500D02*
X104070000Y-28822500D01*
X96750000Y-36862500D02*
X96750000Y-28822500D01*
X97558000Y-32242500D02*
X96750000Y-32242500D01*
X97558000Y-33242500D02*
X96750000Y-33242500D01*
X98827000Y-30942500D02*
X96750000Y-30942500D01*
X102490000Y-30942500D02*
X99913000Y-30942500D01*
X102490000Y-32242500D02*
X101182000Y-32242500D01*
X102490000Y-33242500D02*
X101182000Y-33242500D01*
X104670000Y-28822500D02*
X107490000Y-28822500D01*
X107490000Y-28822500D02*
X107490000Y-36862500D01*
X107490000Y-30942500D02*
X106250000Y-30942500D01*
X107490000Y-32242500D02*
X106250000Y-32242500D01*
X107490000Y-33242500D02*
X106250000Y-33242500D01*
X107490000Y-36862500D02*
X96750000Y-36862500D01*
X104370000Y-28822500D02*
X103930000Y-28212500D01*
X104810000Y-28212500D01*
X104370000Y-28822500D01*
G36*
X104370000Y-28822500D02*
G01*
X103930000Y-28212500D01*
X104810000Y-28212500D01*
X104370000Y-28822500D01*
G37*
%TO.C,C1*%
X180420000Y-51100000D02*
X180420000Y-46560000D01*
X180476000Y-51100000D02*
X180420000Y-51100000D01*
X182504000Y-46560000D02*
X182560000Y-46560000D01*
X182560000Y-46560000D02*
X182560000Y-51100000D01*
%TO.C,DISPLAY1*%
X129465000Y-37547500D02*
X129465000Y-36167500D01*
X130845000Y-37547500D02*
X129465000Y-37547500D01*
X132115000Y-34787500D02*
X139845000Y-34787500D01*
X132115000Y-37547500D02*
X132115000Y-34787500D01*
X132115000Y-37547500D02*
X139845000Y-37547500D01*
X139845000Y-37547500D02*
X139845000Y-34787500D01*
%TO.C,C4*%
X107815113Y-145603000D02*
X107815113Y-145037000D01*
X107855113Y-145837000D02*
X107855113Y-144803000D01*
X107895113Y-145997000D02*
X107895113Y-144643000D01*
X107935113Y-146125000D02*
X107935113Y-144515000D01*
X107975113Y-146234000D02*
X107975113Y-144406000D01*
X108015113Y-146331000D02*
X108015113Y-144309000D01*
X108055113Y-146418000D02*
X108055113Y-144222000D01*
X108095113Y-146497000D02*
X108095113Y-144143000D01*
X108135113Y-144280000D02*
X108135113Y-144069000D01*
X108135113Y-146571000D02*
X108135113Y-146360000D01*
X108175113Y-144280000D02*
X108175113Y-144001000D01*
X108175113Y-146639000D02*
X108175113Y-146360000D01*
X108215113Y-144280000D02*
X108215113Y-143937000D01*
X108215113Y-146703000D02*
X108215113Y-146360000D01*
X108255113Y-144280000D02*
X108255113Y-143877000D01*
X108255113Y-146763000D02*
X108255113Y-146360000D01*
X108295113Y-144280000D02*
X108295113Y-143821000D01*
X108295113Y-146819000D02*
X108295113Y-146360000D01*
X108335113Y-144280000D02*
X108335113Y-143767000D01*
X108335113Y-146873000D02*
X108335113Y-146360000D01*
X108375113Y-144280000D02*
X108375113Y-143716000D01*
X108375113Y-146924000D02*
X108375113Y-146360000D01*
X108415113Y-144280000D02*
X108415113Y-143668000D01*
X108415113Y-146972000D02*
X108415113Y-146360000D01*
X108455113Y-144280000D02*
X108455113Y-143621000D01*
X108455113Y-147019000D02*
X108455113Y-146360000D01*
X108495113Y-144280000D02*
X108495113Y-143577000D01*
X108495113Y-147063000D02*
X108495113Y-146360000D01*
X108535113Y-144280000D02*
X108535113Y-143535000D01*
X108535113Y-147105000D02*
X108535113Y-146360000D01*
X108575113Y-144280000D02*
X108575113Y-143495000D01*
X108575113Y-147145000D02*
X108575113Y-146360000D01*
X108615113Y-144280000D02*
X108615113Y-143456000D01*
X108615113Y-147184000D02*
X108615113Y-146360000D01*
X108655113Y-144280000D02*
X108655113Y-143419000D01*
X108655113Y-147221000D02*
X108655113Y-146360000D01*
X108695113Y-144280000D02*
X108695113Y-143384000D01*
X108695113Y-147256000D02*
X108695113Y-146360000D01*
X108735113Y-144280000D02*
X108735113Y-143350000D01*
X108735113Y-147290000D02*
X108735113Y-146360000D01*
X108775113Y-144280000D02*
X108775113Y-143317000D01*
X108775113Y-147323000D02*
X108775113Y-146360000D01*
X108815113Y-144280000D02*
X108815113Y-143285000D01*
X108815113Y-147355000D02*
X108815113Y-146360000D01*
X108855113Y-144280000D02*
X108855113Y-143255000D01*
X108855113Y-147385000D02*
X108855113Y-146360000D01*
X108895113Y-144280000D02*
X108895113Y-143226000D01*
X108895113Y-147414000D02*
X108895113Y-146360000D01*
X108935113Y-144280000D02*
X108935113Y-143198000D01*
X108935113Y-147442000D02*
X108935113Y-146360000D01*
X108975113Y-144280000D02*
X108975113Y-143171000D01*
X108975113Y-147469000D02*
X108975113Y-146360000D01*
X109015113Y-144280000D02*
X109015113Y-143145000D01*
X109015113Y-147495000D02*
X109015113Y-146360000D01*
X109055113Y-144280000D02*
X109055113Y-143121000D01*
X109055113Y-147519000D02*
X109055113Y-146360000D01*
X109095113Y-144280000D02*
X109095113Y-143097000D01*
X109095113Y-147543000D02*
X109095113Y-146360000D01*
X109135113Y-144280000D02*
X109135113Y-143074000D01*
X109135113Y-147566000D02*
X109135113Y-146360000D01*
X109175113Y-144280000D02*
X109175113Y-143052000D01*
X109175113Y-147588000D02*
X109175113Y-146360000D01*
X109215113Y-144280000D02*
X109215113Y-143031000D01*
X109215113Y-147609000D02*
X109215113Y-146360000D01*
X109255113Y-144280000D02*
X109255113Y-143011000D01*
X109255113Y-147629000D02*
X109255113Y-146360000D01*
X109295113Y-144280000D02*
X109295113Y-142991000D01*
X109295113Y-147649000D02*
X109295113Y-146360000D01*
X109335113Y-144280000D02*
X109335113Y-142973000D01*
X109335113Y-147667000D02*
X109335113Y-146360000D01*
X109375113Y-144280000D02*
X109375113Y-142955000D01*
X109375113Y-147685000D02*
X109375113Y-146360000D01*
X109415113Y-144280000D02*
X109415113Y-142938000D01*
X109415113Y-147702000D02*
X109415113Y-146360000D01*
X109455113Y-144280000D02*
X109455113Y-142922000D01*
X109455113Y-147718000D02*
X109455113Y-146360000D01*
X109495113Y-144280000D02*
X109495113Y-142907000D01*
X109495113Y-147733000D02*
X109495113Y-146360000D01*
X109535113Y-144280000D02*
X109535113Y-142892000D01*
X109535113Y-147748000D02*
X109535113Y-146360000D01*
X109575113Y-144280000D02*
X109575113Y-142878000D01*
X109575113Y-147762000D02*
X109575113Y-146360000D01*
X109615113Y-144280000D02*
X109615113Y-142865000D01*
X109615113Y-147775000D02*
X109615113Y-146360000D01*
X109655113Y-144280000D02*
X109655113Y-142853000D01*
X109655113Y-147787000D02*
X109655113Y-146360000D01*
X109695113Y-144280000D02*
X109695113Y-142841000D01*
X109695113Y-147799000D02*
X109695113Y-146360000D01*
X109735113Y-144280000D02*
X109735113Y-142830000D01*
X109735113Y-147810000D02*
X109735113Y-146360000D01*
X109775113Y-144280000D02*
X109775113Y-142819000D01*
X109775113Y-147821000D02*
X109775113Y-146360000D01*
X109815113Y-144280000D02*
X109815113Y-142810000D01*
X109815113Y-147830000D02*
X109815113Y-146360000D01*
X109855113Y-144280000D02*
X109855113Y-142801000D01*
X109855113Y-147839000D02*
X109855113Y-146360000D01*
X109895113Y-144280000D02*
X109895113Y-142792000D01*
X109895113Y-147848000D02*
X109895113Y-146360000D01*
X109935113Y-144280000D02*
X109935113Y-142784000D01*
X109935113Y-147856000D02*
X109935113Y-146360000D01*
X109975113Y-144280000D02*
X109975113Y-142777000D01*
X109975113Y-147863000D02*
X109975113Y-146360000D01*
X110015113Y-144280000D02*
X110015113Y-142771000D01*
X110015113Y-147869000D02*
X110015113Y-146360000D01*
X110055113Y-144280000D02*
X110055113Y-142765000D01*
X110055113Y-147875000D02*
X110055113Y-146360000D01*
X110095113Y-144280000D02*
X110095113Y-142760000D01*
X110095113Y-147880000D02*
X110095113Y-146360000D01*
X110135113Y-144280000D02*
X110135113Y-142755000D01*
X110135113Y-147885000D02*
X110135113Y-146360000D01*
X110175113Y-144280000D02*
X110175113Y-142751000D01*
X110175113Y-147889000D02*
X110175113Y-146360000D01*
X110215113Y-147892000D02*
X110215113Y-142748000D01*
X110255113Y-147895000D02*
X110255113Y-142745000D01*
X110295113Y-147897000D02*
X110295113Y-142743000D01*
X110335113Y-147899000D02*
X110335113Y-142741000D01*
X110375113Y-147900000D02*
X110375113Y-142740000D01*
X110415113Y-147900000D02*
X110415113Y-142740000D01*
X112969888Y-147045000D02*
X112969888Y-146545000D01*
X113219888Y-146795000D02*
X112719888Y-146795000D01*
X113035113Y-145320000D02*
G75*
G02*
X107795113Y-145320000I-2620000J0D01*
G01*
X107795113Y-145320000D02*
G75*
G02*
X113035113Y-145320000I2620000J0D01*
G01*
%TO.C,C3*%
X108224662Y-148880636D02*
X112764662Y-148880636D01*
X108224662Y-148936636D02*
X108224662Y-148880636D01*
X112764662Y-150964636D02*
X112764662Y-151020636D01*
X112764662Y-151020636D02*
X108224662Y-151020636D01*
%TO.C,R5*%
X152400000Y-123130000D02*
X152400000Y-123900000D01*
X152400000Y-131210000D02*
X152400000Y-130440000D01*
X153770000Y-123900000D02*
X151030000Y-123900000D01*
X151030000Y-130440000D01*
X153770000Y-130440000D01*
X153770000Y-123900000D01*
%TO.C,SW1*%
X192760000Y-101860000D02*
X192760000Y-106360000D01*
X195260000Y-107610000D02*
X196760000Y-107610000D01*
X196760000Y-100610000D02*
X195260000Y-100610000D01*
X199260000Y-106360000D02*
X199260000Y-101860000D01*
%TO.C,C7*%
X134750000Y-30600000D02*
X139290000Y-30600000D01*
X134750000Y-30656000D02*
X134750000Y-30600000D01*
X139290000Y-32684000D02*
X139290000Y-32740000D01*
X139290000Y-32740000D02*
X134750000Y-32740000D01*
%TO.C,BZ1*%
X201949424Y-36004227D02*
G75*
G02*
X189749424Y-36004227I-6100000J0D01*
G01*
X189749424Y-36004227D02*
G75*
G02*
X201949424Y-36004227I6100000J0D01*
G01*
%TO.C,Q1*%
X188630463Y-38284227D02*
X188630463Y-34684227D01*
X184180463Y-36484227D02*
G75*
G02*
X188618941Y-34645749I2600000J0D01*
G01*
X188618941Y-38322705D02*
G75*
G02*
X184180462Y-36484227I-1838478J1838478D01*
G01*
%TO.C,ESP32*%
X119250000Y-102890000D02*
X120630000Y-102890000D01*
X119250000Y-104270000D02*
X119250000Y-102890000D01*
X119250000Y-105540000D02*
X119250000Y-151370000D01*
X119250000Y-105540000D02*
X122010000Y-105540000D01*
X119250000Y-151370000D02*
X122010000Y-151370000D01*
X122010000Y-105540000D02*
X122010000Y-151370000D01*
X144250000Y-102890000D02*
X145630000Y-102890000D01*
X144250000Y-104270000D02*
X144250000Y-102890000D01*
X144250000Y-105540000D02*
X144250000Y-151370000D01*
X144250000Y-105540000D02*
X147010000Y-105540000D01*
X144250000Y-151370000D02*
X147010000Y-151370000D01*
X147010000Y-105540000D02*
X147010000Y-151370000D01*
%TO.C,D1*%
X108080000Y-111040000D02*
X111020000Y-111040000D01*
X108080000Y-111160000D02*
X111020000Y-111160000D01*
X108080000Y-111280000D02*
X111020000Y-111280000D01*
X109550000Y-105600000D02*
X109550000Y-106620000D01*
X109550000Y-113080000D02*
X109550000Y-112060000D01*
X108080000Y-112060000D02*
X111020000Y-112060000D01*
X111020000Y-106620000D01*
X108080000Y-106620000D01*
X108080000Y-112060000D01*
%TO.C,POWER_SWITCH3*%
X102637500Y-40970000D02*
X106837500Y-40970000D01*
X102637500Y-42170000D02*
X102637500Y-40970000D01*
X102637500Y-49820000D02*
X102637500Y-50170000D01*
X102637500Y-50170000D02*
X106837500Y-50170000D01*
X106837500Y-40970000D02*
X106837500Y-42170000D01*
X106837500Y-50170000D02*
X106837500Y-48970000D01*
X102637500Y-49550000D02*
X102157500Y-49070000D01*
X102637500Y-49070000D01*
X102637500Y-49550000D01*
G36*
X102637500Y-49550000D02*
G01*
X102157500Y-49070000D01*
X102637500Y-49070000D01*
X102637500Y-49550000D01*
G37*
%TO.C,R1*%
X186520000Y-44680000D02*
X186520000Y-45450000D01*
X186520000Y-52760000D02*
X186520000Y-51990000D01*
X185150000Y-51990000D02*
X187890000Y-51990000D01*
X187890000Y-45450000D01*
X185150000Y-45450000D01*
X185150000Y-51990000D01*
%TO.C,MAX30102*%
X163660000Y-100200000D02*
X165040000Y-100200000D01*
X163660000Y-101580000D02*
X163660000Y-100200000D01*
X163660000Y-102850000D02*
X163660000Y-110580000D01*
X163660000Y-102850000D02*
X166420000Y-102850000D01*
X163660000Y-110580000D02*
X166420000Y-110580000D01*
X173930000Y-100207500D02*
X175310000Y-100207500D01*
X173930000Y-101587500D02*
X173930000Y-100207500D01*
X173930000Y-102857500D02*
X173930000Y-110587500D01*
X173930000Y-102857500D02*
X176690000Y-102857500D01*
X173930000Y-110587500D02*
X176690000Y-110587500D01*
%TD*%
M02*
