%TF.GenerationSoftware,KiCad,Pcbnew,9.0.7-9.0.7~ubuntu24.04.1*%
%TF.CreationDate,2026-03-16T21:00:05-03:00*%
%TF.ProjectId,active_low_pass_filter,61637469-7665-45f6-9c6f-775f70617373,rev?*%
%TF.SameCoordinates,Original*%
%TF.FileFunction,Copper,L2,Bot*%
%TF.FilePolarity,Positive*%
%FSLAX46Y46*%
G04 Gerber Fmt 4.6, Leading zero omitted, Abs format (unit mm)*
G04 Created by KiCad (PCBNEW 9.0.7-9.0.7~ubuntu24.04.1) date 2026-03-16 21:00:05*
%MOMM*%
%LPD*%
G01*
G04 APERTURE LIST*
G04 Aperture macros list*
%AMRoundRect*
0 Rectangle with rounded corners*
0 $1 Rounding radius*
0 $2 $3 $4 $5 $6 $7 $8 $9 X,Y pos of 4 corners*
0 Add a 4 corners polygon primitive as box body*
4,1,4,$2,$3,$4,$5,$6,$7,$8,$9,$2,$3,0*
0 Add four circle primitives for the rounded corners*
1,1,$1+$1,$2,$3*
1,1,$1+$1,$4,$5*
1,1,$1+$1,$6,$7*
1,1,$1+$1,$8,$9*
0 Add four rect primitives between the rounded corners*
20,1,$1+$1,$2,$3,$4,$5,0*
20,1,$1+$1,$4,$5,$6,$7,0*
20,1,$1+$1,$6,$7,$8,$9,0*
20,1,$1+$1,$8,$9,$2,$3,0*%
G04 Aperture macros list end*
%TA.AperFunction,ComponentPad*%
%ADD10C,2.800000*%
%TD*%
%TA.AperFunction,ComponentPad*%
%ADD11C,1.600000*%
%TD*%
%TA.AperFunction,ComponentPad*%
%ADD12RoundRect,0.250000X-0.950000X-0.550000X0.950000X-0.550000X0.950000X0.550000X-0.950000X0.550000X0*%
%TD*%
%TA.AperFunction,ComponentPad*%
%ADD13O,2.400000X1.600000*%
%TD*%
%TA.AperFunction,ComponentPad*%
%ADD14C,2.400000*%
%TD*%
%TA.AperFunction,ViaPad*%
%ADD15C,2.000000*%
%TD*%
%TA.AperFunction,Conductor*%
%ADD16C,0.800000*%
%TD*%
%TA.AperFunction,Conductor*%
%ADD17C,0.200000*%
%TD*%
%TA.AperFunction,Conductor*%
%ADD18C,1.500000*%
%TD*%
G04 APERTURE END LIST*
D10*
%TO.P,GND,1,1*%
%TO.N,GND*%
X143390000Y-83180000D03*
%TD*%
D11*
%TO.P,R6,1*%
%TO.N,Net-(R6-Pad1)*%
X166160000Y-98050000D03*
%TO.P,R6,2*%
%TO.N,Net-(C4-Pad1)*%
X166160000Y-90430000D03*
%TD*%
D10*
%TO.P,Vin_LP,1,1*%
%TO.N,Net-(R1-Pad1)*%
X115830000Y-91090000D03*
%TD*%
D12*
%TO.P,U1,1*%
%TO.N,Net-(C2-Pad2)*%
X139480000Y-88870000D03*
D13*
%TO.P,U1,2,-*%
%TO.N,Net-(U1A--)*%
X139480000Y-91410000D03*
%TO.P,U1,3,+*%
%TO.N,N/C*%
X139480000Y-93950000D03*
%TO.P,U1,4,V-*%
%TO.N,-Vcc*%
X139480000Y-96490000D03*
%TO.P,U1,5,+*%
%TO.N,Net-(U1B-+)*%
X147100000Y-96490000D03*
%TO.P,U1,6,-*%
%TO.N,Net-(U1B--)*%
X147100000Y-93950000D03*
%TO.P,U1,7*%
X147100000Y-91410000D03*
%TO.P,U1,8,V+*%
%TO.N,+Vcc*%
X147100000Y-88870000D03*
%TD*%
D11*
%TO.P,R2,1*%
%TO.N,Net-(C1-Pad1)*%
X124800000Y-88800000D03*
%TO.P,R2,2*%
%TO.N,Net-(U1A--)*%
X124800000Y-96420000D03*
%TD*%
D10*
%TO.P,-Vcc,1,1*%
%TO.N,-Vcc*%
X139730000Y-104570000D03*
%TD*%
D14*
%TO.P,R4,1*%
%TO.N,GND*%
X155020000Y-105750000D03*
%TO.P,R4,2*%
%TO.N,Net-(U1B-+)*%
X155020000Y-90510000D03*
%TD*%
D10*
%TO.P,Vin_NCH,1,1*%
%TO.N,Net-(R6-Pad1)*%
X172550000Y-91760000D03*
%TD*%
%TO.P,Vout_LP,1,1*%
%TO.N,Net-(C2-Pad2)*%
X138880000Y-83200000D03*
%TD*%
D11*
%TO.P,C3,1*%
%TO.N,Net-(C3-Pad1)*%
X159420000Y-93020000D03*
%TO.P,C3,2*%
%TO.N,Net-(U1B-+)*%
X159420000Y-90520000D03*
%TD*%
%TO.P,C2,1*%
%TO.N,Net-(U1A--)*%
X132890000Y-94920000D03*
%TO.P,C2,2*%
%TO.N,Net-(C2-Pad2)*%
X132890000Y-92420000D03*
%TD*%
D10*
%TO.P,GND,1,1*%
%TO.N,GND*%
X172550000Y-96260000D03*
%TD*%
D11*
%TO.P,R5,1*%
%TO.N,Net-(C3-Pad1)*%
X162620000Y-87250000D03*
%TO.P,R5,2*%
%TO.N,Net-(U1B--)*%
X155000000Y-87250000D03*
%TD*%
%TO.P,C4,1*%
%TO.N,Net-(C4-Pad1)*%
X162770000Y-93040000D03*
%TO.P,C4,2*%
%TO.N,Net-(C3-Pad1)*%
X162770000Y-90540000D03*
%TD*%
%TO.P,C6,1*%
%TO.N,+Vcc*%
X150390000Y-89850000D03*
%TO.P,C6,2*%
%TO.N,GND*%
X150390000Y-87350000D03*
%TD*%
%TO.P,R1,1*%
%TO.N,Net-(R1-Pad1)*%
X121290000Y-96500000D03*
%TO.P,R1,2*%
%TO.N,Net-(C1-Pad1)*%
X121290000Y-88880000D03*
%TD*%
%TO.P,R3,1*%
%TO.N,Net-(C1-Pad1)*%
X128510000Y-88810000D03*
%TO.P,R3,2*%
%TO.N,Net-(C2-Pad2)*%
X136130000Y-88810000D03*
%TD*%
%TO.P,C5,1*%
%TO.N,-Vcc*%
X136160000Y-98110000D03*
%TO.P,C5,2*%
%TO.N,GND*%
X136160000Y-95610000D03*
%TD*%
%TO.P,C1,1*%
%TO.N,Net-(C1-Pad1)*%
X128980000Y-92410000D03*
%TO.P,C1,2*%
%TO.N,GND*%
X128980000Y-94910000D03*
%TD*%
D10*
%TO.P,+Vcc,1,1*%
%TO.N,+Vcc*%
X147100000Y-104450000D03*
%TD*%
%TO.P,GND,1,1*%
%TO.N,GND*%
X115900000Y-95560000D03*
%TD*%
%TO.P,Vout_NCH,1,1*%
%TO.N,Net-(U1B--)*%
X147980000Y-83170000D03*
%TD*%
D15*
%TO.N,+Vcc*%
X150450000Y-98180000D03*
%TD*%
D16*
%TO.N,GND*%
X136160000Y-95610000D02*
X137820000Y-95610000D01*
X137820000Y-95610000D02*
X139480000Y-93950000D01*
D17*
%TO.N,Net-(C1-Pad1)*%
X124800000Y-88800000D02*
X124870000Y-88800000D01*
X124720000Y-88880000D02*
X124800000Y-88800000D01*
D16*
X124880000Y-88810000D02*
X128510000Y-88810000D01*
X128510000Y-88810000D02*
X128510000Y-90240000D01*
D17*
X128980000Y-90710000D02*
X128980000Y-90750000D01*
X124870000Y-88800000D02*
X124880000Y-88810000D01*
D16*
X128980000Y-90750000D02*
X128980000Y-92410000D01*
X128510000Y-90240000D02*
X128980000Y-90710000D01*
X121290000Y-88880000D02*
X124720000Y-88880000D01*
%TO.N,Net-(U1A--)*%
X132890000Y-94920000D02*
X132890000Y-94510000D01*
X124800000Y-96420000D02*
X126170000Y-96420000D01*
X132890000Y-94510000D02*
X133770000Y-93630000D01*
X132890000Y-96630000D02*
X132890000Y-94920000D01*
X137260000Y-93630000D02*
X139480000Y-91410000D01*
X126170000Y-96420000D02*
X127390000Y-97640000D01*
X127390000Y-97640000D02*
X131880000Y-97640000D01*
X133770000Y-93630000D02*
X137260000Y-93630000D01*
X131880000Y-97640000D02*
X132890000Y-96630000D01*
D17*
%TO.N,Net-(C2-Pad2)*%
X139420000Y-88810000D02*
X139470000Y-88860000D01*
D16*
X135910000Y-92440000D02*
X139480000Y-88870000D01*
X139470000Y-87480000D02*
X139470000Y-88860000D01*
D17*
X139470000Y-88860000D02*
X139480000Y-88870000D01*
X135530000Y-88860000D02*
X135530000Y-89080000D01*
D16*
X132890000Y-92420000D02*
X132920000Y-92390000D01*
X138880000Y-86890000D02*
X139470000Y-87480000D01*
X138880000Y-83200000D02*
X138880000Y-86890000D01*
X132320000Y-92440000D02*
X135910000Y-92440000D01*
X136130000Y-88810000D02*
X139420000Y-88810000D01*
%TO.N,Net-(U1B-+)*%
X155030000Y-90520000D02*
X155030000Y-92490000D01*
X155030000Y-92490000D02*
X151030000Y-96490000D01*
X151030000Y-96490000D02*
X147100000Y-96490000D01*
D17*
X155030000Y-90520000D02*
X155020000Y-90510000D01*
D16*
X159420000Y-90520000D02*
X155030000Y-90520000D01*
%TO.N,Net-(C3-Pad1)*%
X160830000Y-91020000D02*
X161310000Y-90540000D01*
D17*
X162900000Y-90430000D02*
X162810000Y-90520000D01*
X159420000Y-93020000D02*
X160150000Y-93020000D01*
D16*
X162770000Y-89310000D02*
X162770000Y-90540000D01*
X160830000Y-92340000D02*
X160830000Y-91020000D01*
X162620000Y-87250000D02*
X162620000Y-89160000D01*
X161310000Y-90540000D02*
X162770000Y-90540000D01*
X162620000Y-89160000D02*
X162770000Y-89310000D01*
X160150000Y-93020000D02*
X160830000Y-92340000D01*
%TO.N,Net-(C4-Pad1)*%
X164670000Y-93040000D02*
X162770000Y-93040000D01*
X166160000Y-90430000D02*
X166160000Y-91610000D01*
X166160000Y-91610000D02*
X164700000Y-93070000D01*
D17*
X164700000Y-93070000D02*
X164670000Y-93040000D01*
D16*
%TO.N,Net-(R1-Pad1)*%
X119300000Y-96500000D02*
X121290000Y-96500000D01*
X118850000Y-92030000D02*
X118850000Y-96050000D01*
X115830000Y-91090000D02*
X117910000Y-91090000D01*
D17*
X115960000Y-90960000D02*
X115830000Y-91090000D01*
D16*
X117910000Y-91090000D02*
X118850000Y-92030000D01*
X118850000Y-96050000D02*
X119300000Y-96500000D01*
D17*
X121170000Y-96620000D02*
X121290000Y-96500000D01*
D16*
%TO.N,Net-(U1B--)*%
X152650000Y-88450000D02*
X152650000Y-92690000D01*
X149200000Y-93950000D02*
X147100000Y-93950000D01*
X155000000Y-87250000D02*
X153850000Y-87250000D01*
X153850000Y-87250000D02*
X152650000Y-88450000D01*
X151390000Y-93950000D02*
X149200000Y-93950000D01*
X152650000Y-92690000D02*
X151390000Y-93950000D01*
X145650000Y-91410000D02*
X147100000Y-91410000D01*
X145140000Y-90900000D02*
X145650000Y-91410000D01*
X147100000Y-93950000D02*
X147100000Y-91410000D01*
X147980000Y-83170000D02*
X145140000Y-86010000D01*
X145140000Y-86010000D02*
X145140000Y-90900000D01*
%TO.N,Net-(R6-Pad1)*%
X169050000Y-97460000D02*
X168460000Y-98050000D01*
X169050000Y-92780000D02*
X169050000Y-97460000D01*
X168460000Y-98050000D02*
X166160000Y-98050000D01*
X170070000Y-91760000D02*
X169050000Y-92780000D01*
X172550000Y-91760000D02*
X170070000Y-91760000D01*
D18*
%TO.N,+Vcc*%
X147100000Y-104450000D02*
X149340000Y-104450000D01*
X149410000Y-88870000D02*
X147100000Y-88870000D01*
X150450000Y-103340000D02*
X150450000Y-98180000D01*
X149340000Y-104450000D02*
X150450000Y-103340000D01*
X150390000Y-89850000D02*
X149410000Y-88870000D01*
%TO.N,-Vcc*%
X139730000Y-104570000D02*
X139740000Y-104560000D01*
X139740000Y-96750000D02*
X139480000Y-96490000D01*
X139740000Y-104560000D02*
X139740000Y-96750000D01*
X137860000Y-98110000D02*
X139480000Y-96490000D01*
X136160000Y-98110000D02*
X137860000Y-98110000D01*
%TD*%
M02*
