M48
; DRILL file {KiCad 9.0.7-9.0.7~ubuntu24.04.1} date 2026-03-16T21:00:27-0300
; FORMAT={-:-/ absolute / metric / decimal}
; #@! TF.CreationDate,2026-03-16T21:00:27-03:00
; #@! TF.GenerationSoftware,Kicad,Pcbnew,9.0.7-9.0.7~ubuntu24.04.1
; #@! TF.FileFunction,Plated,1,2,PTH
FMAT,2
METRIC
; #@! TA.AperFunction,Plated,PTH,ViaDrill
T1C0.800
; #@! TA.AperFunction,Plated,PTH,ComponentDrill
T2C0.800
; #@! TA.AperFunction,Plated,PTH,ComponentDrill
T3C1.200
; #@! TA.AperFunction,Plated,PTH,ComponentDrill
T4C1.600
%
G90
G05
T1
X150.45Y-98.18
T2
X121.29Y-88.88
X121.29Y-96.5
X124.8Y-88.8
X124.8Y-96.42
X128.51Y-88.81
X128.98Y-92.41
X128.98Y-94.91
X132.89Y-92.42
X132.89Y-94.92
X136.13Y-88.81
X136.16Y-95.61
X136.16Y-98.11
X139.48Y-88.87
X139.48Y-91.41
X139.48Y-93.95
X139.48Y-96.49
X147.1Y-88.87
X147.1Y-91.41
X147.1Y-93.95
X147.1Y-96.49
X150.39Y-87.35
X150.39Y-89.85
X155.0Y-87.25
X159.42Y-90.52
X159.42Y-93.02
X162.62Y-87.25
X162.77Y-90.54
X162.77Y-93.04
X166.16Y-90.43
X166.16Y-98.05
T3
X155.02Y-90.51
X155.02Y-105.75
T4
X115.83Y-91.09
X115.9Y-95.56
X138.88Y-83.2
X139.73Y-104.57
X143.39Y-83.18
X147.1Y-104.45
X147.98Y-83.17
X172.55Y-91.76
X172.55Y-96.26
M30
