%TF.GenerationSoftware,KiCad,Pcbnew,9.0.7-9.0.7~ubuntu24.04.1*%
%TF.CreationDate,2026-03-16T21:00:05-03:00*%
%TF.ProjectId,active_low_pass_filter,61637469-7665-45f6-9c6f-775f70617373,rev?*%
%TF.SameCoordinates,Original*%
%TF.FileFunction,Soldermask,Top*%
%TF.FilePolarity,Negative*%
%FSLAX46Y46*%
G04 Gerber Fmt 4.6, Leading zero omitted, Abs format (unit mm)*
G04 Created by KiCad (PCBNEW 9.0.7-9.0.7~ubuntu24.04.1) date 2026-03-16 21:00:05*
%MOMM*%
%LPD*%
G01*
G04 APERTURE LIST*
G04 Aperture macros list*
%AMRoundRect*
0 Rectangle with rounded corners*
0 $1 Rounding radius*
0 $2 $3 $4 $5 $6 $7 $8 $9 X,Y pos of 4 corners*
0 Add a 4 corners polygon primitive as box body*
4,1,4,$2,$3,$4,$5,$6,$7,$8,$9,$2,$3,0*
0 Add four circle primitives for the rounded corners*
1,1,$1+$1,$2,$3*
1,1,$1+$1,$4,$5*
1,1,$1+$1,$6,$7*
1,1,$1+$1,$8,$9*
0 Add four rect primitives between the rounded corners*
20,1,$1+$1,$2,$3,$4,$5,0*
20,1,$1+$1,$4,$5,$6,$7,0*
20,1,$1+$1,$6,$7,$8,$9,0*
20,1,$1+$1,$8,$9,$2,$3,0*%
G04 Aperture macros list end*
%ADD10C,2.800000*%
%ADD11C,1.600000*%
%ADD12RoundRect,0.250000X-0.950000X-0.550000X0.950000X-0.550000X0.950000X0.550000X-0.950000X0.550000X0*%
%ADD13O,2.400000X1.600000*%
%ADD14C,2.400000*%
G04 APERTURE END LIST*
D10*
%TO.C,GND*%
X143390000Y-83180000D03*
%TD*%
D11*
%TO.C,R6*%
X166160000Y-98050000D03*
X166160000Y-90430000D03*
%TD*%
D10*
%TO.C,Vin_LP*%
X115830000Y-91090000D03*
%TD*%
D12*
%TO.C,U1*%
X139480000Y-88870000D03*
D13*
X139480000Y-91410000D03*
X139480000Y-93950000D03*
X139480000Y-96490000D03*
X147100000Y-96490000D03*
X147100000Y-93950000D03*
X147100000Y-91410000D03*
X147100000Y-88870000D03*
%TD*%
D11*
%TO.C,R2*%
X124800000Y-88800000D03*
X124800000Y-96420000D03*
%TD*%
D10*
%TO.C,-Vcc*%
X139730000Y-104570000D03*
%TD*%
D14*
%TO.C,R4*%
X155020000Y-105750000D03*
X155020000Y-90510000D03*
%TD*%
D10*
%TO.C,Vin_NCH*%
X172550000Y-91760000D03*
%TD*%
%TO.C,Vout_LP*%
X138880000Y-83200000D03*
%TD*%
D11*
%TO.C,C3*%
X159420000Y-93020000D03*
X159420000Y-90520000D03*
%TD*%
%TO.C,C2*%
X132890000Y-94920000D03*
X132890000Y-92420000D03*
%TD*%
D10*
%TO.C,GND*%
X172550000Y-96260000D03*
%TD*%
D11*
%TO.C,R5*%
X162620000Y-87250000D03*
X155000000Y-87250000D03*
%TD*%
%TO.C,C4*%
X162770000Y-93040000D03*
X162770000Y-90540000D03*
%TD*%
%TO.C,C6*%
X150390000Y-89850000D03*
X150390000Y-87350000D03*
%TD*%
%TO.C,R1*%
X121290000Y-96500000D03*
X121290000Y-88880000D03*
%TD*%
%TO.C,R3*%
X128510000Y-88810000D03*
X136130000Y-88810000D03*
%TD*%
%TO.C,C5*%
X136160000Y-98110000D03*
X136160000Y-95610000D03*
%TD*%
%TO.C,C1*%
X128980000Y-92410000D03*
X128980000Y-94910000D03*
%TD*%
D10*
%TO.C,+Vcc*%
X147100000Y-104450000D03*
%TD*%
%TO.C,GND*%
X115900000Y-95560000D03*
%TD*%
%TO.C,Vout_NCH*%
X147980000Y-83170000D03*
%TD*%
M02*
